JosefinSlab-Bold.ufo
<glyph name="exclam" format="2">
  <advance width="201"/>
  <unicode hex="0021"/>
  <outline>
    <contour>
      <point x="151" y="53" type="qcurve" smooth="yes"/>
      <point x="151" y="30"/>
      <point x="119" y="0"/>
      <point x="100" y="0" type="qcurve" smooth="yes"/>
      <point x="80" y="0"/>
      <point x="48" y="30"/>
      <point x="48" y="53" type="qcurve" smooth="yes"/>
      <point x="48" y="76"/>
      <point x="80" y="105"/>
      <point x="100" y="105" type="qcurve" smooth="yes"/>
      <point x="119" y="105"/>
      <point x="151" y="76"/>
    </contour>
    <contour>
      <point x="141" y="166" type="line"/>
      <point x="58" y="166" type="line"/>
      <point x="58" y="750" type="line"/>
      <point x="141" y="750" type="line"/>
    </contour>
  </outline>
</glyph>
<glyph name="quotedbl" format="2">
  <advance width="335"/>
  <unicode hex="0022"/>
  <outline>
    <contour>
      <point x="275" y="472" type="qcurve"/>
      <point x="196" y="472" type="line"/>
      <point x="196" y="720" type="line"/>
      <point x="279" y="720" type="line"/>
      <point x="278" y="657"/>
      <point x="276" y="535"/>
    </contour>
    <contour>
      <point x="142" y="472" type="qcurve"/>
      <point x="63" y="472" type="line"/>
      <point x="63" y="720" type="line"/>
      <point x="146" y="720" type="line"/>
      <point x="145" y="657"/>
      <point x="143" y="535"/>
    </contour>
  </outline>
</glyph>
<glyph name="dollar" format="2">
  <advance width="567"/>
  <unicode hex="0024"/>
  <outline>
    <contour>
      <point x="281" y="-68" type="line"/>
      <point x="197" y="-68" type="line"/>
      <point x="197" y="-3" type="line"/>
      <point x="169" y="1"/>
      <point x="118" y="18"/>
      <point x="96" y="30" type="qcurve" smooth="yes"/>
      <point x="71" y="43"/>
      <point x="33" y="75"/>
      <point x="21" y="93" type="qcurve"/>
      <point x="21" y="209" type="line"/>
      <point x="100" y="209" type="line"/>
      <point x="100" y="120" type="line"/>
      <point x="120" y="105"/>
      <point x="168" y="81"/>
      <point x="197" y="75" type="qcurve"/>
      <point x="197" y="343" type="line"/>
      <point x="168" y="352"/>
      <point x="116" y="376"/>
      <point x="96" y="396" type="qcurve" smooth="yes" name="inserted"/>
      <point x="75" y="415"/>
      <point x="50" y="473"/>
      <point x="49" y="517" type="qcurve" smooth="yes"/>
      <point x="48" y="545"/>
      <point x="63" y="604"/>
      <point x="81" y="630" type="qcurve" smooth="yes" name="inserted"/>
      <point x="99" y="655"/>
      <point x="156" y="692"/>
      <point x="197" y="700" type="qcurve"/>
      <point x="197" y="764" type="line"/>
      <point x="281" y="764" type="line"/>
      <point x="281" y="702" type="line"/>
      <point x="313" y="699"/>
      <point x="386" y="675"/>
      <point x="424" y="644" type="qcurve"/>
      <point x="424" y="546" type="line"/>
      <point x="345" y="546" type="line"/>
      <point x="345" y="605" type="line"/>
      <point x="331" y="611"/>
      <point x="300" y="621"/>
      <point x="281" y="623" type="qcurve"/>
      <point x="281" y="398" type="line"/>
      <point x="313" y="387"/>
      <point x="377" y="359"/>
      <point x="402" y="336" type="qcurve" smooth="yes" name="inserted"/>
      <point x="428" y="313"/>
      <point x="459" y="241"/>
      <point x="459" y="187" type="qcurve" smooth="yes"/>
      <point x="459" y="146"/>
      <point x="431" y="79"/>
      <point x="407" y="54" type="qcurve" smooth="yes" name="inserted"/>
      <point x="383" y="29"/>
      <point x="318" y="-2"/>
      <point x="281" y="-6" type="qcurve"/>
    </contour>
    <contour>
      <point x="281" y="316" type="qcurve"/>
      <point x="281" y="75" type="line"/>
      <point x="295" y="78"/>
      <point x="320" y="89"/>
      <point x="330" y="96" type="qcurve" smooth="yes"/>
      <point x="351" y="110"/>
      <point x="376" y="156"/>
      <point x="376" y="188" type="qcurve" smooth="yes"/>
      <point x="376" y="216"/>
      <point x="361" y="257"/>
      <point x="348" y="272" type="qcurve" smooth="yes" name="inserted"/>
      <point x="336" y="287"/>
      <point x="301" y="308"/>
    </contour>
    <contour>
      <point x="132" y="514" type="qcurve" smooth="yes"/>
      <point x="132" y="492"/>
      <point x="148" y="461"/>
      <point x="161" y="449" type="qcurve" smooth="yes"/>
      <point x="169" y="443"/>
      <point x="187" y="432"/>
      <point x="197" y="427" type="qcurve"/>
      <point x="197" y="616" type="line"/>
      <point x="185" y="611"/>
      <point x="165" y="597"/>
      <point x="157" y="588" type="qcurve" smooth="yes"/>
      <point x="144" y="574"/>
      <point x="132" y="535"/>
    </contour>
  </outline>
</glyph>
<glyph name="percent" format="1">
  <advance width="726"/>
  <unicode hex="0025"/>
  <outline>
    <contour>
      <point x="478" y="111" type="qcurve" smooth="yes"/>
      <point x="478" y="91"/>
      <point x="502" y="65"/>
      <point x="522" y="65" type="qcurve" smooth="yes"/>
      <point x="542" y="65"/>
      <point x="566" y="91"/>
      <point x="566" y="111" type="qcurve" smooth="yes"/>
      <point x="566" y="131"/>
      <point x="542" y="156"/>
      <point x="522" y="156" type="qcurve" smooth="yes"/>
      <point x="502" y="156"/>
      <point x="478" y="131"/>
    </contour>
    <contour>
      <point x="611.5" y="21.0" type="qcurve" smooth="yes" name="inserted"/>
      <point x="594" y="4"/>
      <point x="548" y="-16"/>
      <point x="522" y="-16" type="qcurve" smooth="yes"/>
      <point x="496" y="-16"/>
      <point x="449" y="4"/>
      <point x="431.5" y="21.0" type="qcurve" smooth="yes" name="inserted"/>
      <point x="414" y="38"/>
      <point x="394" y="84"/>
      <point x="394" y="111" type="qcurve" smooth="yes"/>
      <point x="394" y="137"/>
      <point x="414" y="183"/>
      <point x="431.5" y="200.0" type="qcurve" smooth="yes" name="inserted"/>
      <point x="449" y="217"/>
      <point x="496" y="237"/>
      <point x="522" y="237" type="qcurve" smooth="yes"/>
      <point x="548" y="237"/>
      <point x="594" y="217"/>
      <point x="611.5" y="200.0" type="qcurve" smooth="yes" name="inserted"/>
      <point x="629" y="183"/>
      <point x="650" y="137"/>
      <point x="650" y="111" type="qcurve" smooth="yes"/>
      <point x="650" y="84"/>
      <point x="629" y="38"/>
    </contour>
    <contour>
      <point x="174" y="389" type="qcurve" smooth="yes"/>
      <point x="174" y="369"/>
      <point x="198" y="343"/>
      <point x="218" y="343" type="qcurve" smooth="yes"/>
      <point x="238" y="343"/>
      <point x="262" y="369"/>
      <point x="262" y="389" type="qcurve" smooth="yes"/>
      <point x="262" y="409"/>
      <point x="238" y="434"/>
      <point x="218" y="434" type="qcurve" smooth="yes"/>
      <point x="198" y="434"/>
      <point x="174" y="409"/>
    </contour>
    <contour>
      <point x="307.5" y="299.0" type="qcurve" smooth="yes" name="inserted"/>
      <point x="290" y="282"/>
      <point x="244" y="262"/>
      <point x="218" y="262" type="qcurve" smooth="yes"/>
      <point x="192" y="262"/>
      <point x="145" y="282"/>
      <point x="127.5" y="299.0" type="qcurve" smooth="yes" name="inserted"/>
      <point x="110" y="316"/>
      <point x="90" y="362"/>
      <point x="90" y="389" type="qcurve" smooth="yes"/>
      <point x="90" y="415"/>
      <point x="110" y="461"/>
      <point x="127.5" y="478.0" type="qcurve" smooth="yes" name="inserted"/>
      <point x="145" y="495"/>
      <point x="192" y="515"/>
      <point x="218" y="515" type="qcurve" smooth="yes"/>
      <point x="244" y="515"/>
      <point x="290" y="495"/>
      <point x="307.5" y="478.0" type="qcurve" smooth="yes" name="inserted"/>
      <point x="325" y="461"/>
      <point x="346" y="415"/>
      <point x="346" y="389" type="qcurve" smooth="yes"/>
      <point x="346" y="362"/>
      <point x="325" y="316"/>
    </contour>
    <contour>
      <point x="265" y="0" type="qcurve"/>
      <point x="174" y="0" type="line"/>
      <point x="249" y="126"/>
      <point x="397" y="374"/>
      <point x="472" y="500" type="qcurve"/>
      <point x="563" y="500" type="line"/>
      <point x="488" y="374"/>
      <point x="340" y="126"/>
    </contour>
  </outline>
</glyph>
<glyph name="ampersand" format="1">
  <advance width="700"/>
  <unicode hex="0026"/>
  <outline>
    <contour>
      <point x="576" y="24" type="line"/>
      <point x="511" y="-19" type="line"/>
      <point x="461" y="63" type="line"/>
      <point x="433" y="30"/>
      <point x="353" y="-9"/>
      <point x="305" y="-9" type="qcurve" smooth="yes"/>
      <point x="263" y="-9"/>
      <point x="190" y="22"/>
      <point x="163.0" y="49.0" type="qcurve" smooth="yes" name="inserted"/>
      <point x="136" y="76"/>
      <point x="105" y="147"/>
      <point x="105" y="188" type="qcurve" smooth="yes"/>
      <point x="105" y="224"/>
      <point x="129" y="288"/>
      <point x="151.0" y="313.5" type="qcurve" smooth="yes" name="inserted"/>
      <point x="173" y="339"/>
      <point x="231" y="374"/>
      <point x="266" y="380" type="qcurve"/>
      <point x="196" y="496" type="line" smooth="yes"/>
      <point x="182" y="520"/>
      <point x="166" y="571"/>
      <point x="166" y="596" type="qcurve" smooth="yes"/>
      <point x="166" y="621"/>
      <point x="187" y="674"/>
      <point x="207.0" y="696.5" type="qcurve" smooth="yes" name="inserted"/>
      <point x="227" y="719"/>
      <point x="285" y="748"/>
      <point x="323" y="748" type="qcurve" smooth="yes"/>
      <point x="361" y="748"/>
      <point x="429" y="721"/>
      <point x="454" y="705" type="qcurve"/>
      <point x="421" y="640" type="line"/>
      <point x="406" y="648"/>
      <point x="357" y="669"/>
      <point x="333" y="669" type="qcurve" smooth="yes"/>
      <point x="312" y="669"/>
      <point x="282" y="651"/>
      <point x="272.0" y="637.5" type="qcurve" smooth="yes" name="inserted"/>
      <point x="262" y="624"/>
      <point x="252" y="593"/>
      <point x="252" y="581" type="qcurve" smooth="yes"/>
      <point x="252" y="564"/>
      <point x="263" y="531"/>
      <point x="273" y="515" type="qcurve" smooth="yes"/>
      <point x="422" y="273" type="line"/>
      <point x="422" y="276" type="line"/>
      <point x="422" y="375" type="line"/>
      <point x="601" y="375" type="line"/>
      <point x="601" y="294" type="line"/>
      <point x="506" y="294" type="line"/>
      <point x="506" y="254" type="line"/>
      <point x="506" y="214" type="line" smooth="yes"/>
      <point x="506" y="197"/>
      <point x="504" y="160"/>
      <point x="501" y="145" type="qcurve"/>
    </contour>
    <contour>
      <point x="188" y="188" type="qcurve" smooth="yes"/>
      <point x="188" y="139"/>
      <point x="253" y="72"/>
      <point x="305" y="72" type="qcurve" smooth="yes"/>
      <point x="343" y="72"/>
      <point x="400" y="110"/>
      <point x="413" y="141" type="qcurve"/>
      <point x="314" y="303" type="line"/>
      <point x="257" y="303"/>
      <point x="188" y="242"/>
    </contour>
  </outline>
</glyph>
<glyph name="quotesingle" format="2">
  <advance width="163"/>
  <unicode hex="0027"/>
  <outline>
    <contour>
      <point x="122" y="472" type="qcurve"/>
      <point x="42" y="472" type="line"/>
      <point x="42" y="720" type="line"/>
      <point x="126" y="720" type="line"/>
      <point x="125" y="657"/>
      <point x="123" y="535"/>
    </contour>
  </outline>
</glyph>
<glyph name="parenleft" format="2">
  <advance width="424"/>
  <unicode hex="0028"/>
  <outline>
    <contour>
      <point x="353" y="-141" type="qcurve"/>
      <point x="335" y="-147"/>
      <point x="298" y="-158"/>
      <point x="280" y="-164" type="qcurve"/>
      <point x="248" y="-131"/>
      <point x="189" y="-36"/>
      <point x="166" y="22" type="qcurve" smooth="yes" name="inserted"/>
      <point x="143" y="80"/>
      <point x="115" y="216"/>
      <point x="115" y="291" type="qcurve" smooth="yes"/>
      <point x="115" y="366"/>
      <point x="143" y="502"/>
      <point x="166" y="560" type="qcurve" smooth="yes" name="inserted"/>
      <point x="189" y="618"/>
      <point x="248" y="713"/>
      <point x="280" y="746" type="qcurve"/>
      <point x="298" y="740"/>
      <point x="335" y="729"/>
      <point x="353" y="723" type="qcurve"/>
      <point x="324" y="690"/>
      <point x="269" y="600"/>
      <point x="247" y="545" type="qcurve" smooth="yes" name="inserted"/>
      <point x="225" y="490"/>
      <point x="199" y="362"/>
      <point x="199" y="291" type="qcurve" smooth="yes"/>
      <point x="199" y="220"/>
      <point x="225" y="92"/>
      <point x="247" y="37" type="qcurve" smooth="yes" name="inserted"/>
      <point x="269" y="-18"/>
      <point x="324" y="-108"/>
    </contour>
  </outline>
</glyph>
<glyph name="parenright" format="2">
  <advance width="400"/>
  <unicode hex="0029"/>
  <outline>
    <contour>
      <point x="261" y="19" type="qcurve" smooth="yes" name="inserted"/>
      <point x="238" y="-39"/>
      <point x="178" y="-134"/>
      <point x="147" y="-167" type="qcurve"/>
      <point x="129" y="-162"/>
      <point x="92" y="-151"/>
      <point x="74" y="-146" type="qcurve"/>
      <point x="103" y="-113"/>
      <point x="158" y="-23"/>
      <point x="180" y="32" type="qcurve" smooth="yes" name="inserted"/>
      <point x="202" y="87"/>
      <point x="228" y="215"/>
      <point x="228" y="286" type="qcurve" smooth="yes"/>
      <point x="228" y="357"/>
      <point x="202" y="485"/>
      <point x="180" y="540" type="qcurve" smooth="yes" name="inserted"/>
      <point x="158" y="595"/>
      <point x="103" y="685"/>
      <point x="74" y="718" type="qcurve"/>
      <point x="92" y="724"/>
      <point x="129" y="737"/>
      <point x="147" y="743" type="qcurve"/>
      <point x="178" y="710"/>
      <point x="238" y="615"/>
      <point x="261" y="557" type="qcurve" smooth="yes" name="inserted"/>
      <point x="284" y="499"/>
      <point x="312" y="363"/>
      <point x="312" y="288" type="qcurve" smooth="yes"/>
      <point x="312" y="213"/>
      <point x="284" y="77"/>
    </contour>
  </outline>
</glyph>
<glyph name="asterisk" format="1">
  <advance width="335"/>
  <unicode hex="002A"/>
  <outline>
    <contour>
      <point x="208" y="434" type="qcurve"/>
      <point x="128" y="434" type="line"/>
      <point x="128" y="504" type="line"/>
      <point x="113" y="495"/>
      <point x="82" y="478"/>
      <point x="67" y="469" type="qcurve"/>
      <point x="56" y="487"/>
      <point x="36" y="524"/>
      <point x="25" y="542" type="qcurve"/>
      <point x="41" y="550"/>
      <point x="71" y="568"/>
      <point x="87" y="576" type="qcurve"/>
      <point x="72" y="585"/>
      <point x="41" y="604"/>
      <point x="26" y="613" type="qcurve"/>
      <point x="65" y="682" type="line"/>
      <point x="81" y="673"/>
      <point x="112" y="654"/>
      <point x="128" y="645" type="qcurve"/>
      <point x="128" y="720" type="line"/>
      <point x="212" y="720" type="line"/>
      <point x="212" y="701"/>
      <point x="211" y="664"/>
      <point x="211" y="645" type="qcurve"/>
      <point x="227" y="654"/>
      <point x="259" y="672"/>
      <point x="275" y="681" type="qcurve"/>
      <point x="285" y="664"/>
      <point x="305" y="629"/>
      <point x="315" y="612" type="qcurve"/>
      <point x="298" y="603"/>
      <point x="267" y="584"/>
      <point x="250" y="575" type="qcurve"/>
      <point x="313" y="539" type="line"/>
      <point x="302" y="521"/>
      <point x="282" y="484"/>
      <point x="271" y="466" type="qcurve"/>
      <point x="255" y="475"/>
      <point x="225" y="494"/>
      <point x="209" y="503" type="qcurve"/>
      <point x="209" y="486"/>
      <point x="208" y="451"/>
    </contour>
  </outline>
</glyph>
<glyph name="plus" format="1">
  <advance width="543"/>
  <unicode hex="002B"/>
  <outline>
    <contour>
      <point x="308" y="51" type="line"/>
      <point x="224" y="51" type="line"/>
      <point x="224" y="190" type="line"/>
      <point x="86" y="190" type="line"/>
      <point x="86" y="271" type="line"/>
      <point x="224" y="271" type="line"/>
      <point x="224" y="411" type="line"/>
      <point x="308" y="411" type="line"/>
      <point x="308" y="271" type="line"/>
      <point x="446" y="271" type="line"/>
      <point x="446" y="190" type="line"/>
      <point x="308" y="190" type="line"/>
    </contour>
  </outline>
</glyph>
<glyph name="comma" format="1">
  <advance width="200"/>
  <unicode hex="002C"/>
  <outline>
    <contour>
      <point x="77" y="-120" type="qcurve"/>
      <point x="2" y="-120" type="line"/>
      <point x="22" y="-68"/>
      <point x="59" y="34"/>
      <point x="79" y="86" type="qcurve"/>
      <point x="163" y="86" type="line"/>
      <point x="141" y="34"/>
      <point x="99" y="-68"/>
    </contour>
  </outline>
</glyph>
<glyph name="hyphen" format="2">
  <advance width="300"/>
  <unicode hex="002D"/>
  <outline>
    <contour>
      <point x="237" y="147" type="line"/>
      <point x="53" y="147" type="line"/>
      <point x="53" y="228" type="line"/>
      <point x="237" y="228" type="line"/>
    </contour>
  </outline>
</glyph>
<glyph name="period" format="1">
  <advance width="163"/>
  <unicode hex="002E"/>
  <outline>
    <contour>
      <point x="136" y="52" type="qcurve" smooth="yes"/>
      <point x="136" y="29"/>
      <point x="104" y="0"/>
      <point x="85" y="0" type="qcurve" smooth="yes"/>
      <point x="65" y="0"/>
      <point x="33" y="29"/>
      <point x="33" y="52" type="qcurve" smooth="yes"/>
      <point x="33" y="75"/>
      <point x="65" y="105"/>
      <point x="85" y="105" type="qcurve" smooth="yes"/>
      <point x="104" y="105"/>
      <point x="136" y="75"/>
    </contour>
  </outline>
</glyph>
<glyph name="zero" format="2">
  <advance width="616"/>
  <unicode hex="0030"/>
  <outline>
    <contour>
      <point x="488" y="81.5" type="qcurve" smooth="yes" name="inserted"/>
      <point x="450" y="38"/>
      <point x="354" y="-8"/>
      <point x="303" y="-8" type="qcurve" smooth="yes"/>
      <point x="252" y="-8"/>
      <point x="156" y="40"/>
      <point x="118.5" y="84" type="qcurve" smooth="yes" name="inserted"/>
      <point x="81" y="128"/>
      <point x="37" y="251"/>
      <point x="37" y="327" type="qcurve" smooth="yes"/>
      <point x="37" y="403"/>
      <point x="80" y="526"/>
      <point x="116.5" y="569" type="qcurve" smooth="yes" name="inserted"/>
      <point x="153" y="612"/>
      <point x="251" y="658"/>
      <point x="307" y="658" type="qcurve" smooth="yes"/>
      <point x="363" y="658"/>
      <point x="461" y="610"/>
      <point x="497" y="566.5" type="qcurve" smooth="yes" name="inserted"/>
      <point x="533" y="523"/>
      <point x="573" y="399"/>
      <point x="573" y="323" type="qcurve" smooth="yes"/>
      <point x="573" y="247"/>
      <point x="526" y="125"/>
    </contour>
    <contour>
      <point x="174" y="147" type="qcurve" smooth="yes" name="inserted"/>
      <point x="199" y="113"/>
      <point x="265" y="73"/>
      <point x="303" y="73" type="qcurve" smooth="yes"/>
      <point x="340" y="73"/>
      <point x="408" y="111"/>
      <point x="433.5" y="145" type="qcurve" smooth="yes" name="inserted"/>
      <point x="459" y="179"/>
      <point x="489" y="271"/>
      <point x="489" y="324" type="qcurve" smooth="yes"/>
      <point x="489" y="360"/>
      <point x="471" y="448"/>
      <point x="449.5" y="486.5" type="qcurve" smooth="yes" name="inserted"/>
      <point x="428" y="525"/>
      <point x="358" y="577"/>
      <point x="307" y="577" type="qcurve" smooth="yes"/>
      <point x="256" y="577"/>
      <point x="185" y="526"/>
      <point x="163" y="488" type="qcurve" smooth="yes" name="inserted"/>
      <point x="141" y="450"/>
      <point x="121" y="362"/>
      <point x="121" y="326" type="qcurve" smooth="yes"/>
      <point x="121" y="273"/>
      <point x="149" y="181"/>
    </contour>
  </outline>
</glyph>
<glyph name="one" format="2">
  <advance width="290"/>
  <unicode hex="0031"/>
  <outline>
    <contour>
      <point x="265" y="0" type="line"/>
      <point x="23" y="0" type="line"/>
      <point x="23" y="79" type="line"/>
      <point x="102" y="79" type="line"/>
      <point x="102" y="569" type="line"/>
      <point x="34" y="569" type="line"/>
      <point x="34" y="650" type="line"/>
      <point x="186" y="650" type="line"/>
      <point x="186" y="79" type="line"/>
      <point x="265" y="79" type="line"/>
    </contour>
  </outline>
</glyph>
<glyph name="two" format="1">
  <advance width="519"/>
  <unicode hex="0032"/>
  <outline>
    <contour>
      <point x="496" y="0" type="line"/>
      <point x="53" y="0" type="line"/>
      <point x="115" y="62"/>
      <point x="231" y="179"/>
      <point x="276.0" y="233.5" type="qcurve" smooth="yes" name="inserted"/>
      <point x="321" y="288"/>
      <point x="375" y="391"/>
      <point x="375" y="438" type="qcurve" smooth="yes"/>
      <point x="375" y="475"/>
      <point x="351" y="527"/>
      <point x="332.5" y="544.0" type="qcurve" smooth="yes" name="inserted"/>
      <point x="314" y="561"/>
      <point x="271" y="577"/>
      <point x="253" y="577" type="qcurve" smooth="yes"/>
      <point x="215" y="577"/>
      <point x="167" y="551"/>
      <point x="153.0" y="532.0" type="qcurve" smooth="yes" name="inserted"/>
      <point x="139" y="513"/>
      <point x="128" y="471"/>
      <point x="128" y="455" type="qcurve" smooth="yes"/>
      <point x="128" y="422"/>
      <point x="148" y="371"/>
      <point x="167" y="351" type="qcurve"/>
      <point x="117" y="300" type="line"/>
      <point x="100" y="311"/>
      <point x="73" y="348"/>
      <point x="63.5" y="369.5" type="qcurve" smooth="yes" name="inserted"/>
      <point x="54" y="391"/>
      <point x="44" y="436"/>
      <point x="44" y="455" type="qcurve" smooth="yes"/>
      <point x="44" y="495"/>
      <point x="71" y="569"/>
      <point x="97.5" y="597.0" type="qcurve" smooth="yes" name="inserted"/>
      <point x="124" y="625"/>
      <point x="202" y="658"/>
      <point x="253" y="658" type="qcurve" smooth="yes"/>
      <point x="299" y="658"/>
      <point x="375" y="624"/>
      <point x="402.0" y="595.5" type="qcurve" smooth="yes" name="inserted"/>
      <point x="429" y="567"/>
      <point x="459" y="492"/>
      <point x="459" y="450" type="qcurve" smooth="yes"/>
      <point x="459" y="400"/>
      <point x="424" y="307"/>
      <point x="395.5" y="261.0" type="qcurve" smooth="yes" name="inserted"/>
      <point x="367" y="215"/>
      <point x="293" y="126"/>
      <point x="253" y="81" type="qcurve"/>
      <point x="417" y="81" type="line"/>
      <point x="417" y="174" type="line"/>
      <point x="496" y="174" type="line"/>
    </contour>
  </outline>
</glyph>
<glyph name="three" format="2">
  <advance width="515"/>
  <unicode hex="0033"/>
  <outline>
    <contour>
      <point x="373.0" y="55.5" type="qcurve" smooth="yes" name="inserted"/>
      <point x="343" y="26"/>
      <point x="264" y="-8"/>
      <point x="219" y="-8" type="qcurve" smooth="yes"/>
      <point x="171" y="-8"/>
      <point x="89" y="31"/>
      <point x="59" y="63" type="qcurve"/>
      <point x="120" y="120" type="line"/>
      <point x="138" y="98"/>
      <point x="189" y="73"/>
      <point x="219" y="73" type="qcurve" smooth="yes"/>
      <point x="247" y="73"/>
      <point x="296" y="95"/>
      <point x="314.5" y="113.5" type="qcurve" smooth="yes" name="inserted"/>
      <point x="333" y="132"/>
      <point x="355" y="181"/>
      <point x="355" y="209" type="qcurve" smooth="yes"/>
      <point x="355" y="237"/>
      <point x="333" y="286"/>
      <point x="314.5" y="304.0" type="qcurve" smooth="yes" name="inserted"/>
      <point x="296" y="322"/>
      <point x="247" y="343"/>
      <point x="219" y="343" type="qcurve" smooth="yes"/>
      <point x="201.0" y="343.0" name="inserted"/>
      <point x="168.5" y="334.5"/>
      <point x="154" y="326" type="qcurve"/>
      <point x="293" y="568" type="line"/>
      <point x="182" y="568" type="line"/>
      <point x="182" y="521" type="line"/>
      <point x="103" y="521" type="line"/>
      <point x="103" y="650" type="line"/>
      <point x="432" y="650" type="line"/>
      <point x="289" y="412" type="line"/>
      <point x="322" y="400"/>
      <point x="376" y="361"/>
      <point x="396.0" y="335.0" type="qcurve" smooth="yes" name="inserted"/>
      <point x="416" y="309"/>
      <point x="438" y="245"/>
      <point x="438" y="209" type="qcurve" smooth="yes"/>
      <point x="438" y="164"/>
      <point x="403" y="85"/>
    </contour>
  </outline>
</glyph>
<glyph name="four" format="2">
  <advance width="529"/>
  <unicode hex="0034"/>
  <outline>
    <contour>
      <point x="486" y="0" type="line"/>
      <point x="244" y="0" type="line"/>
      <point x="244" y="79" type="line"/>
      <point x="319" y="79" type="line"/>
      <point x="319" y="183" type="line"/>
      <point x="37" y="183" type="line"/>
      <point x="403" y="658" type="line"/>
      <point x="403" y="264" type="line"/>
      <point x="500" y="264" type="line"/>
      <point x="500" y="183" type="line"/>
      <point x="403" y="183" type="line"/>
      <point x="403" y="79" type="line"/>
      <point x="486" y="79" type="line"/>
    </contour>
    <contour>
      <point x="319" y="413" type="line"/>
      <point x="205" y="264" type="line"/>
      <point x="319" y="264" type="line"/>
    </contour>
  </outline>
</glyph>
<glyph name="five" format="2">
  <advance width="543"/>
  <unicode hex="0035"/>
  <outline>
    <contour>
      <point x="407" y="55.5" type="qcurve" smooth="yes" name="inserted"/>
      <point x="377" y="26"/>
      <point x="298" y="-8"/>
      <point x="253" y="-8" type="qcurve" smooth="yes"/>
      <point x="209" y="-8"/>
      <point x="132" y="24"/>
      <point x="103" y="53" type="qcurve"/>
      <point x="164" y="109" type="line"/>
      <point x="181" y="92"/>
      <point x="227" y="73"/>
      <point x="253" y="73" type="qcurve" smooth="yes"/>
      <point x="281" y="73"/>
      <point x="330" y="95"/>
      <point x="348.5" y="113.5" type="qcurve" smooth="yes" name="inserted"/>
      <point x="367" y="132"/>
      <point x="389" y="181"/>
      <point x="389" y="209" type="qcurve" smooth="yes"/>
      <point x="389" y="237"/>
      <point x="367" y="286"/>
      <point x="348.5" y="304" type="qcurve" smooth="yes" name="inserted"/>
      <point x="330" y="322"/>
      <point x="281" y="343"/>
      <point x="253" y="343" type="qcurve" smooth="yes"/>
      <point x="218" y="343"/>
      <point x="160" y="320"/>
      <point x="143" y="292" type="qcurve"/>
      <point x="143" y="650" type="line"/>
      <point x="430" y="650" type="line"/>
      <point x="430" y="521" type="line"/>
      <point x="351" y="521" type="line"/>
      <point x="351" y="569" type="line"/>
      <point x="227" y="569" type="line"/>
      <point x="227" y="422" type="line"/>
      <point x="233" y="423"/>
      <point x="246" y="424"/>
      <point x="253" y="424" type="qcurve" smooth="yes"/>
      <point x="298" y="424"/>
      <point x="377" y="391"/>
      <point x="407" y="361.5" type="qcurve" smooth="yes" name="inserted"/>
      <point x="437" y="332"/>
      <point x="472" y="254"/>
      <point x="472" y="209" type="qcurve" smooth="yes"/>
      <point x="472" y="164"/>
      <point x="437" y="85"/>
    </contour>
  </outline>
</glyph>
<glyph name="six" format="2">
  <advance width="520"/>
  <unicode hex="0036"/>
  <outline>
    <contour>
      <point x="172" y="113.5" type="qcurve" smooth="yes" name="inserted"/>
      <point x="190" y="95"/>
      <point x="238" y="73"/>
      <point x="265" y="73" type="qcurve" smooth="yes"/>
      <point x="293" y="73"/>
      <point x="342" y="95"/>
      <point x="360.5" y="113.5" type="qcurve" smooth="yes" name="inserted"/>
      <point x="379" y="132"/>
      <point x="401" y="181"/>
      <point x="401" y="209" type="qcurve" smooth="yes"/>
      <point x="401" y="237"/>
      <point x="379" y="286"/>
      <point x="360.5" y="304" type="qcurve" smooth="yes" name="inserted"/>
      <point x="342" y="322"/>
      <point x="293" y="343"/>
      <point x="265" y="343" type="qcurve" smooth="yes"/>
      <point x="238" y="343"/>
      <point x="190" y="322"/>
      <point x="172" y="304" type="qcurve" smooth="yes" name="inserted"/>
      <point x="154" y="286"/>
      <point x="134" y="237"/>
      <point x="134" y="209" type="qcurve" smooth="yes"/>
      <point x="134" y="181"/>
      <point x="154" y="132"/>
    </contour>
    <contour>
      <point x="419" y="56" type="qcurve" smooth="yes" name="inserted"/>
      <point x="389" y="26"/>
      <point x="310" y="-8"/>
      <point x="265" y="-8" type="qcurve" smooth="yes"/>
      <point x="222" y="-8"/>
      <point x="145" y="24"/>
      <point x="116" y="52" type="qcurve" smooth="yes" name="inserted"/>
      <point x="86" y="79"/>
      <point x="50" y="154"/>
      <point x="48" y="197" type="qcurve" smooth="yes"/>
      <point x="48" y="269"/>
      <point x="109" y="394"/>
      <point x="157" y="448" type="qcurve" smooth="yes" name="inserted"/>
      <point x="205" y="502"/>
      <point x="323" y="596"/>
      <point x="379" y="637" type="qcurve"/>
      <point x="392" y="621"/>
      <point x="418" y="589"/>
      <point x="431" y="573" type="qcurve"/>
      <point x="400" y="552"/>
      <point x="347" y="513"/>
      <point x="324" y="495" type="qcurve" smooth="yes"/>
      <point x="300" y="476"/>
      <point x="261" y="441"/>
      <point x="244" y="423" type="qcurve"/>
      <point x="249" y="423"/>
      <point x="260" y="424"/>
      <point x="265" y="424" type="qcurve" smooth="yes"/>
      <point x="310" y="424"/>
      <point x="389" y="391"/>
      <point x="419" y="362" type="qcurve" smooth="yes" name="inserted"/>
      <point x="449" y="332"/>
      <point x="484" y="254"/>
      <point x="484" y="209" type="qcurve" smooth="yes"/>
      <point x="484" y="164"/>
      <point x="449" y="85"/>
    </contour>
  </outline>
</glyph>
<glyph name="seven" format="2">
  <advance width="469"/>
  <unicode hex="0037"/>
  <outline>
    <contour>
      <point x="135" y="0" type="line"/>
      <point x="40" y="0" type="line"/>
      <point x="297" y="568" type="line"/>
      <point x="93" y="568" type="line"/>
      <point x="93" y="521" type="line"/>
      <point x="14" y="521" type="line"/>
      <point x="14" y="650" type="line"/>
      <point x="427" y="650" type="line"/>
    </contour>
  </outline>
</glyph>
<glyph name="eight" format="2">
  <advance width="510"/>
  <unicode hex="0038"/>
  <outline>
    <contour>
      <point x="180" y="498" type="qcurve" smooth="yes"/>
      <point x="180" y="480"/>
      <point x="195" y="450"/>
      <point x="207" y="440" type="qcurve" smooth="yes"/>
      <point x="217" y="433"/>
      <point x="241" y="424"/>
      <point x="255" y="424" type="qcurve" smooth="yes"/>
      <point x="270" y="424"/>
      <point x="296" y="433"/>
      <point x="305" y="442" type="qcurve" smooth="yes"/>
      <point x="317" y="452"/>
      <point x="330" y="481"/>
      <point x="330" y="498" type="qcurve" smooth="yes"/>
      <point x="330" y="514"/>
      <point x="318" y="544"/>
      <point x="307" y="555" type="qcurve" smooth="yes"/>
      <point x="297" y="565"/>
      <point x="271" y="577"/>
      <point x="255" y="577" type="qcurve" smooth="yes"/>
      <point x="240" y="577"/>
      <point x="212" y="564"/>
      <point x="202" y="554" type="qcurve" smooth="yes"/>
      <point x="192" y="543"/>
      <point x="180" y="514"/>
    </contour>
    <contour>
      <point x="160.0" y="113.5" type="qcurve" smooth="yes" name="inserted"/>
      <point x="178" y="95"/>
      <point x="226" y="73"/>
      <point x="253" y="73" type="qcurve" smooth="yes"/>
      <point x="281" y="73"/>
      <point x="330" y="95"/>
      <point x="348.5" y="113.5" type="qcurve" smooth="yes" name="inserted"/>
      <point x="367" y="132"/>
      <point x="389" y="181"/>
      <point x="389" y="209" type="qcurve" smooth="yes"/>
      <point x="389" y="236"/>
      <point x="368" y="284"/>
      <point x="350.5" y="302.0" type="qcurve" smooth="yes" name="inserted"/>
      <point x="333" y="320"/>
      <point x="285" y="342"/>
      <point x="258" y="343" type="qcurve" smooth="yes"/>
      <point x="229" y="343"/>
      <point x="179" y="322"/>
      <point x="161.0" y="304.0" type="qcurve" smooth="yes" name="inserted"/>
      <point x="143" y="286"/>
      <point x="122" y="237"/>
      <point x="122" y="209" type="qcurve" smooth="yes"/>
      <point x="122" y="181"/>
      <point x="142" y="132"/>
    </contour>
    <contour>
      <point x="407" y="56" type="qcurve" smooth="yes" name="inserted"/>
      <point x="377" y="26"/>
      <point x="298" y="-8"/>
      <point x="253" y="-8" type="qcurve" smooth="yes"/>
      <point x="208" y="-8"/>
      <point x="129" y="26"/>
      <point x="100" y="56" type="qcurve" smooth="yes" name="inserted"/>
      <point x="70" y="85"/>
      <point x="36" y="164"/>
      <point x="36" y="209" type="qcurve" smooth="yes"/>
      <point x="36" y="244"/>
      <point x="57" y="308"/>
      <point x="76" y="334" type="qcurve" smooth="yes"/>
      <point x="89" y="351"/>
      <point x="120" y="380"/>
      <point x="138" y="391" type="qcurve"/>
      <point x="118" y="411"/>
      <point x="95" y="466"/>
      <point x="95" y="498" type="qcurve" smooth="yes"/>
      <point x="95" y="531"/>
      <point x="120" y="589"/>
      <point x="142" y="611" type="qcurve" smooth="yes" name="inserted"/>
      <point x="163" y="633"/>
      <point x="220" y="658"/>
      <point x="253" y="658" type="qcurve" smooth="yes"/>
      <point x="286" y="658"/>
      <point x="344" y="633"/>
      <point x="366" y="611" type="qcurve" smooth="yes" name="inserted"/>
      <point x="388" y="589"/>
      <point x="413" y="531"/>
      <point x="413" y="498" type="qcurve" smooth="yes"/>
      <point x="413" y="466"/>
      <point x="389" y="411"/>
      <point x="369" y="391" type="qcurve"/>
      <point x="386" y="380"/>
      <point x="416" y="354"/>
      <point x="428" y="338" type="qcurve" smooth="yes"/>
      <point x="448" y="311"/>
      <point x="472" y="246"/>
      <point x="472" y="209" type="qcurve" smooth="yes"/>
      <point x="472" y="164"/>
      <point x="437" y="85"/>
    </contour>
  </outline>
</glyph>
<glyph name="nine" format="1">
  <advance width="525"/>
  <unicode hex="0039"/>
  <outline>
    <contour>
      <point x="149.5" y="324.0" type="qcurve" smooth="yes" name="inserted"/>
      <point x="168" y="306"/>
      <point x="217" y="285"/>
      <point x="245" y="285" type="qcurve" smooth="yes"/>
      <point x="272" y="285"/>
      <point x="320" y="306"/>
      <point x="338.0" y="324.0" type="qcurve" smooth="yes" name="inserted"/>
      <point x="356" y="342"/>
      <point x="376" y="391"/>
      <point x="376" y="419" type="qcurve" smooth="yes"/>
      <point x="376" y="447"/>
      <point x="356" y="496"/>
      <point x="338.0" y="514.5" type="qcurve" smooth="yes" name="inserted"/>
      <point x="320" y="533"/>
      <point x="272" y="555"/>
      <point x="245" y="555" type="qcurve" smooth="yes"/>
      <point x="217" y="555"/>
      <point x="168" y="533"/>
      <point x="149.5" y="514.5" type="qcurve" smooth="yes" name="inserted"/>
      <point x="131" y="496"/>
      <point x="109" y="447"/>
      <point x="109" y="419" type="qcurve" smooth="yes"/>
      <point x="109" y="391"/>
      <point x="131" y="342"/>
    </contour>
    <contour>
      <point x="350" y="176" type="qcurve" smooth="yes" name="inserted"/>
      <point x="301" y="122"/>
      <point x="185" y="30"/>
      <point x="131" y="-9" type="qcurve"/>
      <point x="118" y="7"/>
      <point x="92" y="39"/>
      <point x="79" y="55" type="qcurve"/>
      <point x="126" y="86"/>
      <point x="198" y="142"/>
      <point x="226" y="167" type="qcurve" smooth="yes"/>
      <point x="237" y="177"/>
      <point x="259" y="197"/>
      <point x="269" y="207" type="qcurve"/>
      <point x="262" y="205"/>
      <point x="250" y="204"/>
      <point x="245" y="204" type="qcurve" smooth="yes"/>
      <point x="200" y="204"/>
      <point x="121" y="237"/>
      <point x="91" y="267" type="qcurve" smooth="yes" name="inserted"/>
      <point x="61" y="296"/>
      <point x="26" y="374"/>
      <point x="26" y="419" type="qcurve" smooth="yes"/>
      <point x="26" y="464"/>
      <point x="61" y="543"/>
      <point x="91" y="573" type="qcurve" smooth="yes" name="inserted"/>
      <point x="121" y="602"/>
      <point x="200" y="636"/>
      <point x="245" y="636" type="qcurve" smooth="yes"/>
      <point x="290" y="636"/>
      <point x="369" y="601"/>
      <point x="399" y="572" type="qcurve" smooth="yes" name="inserted"/>
      <point x="428" y="542"/>
      <point x="462" y="463"/>
      <point x="462" y="419" type="qcurve" smooth="yes"/>
      <point x="462" y="351"/>
      <point x="399" y="229"/>
    </contour>
  </outline>
</glyph>
<glyph name="colon" format="2">
  <advance width="175"/>
  <unicode hex="003A"/>
  <outline>
    <contour>
      <point x="136" y="302" type="qcurve" smooth="yes"/>
      <point x="136" y="279"/>
      <point x="104" y="250"/>
      <point x="85" y="250" type="qcurve" smooth="yes"/>
      <point x="65" y="250"/>
      <point x="33" y="279"/>
      <point x="33" y="302" type="qcurve" smooth="yes"/>
      <point x="33" y="325"/>
      <point x="65" y="355"/>
      <point x="85" y="355" type="qcurve" smooth="yes"/>
      <point x="104" y="355"/>
      <point x="136" y="325"/>
    </contour>
    <contour>
      <point x="136" y="52" type="qcurve" smooth="yes"/>
      <point x="136" y="29"/>
      <point x="104" y="0"/>
      <point x="85" y="0" type="qcurve" smooth="yes"/>
      <point x="65" y="0"/>
      <point x="33" y="29"/>
      <point x="33" y="52" type="qcurve" smooth="yes"/>
      <point x="33" y="75"/>
      <point x="65" y="105"/>
      <point x="85" y="105" type="qcurve" smooth="yes"/>
      <point x="104" y="105"/>
      <point x="136" y="75"/>
    </contour>
  </outline>
</glyph>
<glyph name="less" format="1">
  <advance width="680"/>
  <unicode hex="003C"/>
  <outline>
    <contour>
      <point x="553" y="99" type="qcurve"/>
      <point x="553" y="-14" type="line"/>
      <point x="443" y="49"/>
      <point x="226" y="175"/>
      <point x="116" y="238" type="qcurve"/>
      <point x="226" y="301"/>
      <point x="443" y="427"/>
      <point x="553" y="490" type="qcurve"/>
      <point x="553" y="377" type="line"/>
      <point x="493" y="342"/>
      <point x="372" y="273"/>
      <point x="312" y="238" type="qcurve"/>
      <point x="372" y="203"/>
      <point x="493" y="134"/>
    </contour>
  </outline>
</glyph>
<glyph name="equal" format="2">
  <advance width="708"/>
  <unicode hex="003D"/>
  <outline>
    <contour>
      <point x="606" y="112" type="line"/>
      <point x="100" y="112" type="line"/>
      <point x="100" y="193" type="line"/>
      <point x="606" y="193" type="line"/>
    </contour>
    <contour>
      <point x="606" y="306" type="line"/>
      <point x="100" y="306" type="line"/>
      <point x="100" y="387" type="line"/>
      <point x="606" y="387" type="line"/>
    </contour>
  </outline>
</glyph>
<glyph name="greater" format="1">
  <advance width="650"/>
  <unicode hex="003E"/>
  <outline>
    <contour>
      <point x="553" y="238" type="qcurve"/>
      <point x="443" y="175"/>
      <point x="226" y="49"/>
      <point x="116" y="-14" type="qcurve"/>
      <point x="116" y="99" type="line"/>
      <point x="176" y="134"/>
      <point x="297" y="203"/>
      <point x="357" y="238" type="qcurve"/>
      <point x="297" y="273"/>
      <point x="176" y="342"/>
      <point x="116" y="377" type="qcurve"/>
      <point x="116" y="490" type="line"/>
      <point x="226" y="427"/>
      <point x="443" y="301"/>
    </contour>
  </outline>
</glyph>
<glyph name="question" format="1">
  <advance width="452"/>
  <unicode hex="003F"/>
  <outline>
    <contour>
      <point x="247" y="164" type="line"/>
      <point x="163" y="164" type="line"/>
      <point x="163" y="261" type="line" smooth="yes"/>
      <point x="163" y="293"/>
      <point x="183" y="333"/>
      <point x="200.0" y="348.5" type="qcurve" smooth="yes" name="inserted"/>
      <point x="217" y="364"/>
      <point x="259" y="391"/>
      <point x="282" y="409" type="qcurve" smooth="yes"/>
      <point x="318" y="436"/>
      <point x="352" y="500"/>
      <point x="352" y="537" type="qcurve" smooth="yes"/>
      <point x="352" y="586"/>
      <point x="291" y="651"/>
      <point x="241" y="651" type="qcurve" smooth="yes"/>
      <point x="185" y="651"/>
      <point x="129" y="601"/>
      <point x="114" y="552" type="qcurve"/>
      <point x="96" y="559"/>
      <point x="59" y="572"/>
      <point x="41" y="579" type="qcurve"/>
      <point x="48" y="601"/>
      <point x="74" y="654"/>
      <point x="97.0" y="677.0" type="qcurve" smooth="yes" name="inserted"/>
      <point x="120" y="700"/>
      <point x="190" y="732"/>
      <point x="241" y="732" type="qcurve" smooth="yes"/>
      <point x="282" y="732"/>
      <point x="354" y="701"/>
      <point x="380.5" y="674.5" type="qcurve" smooth="yes" name="inserted"/>
      <point x="407" y="648"/>
      <point x="437" y="577"/>
      <point x="437" y="537" type="qcurve" smooth="yes"/>
      <point x="437" y="481"/>
      <point x="384" y="398"/>
      <point x="339" y="364" type="qcurve" smooth="yes"/>
      <point x="325" y="354"/>
      <point x="293" y="333"/>
      <point x="279.0" y="319.5" type="qcurve" smooth="yes" name="inserted"/>
      <point x="265" y="306"/>
      <point x="247" y="269"/>
      <point x="247" y="242" type="qcurve" smooth="yes"/>
    </contour>
    <contour>
      <point x="255" y="52" type="qcurve" smooth="yes"/>
      <point x="255" y="29"/>
      <point x="223" y="0"/>
      <point x="204" y="0" type="qcurve" smooth="yes"/>
      <point x="184" y="0"/>
      <point x="152" y="29"/>
      <point x="152" y="52" type="qcurve" smooth="yes"/>
      <point x="152" y="75"/>
      <point x="184" y="105"/>
      <point x="204" y="105" type="qcurve" smooth="yes"/>
      <point x="223" y="105"/>
      <point x="255" y="75"/>
    </contour>
  </outline>
</glyph>
<glyph name="at" format="2">
  <advance width="990"/>
  <unicode hex="0040"/>
  <outline>
    <contour>
      <point x="368" y="188" type="qcurve" smooth="yes"/>
      <point x="368" y="159"/>
      <point x="391" y="111"/>
      <point x="412" y="95" type="qcurve" smooth="yes"/>
      <point x="426" y="84"/>
      <point x="464" y="72"/>
      <point x="485" y="72" type="qcurve" smooth="yes"/>
      <point x="507" y="72"/>
      <point x="544" y="85"/>
      <point x="559" y="96" type="qcurve" smooth="yes"/>
      <point x="579" y="112"/>
      <point x="602" y="160"/>
      <point x="602" y="188" type="qcurve" smooth="yes"/>
      <point x="602" y="216"/>
      <point x="580" y="263"/>
      <point x="561" y="279" type="qcurve" smooth="yes"/>
      <point x="546" y="290"/>
      <point x="507" y="303"/>
      <point x="485" y="303" type="qcurve" smooth="yes"/>
      <point x="460" y="303"/>
      <point x="418" y="287"/>
      <point x="403" y="273" type="qcurve" smooth="yes"/>
      <point x="386" y="258"/>
      <point x="368" y="214"/>
    </contour>
    <contour>
      <point x="748" y="-144" type="qcurve"/>
      <point x="697" y="-189"/>
      <point x="572" y="-232"/>
      <point x="489" y="-232" type="qcurve" smooth="yes"/>
      <point x="401" y="-232"/>
      <point x="247" y="-166"/>
      <point x="189.5" y="-109" type="qcurve" smooth="yes" name="inserted"/>
      <point x="132" y="-52"/>
      <point x="65" y="102"/>
      <point x="65" y="189" type="qcurve" smooth="yes"/>
      <point x="65" y="276"/>
      <point x="132" y="430"/>
      <point x="189.5" y="487" type="qcurve" smooth="yes" name="inserted"/>
      <point x="247" y="544"/>
      <point x="401" y="610"/>
      <point x="489" y="610" type="qcurve" smooth="yes"/>
      <point x="576" y="610"/>
      <point x="730" y="544"/>
      <point x="787" y="487" type="qcurve" smooth="yes" name="inserted"/>
      <point x="844" y="430"/>
      <point x="910" y="276"/>
      <point x="910" y="188" type="qcurve"/>
      <point x="906" y="135"/>
      <point x="865" y="64"/>
      <point x="837" y="41.5" type="qcurve" smooth="yes" name="inserted"/>
      <point x="809" y="19"/>
      <point x="745" y="0"/>
      <point x="718" y="0" type="qcurve" smooth="yes"/>
      <point x="612" y="0" type="line"/>
      <point x="612" y="20" type="line"/>
      <point x="612" y="40" type="line"/>
      <point x="611" y="37"/>
      <point x="593" y="21"/>
      <point x="576.5" y="13" type="qcurve" smooth="yes" name="inserted"/>
      <point x="560" y="5"/>
      <point x="514" y="-9"/>
      <point x="485" y="-9" type="qcurve" smooth="yes"/>
      <point x="443" y="-9"/>
      <point x="369" y="22"/>
      <point x="342" y="49" type="qcurve" smooth="yes" name="inserted"/>
      <point x="315" y="76"/>
      <point x="284" y="147"/>
      <point x="284" y="187" type="qcurve" smooth="yes"/>
      <point x="284" y="226"/>
      <point x="315" y="297"/>
      <point x="342" y="324" type="qcurve" smooth="yes" name="inserted"/>
      <point x="369" y="351"/>
      <point x="443" y="382"/>
      <point x="485" y="382" type="qcurve" smooth="yes"/>
      <point x="511" y="382"/>
      <point x="556" y="368"/>
      <point x="573" y="358.5" type="qcurve" smooth="yes" name="inserted"/>
      <point x="590" y="349"/>
      <point x="610" y="331"/>
      <point x="612" y="328" type="qcurve"/>
      <point x="612" y="339"/>
      <point x="616" y="363"/>
      <point x="616" y="375" type="qcurve"/>
      <point x="685" y="375" type="line"/>
      <point x="685" y="81" type="line"/>
      <point x="718" y="81" type="line" smooth="yes"/>
      <point x="738" y="81"/>
      <point x="776" y="92"/>
      <point x="791" y="104.5" type="qcurve" smooth="yes" name="inserted"/>
      <point x="806" y="117"/>
      <point x="824" y="158"/>
      <point x="826" y="188" type="qcurve"/>
      <point x="826" y="259"/>
      <point x="773" y="383"/>
      <point x="727" y="429.5" type="qcurve" smooth="yes" name="inserted"/>
      <point x="681" y="476"/>
      <point x="559" y="529"/>
      <point x="489" y="529" type="qcurve" smooth="yes"/>
      <point x="418" y="529"/>
      <point x="295" y="476"/>
      <point x="248.5" y="429.5" type="qcurve" smooth="yes" name="inserted"/>
      <point x="202" y="383"/>
      <point x="149" y="259"/>
      <point x="149" y="188" type="qcurve" smooth="yes"/>
      <point x="149" y="117"/>
      <point x="202" y="-6"/>
      <point x="248.5" y="-52" type="qcurve" smooth="yes" name="inserted"/>
      <point x="295" y="-98"/>
      <point x="418" y="-151"/>
      <point x="489" y="-151" type="qcurve" smooth="yes"/>
      <point x="548" y="-151"/>
      <point x="653" y="-116"/>
      <point x="698" y="-85" type="qcurve"/>
      <point x="711" y="-100"/>
      <point x="735" y="-129"/>
    </contour>
  </outline>
</glyph>
<glyph name="A" format="2">
  <advance width="788"/>
  <unicode hex="0041"/>
  <outline>
    <contour>
      <point x="257" y="0" type="line"/>
      <point x="35" y="0" type="line"/>
      <point x="35" y="79" type="line"/>
      <point x="117" y="79" type="line"/>
      <point x="186" y="244"/>
      <point x="325" y="567"/>
      <point x="394" y="732" type="qcurve"/>
      <point x="463" y="567"/>
      <point x="602" y="244"/>
      <point x="671" y="79" type="qcurve"/>
      <point x="753" y="79" type="line"/>
      <point x="753" y="0" type="line"/>
      <point x="531" y="0" type="line"/>
      <point x="531" y="79" type="line"/>
      <point x="587" y="79" type="line"/>
      <point x="566" y="129"/>
      <point x="525" y="227"/>
      <point x="504" y="277" type="qcurve"/>
      <point x="284" y="277" type="line"/>
      <point x="256" y="211"/>
      <point x="228" y="145"/>
      <point x="200" y="79" type="qcurve"/>
      <point x="257" y="79" type="line"/>
    </contour>
    <contour>
      <point x="383" y="515" type="qcurve"/>
      <point x="365" y="476"/>
      <point x="332.27246" y="390.88823"/>
      <point x="318" y="356" type="qcurve"/>
      <point x="470" y="356" type="line"/>
      <point x="403" y="515" type="line"/>
      <point x="393" y="548" type="line"/>
      <point x="388.63704" y="532.29335" name="inserted"/>
      <point x="384" y="518"/>
    </contour>
  </outline>
</glyph>
<glyph name="B" format="2">
  <advance width="542"/>
  <unicode hex="0042"/>
  <outline>
    <contour>
      <point x="281" y="0" type="qcurve" smooth="yes"/>
      <point x="35" y="0" type="line"/>
      <point x="35" y="79" type="line"/>
      <point x="80" y="79" type="line"/>
      <point x="80" y="621" type="line"/>
      <point x="35" y="621" type="line"/>
      <point x="35" y="700" type="line"/>
      <point x="263" y="700" type="line" smooth="yes"/>
      <point x="312" y="700"/>
      <point x="393" y="680"/>
      <point x="421.5" y="659.0" type="qcurve" smooth="yes" name="inserted"/>
      <point x="450" y="638"/>
      <point x="482" y="571"/>
      <point x="482" y="525" type="qcurve" smooth="yes"/>
      <point x="482" y="463"/>
      <point x="423" y="369"/>
      <point x="363" y="352" type="qcurve"/>
      <point x="391" y="346"/>
      <point x="444" y="318"/>
      <point x="463.5" y="296.0" type="qcurve" smooth="yes" name="inserted"/>
      <point x="483" y="274"/>
      <point x="507" y="216"/>
      <point x="507" y="180" type="qcurve" smooth="yes"/>
      <point x="507" y="135"/>
      <point x="469" y="68"/>
      <point x="437.5" y="45.5" type="qcurve" smooth="yes" name="inserted"/>
      <point x="406" y="23"/>
      <point x="324" y="0"/>
    </contour>
    <contour>
      <point x="163" y="313" type="line"/>
      <point x="163" y="79" type="line"/>
      <point x="274" y="79" type="line" smooth="yes"/>
      <point x="305" y="79"/>
      <point x="359" y="93"/>
      <point x="379.5" y="107.5" type="qcurve" smooth="yes" name="inserted"/>
      <point x="400" y="122"/>
      <point x="424" y="164"/>
      <point x="424" y="193" type="qcurve" smooth="yes"/>
      <point x="424" y="224"/>
      <point x="396" y="270"/>
      <point x="373.5" y="284.5" type="qcurve" smooth="yes" name="inserted"/>
      <point x="351" y="299"/>
      <point x="291" y="313"/>
      <point x="260" y="313" type="qcurve" smooth="yes"/>
    </contour>
    <contour>
      <point x="163" y="621" type="line"/>
      <point x="163" y="392" type="line"/>
      <point x="271" y="392" type="line" smooth="yes"/>
      <point x="330" y="392"/>
      <point x="399" y="458"/>
      <point x="399" y="512" type="qcurve" smooth="yes"/>
      <point x="399" y="543"/>
      <point x="378" y="586"/>
      <point x="359" y="599" type="qcurve" smooth="yes"/>
      <point x="342" y="610"/>
      <point x="296" y="621"/>
      <point x="269" y="621" type="qcurve" smooth="yes"/>
    </contour>
  </outline>
</glyph>
<glyph name="C" format="2">
  <advance width="610"/>
  <unicode hex="0043"/>
  <outline>
    <contour>
      <point x="574" y="42" type="line"/>
      <point x="534" y="19"/>
      <point x="443" y="-8"/>
      <point x="392" y="-8" type="qcurve" smooth="yes"/>
      <point x="318" y="-8"/>
      <point x="188" y="48"/>
      <point x="139.5" y="96.5" type="qcurve" smooth="yes" name="inserted"/>
      <point x="91" y="145"/>
      <point x="35" y="275"/>
      <point x="35" y="349" type="qcurve" smooth="yes"/>
      <point x="35" y="423"/>
      <point x="91" y="554"/>
      <point x="139.5" y="602.5" type="qcurve" smooth="yes" name="inserted"/>
      <point x="188" y="651"/>
      <point x="318" y="708"/>
      <point x="392" y="708" type="qcurve" smooth="yes"/>
      <point x="443" y="708"/>
      <point x="534" y="682"/>
      <point x="575" y="658" type="qcurve"/>
      <point x="575" y="546" type="line"/>
      <point x="496" y="546" type="line"/>
      <point x="496" y="607" type="line"/>
      <point x="471.0" y="618.0" name="inserted"/>
      <point x="419.0" y="629.0"/>
      <point x="392" y="629" type="qcurve" smooth="yes"/>
      <point x="335" y="629"/>
      <point x="236" y="585"/>
      <point x="198.5" y="546.5" type="qcurve" smooth="yes" name="inserted"/>
      <point x="161" y="508"/>
      <point x="118" y="406"/>
      <point x="118" y="349" type="qcurve" smooth="yes"/>
      <point x="118" y="292"/>
      <point x="161" y="190"/>
      <point x="198.5" y="152.5" type="qcurve" smooth="yes" name="inserted"/>
      <point x="236" y="115"/>
      <point x="335" y="71"/>
      <point x="392" y="71" type="qcurve" smooth="yes"/>
      <point x="429.0" y="71.0" name="inserted"/>
      <point x="497.5" y="89.5"/>
      <point x="529" y="108" type="qcurve"/>
    </contour>
  </outline>
</glyph>
<glyph name="D" format="2">
  <advance width="632"/>
  <unicode hex="0044"/>
  <outline>
    <contour>
      <point x="211" y="0" type="qcurve" smooth="yes"/>
      <point x="35" y="0" type="line"/>
      <point x="35" y="80" type="line"/>
      <point x="82" y="80" type="line"/>
      <point x="82" y="621" type="line"/>
      <point x="35" y="621" type="line"/>
      <point x="35" y="700" type="line"/>
      <point x="245" y="700" type="line" smooth="yes"/>
      <point x="317" y="700"/>
      <point x="445" y="651"/>
      <point x="493" y="605" type="qcurve" smooth="yes" name="inserted"/>
      <point x="541" y="559"/>
      <point x="597" y="430"/>
      <point x="597" y="349" type="qcurve" smooth="yes"/>
      <point x="597" y="290"/>
      <point x="556" y="166"/>
      <point x="510" y="115.5" type="qcurve" smooth="yes" name="inserted"/>
      <point x="464" y="65"/>
      <point x="317" y="0"/>
    </contour>
    <contour>
      <point x="165" y="621" type="line"/>
      <point x="165" y="80" type="line"/>
      <point x="235" y="80" type="line" smooth="yes"/>
      <point x="294" y="80"/>
      <point x="396" y="118"/>
      <point x="433.5" y="153.5" type="qcurve" smooth="yes" name="inserted"/>
      <point x="471" y="189"/>
      <point x="514" y="288"/>
      <point x="514" y="350" type="qcurve" smooth="yes"/>
      <point x="514" y="412"/>
      <point x="471" y="512"/>
      <point x="433.5" y="547.5" type="qcurve" smooth="yes" name="inserted"/>
      <point x="396" y="583"/>
      <point x="294" y="621"/>
      <point x="235" y="621" type="qcurve" smooth="yes"/>
    </contour>
  </outline>
</glyph>
<glyph name="F" format="1">
  <advance width="557"/>
  <unicode hex="0046"/>
  <outline>
    <contour>
      <point x="277" y="0" type="line"/>
      <point x="35" y="0" type="line"/>
      <point x="35" y="79" type="line"/>
      <point x="91" y="79" type="line"/>
      <point x="91" y="621" type="line"/>
      <point x="35" y="621" type="line"/>
      <point x="35" y="700" type="line"/>
      <point x="522" y="700" type="line"/>
      <point x="522" y="546" type="line"/>
      <point x="443" y="546" type="line"/>
      <point x="443" y="621" type="line"/>
      <point x="174" y="621" type="line"/>
      <point x="174" y="392" type="line"/>
      <point x="483" y="392" type="line"/>
      <point x="483" y="313" type="line"/>
      <point x="174" y="313" type="line"/>
      <point x="174" y="79" type="line"/>
      <point x="277" y="79" type="line"/>
    </contour>
  </outline>
</glyph>
<glyph name="H" format="1">
  <advance width="772"/>
  <unicode hex="0048"/>
  <outline>
    <contour>
      <point x="277" y="0" type="line"/>
      <point x="35" y="0" type="line"/>
      <point x="35" y="79" type="line"/>
      <point x="114" y="79" type="line"/>
      <point x="114" y="621" type="line"/>
      <point x="35" y="621" type="line"/>
      <point x="35" y="700" type="line"/>
      <point x="277" y="700" type="line"/>
      <point x="277" y="621" type="line"/>
      <point x="197" y="621" type="line"/>
      <point x="197" y="392" type="line"/>
      <point x="575" y="392" type="line"/>
      <point x="575" y="621" type="line"/>
      <point x="495" y="621" type="line"/>
      <point x="495" y="700" type="line"/>
      <point x="737" y="700" type="line"/>
      <point x="737" y="621" type="line"/>
      <point x="658" y="621" type="line"/>
      <point x="658" y="79" type="line"/>
      <point x="737" y="79" type="line"/>
      <point x="737" y="0" type="line"/>
      <point x="495" y="0" type="line"/>
      <point x="495" y="79" type="line"/>
      <point x="575" y="79" type="line"/>
      <point x="575" y="313" type="line"/>
      <point x="197" y="313" type="line"/>
      <point x="197" y="79" type="line"/>
      <point x="277" y="79" type="line"/>
    </contour>
  </outline>
</glyph>
<glyph name="I" format="2">
  <advance width="312"/>
  <unicode hex="0049"/>
  <outline>
    <contour>
      <point x="277" y="0" type="line"/>
      <point x="35" y="0" type="line"/>
      <point x="35" y="79" type="line"/>
      <point x="114" y="79" type="line"/>
      <point x="114" y="621" type="line"/>
      <point x="35" y="621" type="line"/>
      <point x="35" y="700" type="line"/>
      <point x="277" y="700" type="line"/>
      <point x="277" y="621" type="line"/>
      <point x="197" y="621" type="line"/>
      <point x="197" y="79" type="line"/>
      <point x="277" y="79" type="line"/>
    </contour>
  </outline>
</glyph>
<glyph name="J" format="1">
  <advance width="311"/>
  <unicode hex="004A"/>
  <outline>
    <contour>
      <point x="207.0" y="-81.5" type="qcurve" smooth="yes" name="inserted"/>
      <point x="175" y="-111"/>
      <point x="86" y="-143"/>
      <point x="35" y="-144" type="qcurve"/>
      <point x="35" y="-65" type="line"/>
      <point x="104" y="-61"/>
      <point x="193" y="19"/>
      <point x="193" y="93" type="qcurve" smooth="yes"/>
      <point x="193" y="621" type="line"/>
      <point x="35" y="621" type="line"/>
      <point x="35" y="700" type="line"/>
      <point x="276" y="700" type="line"/>
      <point x="276" y="90" type="line" smooth="yes"/>
      <point x="276" y="34"/>
      <point x="239" y="-52"/>
    </contour>
  </outline>
</glyph>
<glyph name="M" format="1">
  <advance width="976"/>
  <unicode hex="004D"/>
  <outline>
    <contour>
      <point x="277" y="0" type="line"/>
      <point x="35" y="0" type="line"/>
      <point x="35" y="79" type="line"/>
      <point x="122" y="79" type="line"/>
      <point x="122" y="621" type="line"/>
      <point x="35" y="621" type="line"/>
      <point x="35" y="700" type="line"/>
      <point x="147" y="700" type="line"/>
      <point x="233" y="589"/>
      <point x="402" y="368"/>
      <point x="488" y="257" type="qcurve"/>
      <point x="574" y="368"/>
      <point x="743" y="589"/>
      <point x="829" y="700" type="qcurve"/>
      <point x="941" y="700" type="line"/>
      <point x="941" y="621" type="line"/>
      <point x="854" y="621" type="line"/>
      <point x="854" y="79" type="line"/>
      <point x="941" y="79" type="line"/>
      <point x="941" y="0" type="line"/>
      <point x="699" y="0" type="line"/>
      <point x="699" y="79" type="line"/>
      <point x="771" y="79" type="line"/>
      <point x="771" y="470" type="line"/>
      <point x="772" y="478"/>
      <point x="773" y="494"/>
      <point x="774" y="502" type="qcurve"/>
      <point x="766" y="491"/>
      <point x="750" y="467"/>
      <point x="742" y="456" type="qcurve" smooth="yes"/>
      <point x="682" y="371"/>
      <point x="551" y="208"/>
      <point x="488" y="125" type="qcurve"/>
      <point x="220" y="475" type="line"/>
      <point x="202" y="502" type="line"/>
      <point x="203" y="494"/>
      <point x="204" y="478"/>
      <point x="205" y="470" type="qcurve"/>
      <point x="205" y="79" type="line"/>
      <point x="277" y="79" type="line"/>
    </contour>
  </outline>
</glyph>
<glyph name="N" format="2">
  <advance width="855"/>
  <unicode hex="004E"/>
  <outline>
    <contour>
      <point x="733" y="621" type="line"/>
      <point x="733" y="-32" type="line"/>
      <point x="221" y="512" type="line"/>
      <point x="202" y="538" type="line"/>
      <point x="205" y="506" type="line"/>
      <point x="205" y="79" type="line"/>
      <point x="277" y="79" type="line"/>
      <point x="277" y="0" type="line"/>
      <point x="35" y="0" type="line"/>
      <point x="35" y="79" type="line"/>
      <point x="122" y="79" type="line"/>
      <point x="122" y="621" type="line"/>
      <point x="35" y="621" type="line"/>
      <point x="35" y="700" type="line"/>
      <point x="151" y="700" type="line"/>
      <point x="634" y="177" type="line"/>
      <point x="653" y="151" type="line"/>
      <point x="650" y="183" type="line"/>
      <point x="650" y="621" type="line"/>
      <point x="578" y="621" type="line"/>
      <point x="578" y="700" type="line"/>
      <point x="820" y="700" type="line"/>
      <point x="820" y="621" type="line"/>
    </contour>
  </outline>
</glyph>
<glyph name="O" format="2">
  <advance width="786"/>
  <unicode hex="004F"/>
  <outline>
    <contour>
      <point x="645" y="96.5" type="qcurve" smooth="yes" name="inserted"/>
      <point x="596" y="48"/>
      <point x="465" y="-8"/>
      <point x="392" y="-8" type="qcurve" smooth="yes"/>
      <point x="318" y="-8"/>
      <point x="188" y="48"/>
      <point x="139.5" y="96.5" type="qcurve" smooth="yes" name="inserted"/>
      <point x="91" y="145"/>
      <point x="35" y="275"/>
      <point x="35" y="349" type="qcurve" smooth="yes"/>
      <point x="35" y="422"/>
      <point x="91" y="553"/>
      <point x="139.5" y="602" type="qcurve" smooth="yes" name="inserted"/>
      <point x="188" y="651"/>
      <point x="318" y="708"/>
      <point x="392" y="708" type="qcurve" smooth="yes"/>
      <point x="465" y="708"/>
      <point x="596" y="651"/>
      <point x="645" y="602" type="qcurve" smooth="yes" name="inserted"/>
      <point x="694" y="553"/>
      <point x="751" y="422"/>
      <point x="751" y="349" type="qcurve" smooth="yes"/>
      <point x="751" y="275"/>
      <point x="694" y="145"/>
    </contour>
    <contour>
      <point x="198.5" y="152.5" type="qcurve" smooth="yes" name="inserted"/>
      <point x="236" y="115"/>
      <point x="336" y="71"/>
      <point x="393" y="71" type="qcurve" smooth="yes"/>
      <point x="450" y="71"/>
      <point x="550" y="115"/>
      <point x="587.5" y="152.5" type="qcurve" smooth="yes" name="inserted"/>
      <point x="625" y="190"/>
      <point x="668" y="291"/>
      <point x="668" y="349" type="qcurve" smooth="yes"/>
      <point x="668" y="407"/>
      <point x="625" y="508"/>
      <point x="587.5" y="546" type="qcurve" smooth="yes" name="inserted"/>
      <point x="550" y="584"/>
      <point x="450" y="628"/>
      <point x="393" y="628" type="qcurve" smooth="yes"/>
      <point x="336" y="628"/>
      <point x="236" y="584"/>
      <point x="198.5" y="546" type="qcurve" smooth="yes" name="inserted"/>
      <point x="161" y="508"/>
      <point x="118" y="407"/>
      <point x="118" y="349" type="qcurve" smooth="yes"/>
      <point x="118" y="291"/>
      <point x="161" y="190"/>
    </contour>
  </outline>
</glyph>
<glyph name="P" format="2">
  <advance width="517"/>
  <unicode hex="0050"/>
  <outline>
    <contour>
      <point x="277" y="0" type="line"/>
      <point x="35" y="0" type="line"/>
      <point x="35" y="79" type="line"/>
      <point x="80" y="79" type="line"/>
      <point x="80" y="621" type="line"/>
      <point x="35" y="621" type="line"/>
      <point x="35" y="700" type="line"/>
      <point x="245" y="700" type="line" smooth="yes"/>
      <point x="279" y="700"/>
      <point x="362" y="679"/>
      <point x="398" y="656" type="qcurve" smooth="yes" name="inserted"/>
      <point x="434" y="633"/>
      <point x="482" y="561"/>
      <point x="482" y="510" type="qcurve" smooth="yes"/>
      <point x="482" y="419"/>
      <point x="374" y="312"/>
      <point x="272" y="312" type="qcurve" smooth="yes"/>
      <point x="163" y="312" type="line"/>
      <point x="163" y="79" type="line"/>
      <point x="277" y="79" type="line"/>
    </contour>
    <contour>
      <point x="163" y="621" type="line"/>
      <point x="163" y="392" type="line"/>
      <point x="250" y="392" type="line" smooth="yes"/>
      <point x="294" y="392"/>
      <point x="351" y="415"/>
      <point x="368" y="432" type="qcurve" smooth="yes" name="inserted"/>
      <point x="385" y="449"/>
      <point x="399" y="491"/>
      <point x="399" y="510" type="qcurve" smooth="yes"/>
      <point x="399" y="532"/>
      <point x="376" y="572"/>
      <point x="356.5" y="587.5" type="qcurve" smooth="yes" name="inserted"/>
      <point x="337" y="603"/>
      <point x="282" y="621"/>
      <point x="251" y="621" type="qcurve" smooth="yes"/>
    </contour>
  </outline>
</glyph>
<glyph name="S" format="2">
  <advance width="478"/>
  <unicode hex="0053"/>
  <outline>
    <contour>
      <point x="398" y="44" type="qcurve" smooth="yes" name="inserted"/>
      <point x="369" y="19"/>
      <point x="293" y="-8"/>
      <point x="251" y="-8" type="qcurve" smooth="yes"/>
      <point x="213" y="-8"/>
      <point x="141" y="9"/>
      <point x="111" y="23" type="qcurve" smooth="yes" name="inserted"/>
      <point x="81" y="37"/>
      <point x="34" y="73"/>
      <point x="21" y="93" type="qcurve"/>
      <point x="21" y="209" type="line"/>
      <point x="100" y="209" type="line"/>
      <point x="100" y="120" type="line"/>
      <point x="126" y="100"/>
      <point x="198" y="71"/>
      <point x="243" y="71" type="qcurve" smooth="yes"/>
      <point x="269" y="71"/>
      <point x="317" y="86"/>
      <point x="336" y="100" type="qcurve" smooth="yes" name="inserted"/>
      <point x="354" y="115"/>
      <point x="376" y="159"/>
      <point x="376" y="188" type="qcurve" smooth="yes"/>
      <point x="376" y="206"/>
      <point x="371" y="242"/>
      <point x="363" y="255" type="qcurve" smooth="yes"/>
      <point x="350" y="276"/>
      <point x="315" y="301"/>
      <point x="292" y="312" type="qcurve" smooth="yes" name="inserted"/>
      <point x="256" y="327"/>
      <point x="172" y="349"/>
      <point x="136" y="368" type="qcurve" smooth="yes" name="inserted"/>
      <point x="99" y="387"/>
      <point x="50" y="455"/>
      <point x="49" y="517" type="qcurve" smooth="yes"/>
      <point x="48" y="550"/>
      <point x="68" y="616"/>
      <point x="91" y="643" type="qcurve" smooth="yes" name="inserted"/>
      <point x="114" y="670"/>
      <point x="190" y="704"/>
      <point x="245" y="704" type="qcurve" smooth="yes"/>
      <point x="263" y="704"/>
      <point x="305" y="700"/>
      <point x="328" y="694" type="qcurve" smooth="yes" name="inserted"/>
      <point x="351" y="688"/>
      <point x="400" y="664"/>
      <point x="424" y="644" type="qcurve"/>
      <point x="424" y="546" type="line"/>
      <point x="345" y="546" type="line"/>
      <point x="345" y="605" type="line"/>
      <point x="326" y="613"/>
      <point x="276" y="625"/>
      <point x="246" y="625" type="qcurve" smooth="yes"/>
      <point x="216" y="625"/>
      <point x="172" y="606"/>
      <point x="158" y="590" type="qcurve" smooth="yes"/>
      <point x="145" y="575"/>
      <point x="132" y="536"/>
      <point x="132" y="514" type="qcurve" smooth="yes"/>
      <point x="132" y="484"/>
      <point x="160" y="447"/>
      <point x="183" y="434" type="qcurve" smooth="yes" name="inserted"/>
      <point x="219" y="415"/>
      <point x="319" y="386"/>
      <point x="365" y="364" type="qcurve" smooth="yes"/>
      <point x="407" y="344"/>
      <point x="459" y="260"/>
      <point x="459" y="187" type="qcurve" smooth="yes"/>
      <point x="459" y="142"/>
      <point x="426" y="70"/>
    </contour>
  </outline>
</glyph>
<glyph name="T" format="1">
  <advance width="623"/>
  <unicode hex="0054"/>
  <outline>
    <contour>
      <point x="427" y="0" type="line"/>
      <point x="185" y="0" type="line"/>
      <point x="185" y="79" type="line"/>
      <point x="271" y="79" type="line"/>
      <point x="271" y="621" type="line"/>
      <point x="114" y="621" type="line"/>
      <point x="114" y="546" type="line"/>
      <point x="35" y="546" type="line"/>
      <point x="35" y="700" type="line"/>
      <point x="588" y="700" type="line"/>
      <point x="588" y="546" type="line"/>
      <point x="509" y="546" type="line"/>
      <point x="509" y="621" type="line"/>
      <point x="354" y="621" type="line"/>
      <point x="354" y="79" type="line"/>
      <point x="427" y="79" type="line"/>
    </contour>
  </outline>
</glyph>
<glyph name="U" format="2">
  <advance width="729"/>
  <unicode hex="0055"/>
  <outline>
    <contour>
      <point x="544" y="51.5" type="qcurve" smooth="yes" name="inserted"/>
      <point x="510" y="22"/>
      <point x="418" y="-8"/>
      <point x="364" y="-8" type="qcurve" smooth="yes"/>
      <point x="310" y="-8"/>
      <point x="218" y="22"/>
      <point x="184" y="51.5" type="qcurve" smooth="yes" name="inserted"/>
      <point x="150" y="81"/>
      <point x="112" y="169"/>
      <point x="112" y="226" type="qcurve" smooth="yes"/>
      <point x="112" y="621" type="line"/>
      <point x="35" y="621" type="line"/>
      <point x="35" y="700" type="line"/>
      <point x="277" y="700" type="line"/>
      <point x="277" y="621" type="line"/>
      <point x="195" y="621" type="line"/>
      <point x="195" y="229" type="line" smooth="yes"/>
      <point x="195" y="191"/>
      <point x="220" y="132"/>
      <point x="242.5" y="112" type="qcurve" smooth="yes" name="inserted"/>
      <point x="265" y="92"/>
      <point x="327" y="71"/>
      <point x="364" y="71" type="qcurve" smooth="yes"/>
      <point x="401" y="71"/>
      <point x="463" y="92"/>
      <point x="485.5" y="112" type="qcurve" smooth="yes" name="inserted"/>
      <point x="508" y="132"/>
      <point x="534" y="191"/>
      <point x="534" y="229" type="qcurve" smooth="yes"/>
      <point x="534" y="621" type="line"/>
      <point x="452" y="621" type="line"/>
      <point x="452" y="700" type="line"/>
      <point x="694" y="700" type="line"/>
      <point x="694" y="621" type="line"/>
      <point x="617" y="621" type="line"/>
      <point x="617" y="226" type="line" smooth="yes"/>
      <point x="617" y="169"/>
      <point x="578" y="81"/>
    </contour>
  </outline>
</glyph>
<glyph name="V" format="1">
  <advance width="810"/>
  <unicode hex="0056"/>
  <outline>
    <contour>
      <point x="676" y="621" type="line"/>
      <point x="607" y="456"/>
      <point x="468" y="133"/>
      <point x="399" y="-32" type="qcurve"/>
      <point x="330" y="133"/>
      <point x="191" y="456"/>
      <point x="122" y="621" type="qcurve"/>
      <point x="35" y="621" type="line"/>
      <point x="35" y="700" type="line"/>
      <point x="277" y="700" type="line"/>
      <point x="277" y="621" type="line"/>
      <point x="205" y="621" type="line"/>
      <point x="252" y="512"/>
      <point x="343" y="294"/>
      <point x="390" y="185" type="qcurve"/>
      <point x="399" y="152" type="line"/>
      <point x="408" y="185" type="line"/>
      <point x="455" y="294"/>
      <point x="546" y="511"/>
      <point x="592" y="621" type="qcurve"/>
      <point x="533" y="621" type="line"/>
      <point x="533" y="700" type="line"/>
      <point x="775" y="700" type="line"/>
      <point x="775" y="621" type="line"/>
    </contour>
  </outline>
</glyph>
<glyph name="W" format="1">
  <advance width="1178"/>
  <unicode hex="0057"/>
  <outline>
    <contour>
      <point x="501.0" y="192.0" type="qcurve" smooth="yes" name="inserted"/>
      <point x="475" y="135"/>
      <point x="422" y="22"/>
      <point x="399" y="-32" type="qcurve"/>
      <point x="330" y="133"/>
      <point x="191" y="456"/>
      <point x="122" y="621" type="qcurve"/>
      <point x="35" y="621" type="line"/>
      <point x="35" y="700" type="line"/>
      <point x="277" y="700" type="line"/>
      <point x="277" y="621" type="line"/>
      <point x="205" y="621" type="line"/>
      <point x="252" y="512"/>
      <point x="343" y="294"/>
      <point x="390" y="185" type="qcurve"/>
      <point x="399" y="152" type="line"/>
      <point x="411" y="197"/>
      <point x="446" y="286"/>
      <point x="465.5" y="330.5" type="qcurve" smooth="yes" name="inserted"/>
      <point x="485" y="375"/>
      <point x="526" y="463"/>
      <point x="544" y="506" type="qcurve"/>
      <point x="532" y="535"/>
      <point x="507" y="592"/>
      <point x="495" y="621" type="qcurve"/>
      <point x="403" y="621" type="line"/>
      <point x="403" y="700" type="line"/>
      <point x="645" y="700" type="line"/>
      <point x="645" y="621" type="line"/>
      <point x="578" y="621" type="line"/>
      <point x="625" y="512"/>
      <point x="716" y="294"/>
      <point x="763" y="185" type="qcurve"/>
      <point x="772" y="152" type="line"/>
      <point x="781" y="185" type="line"/>
      <point x="828" y="294"/>
      <point x="919" y="511"/>
      <point x="965" y="621" type="qcurve"/>
      <point x="901" y="621" type="line"/>
      <point x="901" y="700" type="line"/>
      <point x="1143" y="700" type="line"/>
      <point x="1143" y="621" type="line"/>
      <point x="1049" y="621" type="line"/>
      <point x="980" y="456"/>
      <point x="841" y="133"/>
      <point x="772" y="-32" type="qcurve"/>
      <point x="595" y="385" type="line"/>
      <point x="585" y="420" type="line"/>
      <point x="571" y="364"/>
      <point x="527" y="249"/>
    </contour>
  </outline>
</glyph>
<glyph name="X" format="1">
  <advance width="694"/>
  <unicode hex="0058"/>
  <outline>
    <contour>
      <point x="277" y="0" type="line"/>
      <point x="35" y="0" type="line"/>
      <point x="35" y="79" type="line"/>
      <point x="110" y="79" type="line"/>
      <point x="292" y="357" type="line"/>
      <point x="120" y="621" type="line"/>
      <point x="35" y="621" type="line"/>
      <point x="35" y="700" type="line"/>
      <point x="277" y="700" type="line"/>
      <point x="277" y="621" type="line"/>
      <point x="222" y="621" type="line"/>
      <point x="250" y="577"/>
      <point x="306" y="492"/>
      <point x="334" y="449" type="qcurve"/>
      <point x="347" y="422" type="line"/>
      <point x="360" y="449" type="line"/>
      <point x="472" y="621" type="line"/>
      <point x="417" y="621" type="line"/>
      <point x="417" y="700" type="line"/>
      <point x="659" y="700" type="line"/>
      <point x="659" y="621" type="line"/>
      <point x="573" y="621" type="line"/>
      <point x="529" y="553"/>
      <point x="443" y="418"/>
      <point x="398" y="351" type="qcurve"/>
      <point x="443" y="282"/>
      <point x="531" y="148"/>
      <point x="576" y="79" type="qcurve"/>
      <point x="659" y="79" type="line"/>
      <point x="659" y="0" type="line"/>
      <point x="417" y="0" type="line"/>
      <point x="417" y="79" type="line"/>
      <point x="472" y="79" type="line"/>
      <point x="356" y="258" type="line"/>
      <point x="352" y="265"/>
      <point x="346" y="279"/>
      <point x="342" y="286" type="qcurve"/>
      <point x="329" y="258" type="line"/>
      <point x="300" y="213"/>
      <point x="242" y="124"/>
      <point x="213" y="79" type="qcurve"/>
      <point x="277" y="79" type="line"/>
    </contour>
  </outline>
</glyph>
<glyph name="Y" format="2">
  <advance width="789"/>
  <unicode hex="0059"/>
  <outline>
    <contour>
      <point x="519" y="0" type="line"/>
      <point x="277" y="0" type="line"/>
      <point x="277" y="79" type="line"/>
      <point x="344" y="79" type="line"/>
      <point x="344" y="270" type="line"/>
      <point x="291" y="358"/>
      <point x="188" y="533"/>
      <point x="136" y="621" type="qcurve"/>
      <point x="35" y="621" type="line"/>
      <point x="35" y="700" type="line"/>
      <point x="277" y="700" type="line"/>
      <point x="277" y="621" type="line"/>
      <point x="237" y="621" type="line"/>
      <point x="274" y="560"/>
      <point x="346" y="438"/>
      <point x="383" y="377" type="qcurve"/>
      <point x="394" y="346" type="line"/>
      <point x="395" y="346" type="line"/>
      <point x="407" y="377" type="line"/>
      <point x="551" y="621" type="line"/>
      <point x="512" y="621" type="line"/>
      <point x="512" y="700" type="line"/>
      <point x="754" y="700" type="line"/>
      <point x="754" y="621" type="line"/>
      <point x="653" y="621" type="line"/>
      <point x="601" y="533"/>
      <point x="498" y="357"/>
      <point x="446" y="269" type="qcurve"/>
      <point x="446" y="79" type="line"/>
      <point x="519" y="79" type="line"/>
    </contour>
  </outline>
</glyph>
<glyph name="Z" format="2">
  <advance width="629"/>
  <unicode hex="005A"/>
  <outline>
    <contour>
      <point x="594" y="0" type="line"/>
      <point x="35" y="0" type="line"/>
      <point x="35" y="80" type="line"/>
      <point x="463" y="621" type="line"/>
      <point x="51" y="621" type="line"/>
      <point x="51" y="735" type="line"/>
      <point x="134" y="735" type="line"/>
      <point x="134" y="700" type="line"/>
      <point x="565" y="700" type="line"/>
      <point x="565" y="621" type="line"/>
      <point x="137" y="80" type="line"/>
      <point x="515" y="80" type="line"/>
      <point x="515" y="242" type="line"/>
      <point x="594" y="242" type="line"/>
    </contour>
  </outline>
</glyph>
<glyph name="bracketleft" format="2">
  <advance width="338"/>
  <unicode hex="005B"/>
  <outline>
    <contour>
      <point x="275" y="-149" type="line"/>
      <point x="83" y="-149" type="line"/>
      <point x="83" y="746" type="line"/>
      <point x="275" y="746" type="line"/>
      <point x="275" y="665" type="line"/>
      <point x="166" y="665" type="line"/>
      <point x="166" y="-68" type="line"/>
      <point x="275" y="-68" type="line"/>
    </contour>
  </outline>
</glyph>
<glyph name="backslash" format="1">
  <advance width="385"/>
  <unicode hex="005C"/>
  <outline>
    <contour>
      <point x="372" y="-19" type="qcurve"/>
      <point x="278" y="-19" type="line"/>
      <point x="208" y="171"/>
      <point x="70" y="546"/>
      <point x="0" y="736" type="qcurve"/>
      <point x="94" y="736" type="line"/>
      <point x="164" y="546"/>
      <point x="302" y="171"/>
    </contour>
  </outline>
</glyph>
<glyph name="asciicircum" format="1">
  <advance width="470"/>
  <unicode hex="005E"/>
  <outline>
    <contour>
      <point x="171" y="479" type="qcurve"/>
      <point x="112" y="479" type="line"/>
      <point x="142" y="524"/>
      <point x="202" y="615"/>
      <point x="232" y="660" type="qcurve"/>
      <point x="262" y="615"/>
      <point x="322" y="524"/>
      <point x="352" y="479" type="qcurve"/>
      <point x="293" y="479" type="line"/>
      <point x="278" y="497"/>
      <point x="247" y="533"/>
      <point x="232" y="551" type="qcurve"/>
      <point x="217" y="533"/>
      <point x="186" y="497"/>
    </contour>
  </outline>
</glyph>
<glyph name="grave" format="2">
  <advance width="200"/>
  <unicode hex="0060"/>
  <outline>
    <contour>
      <point x="123" y="479" type="qcurve"/>
      <point x="64" y="479" type="line"/>
      <point x="35" y="512"/>
      <point x="-22" y="579"/>
      <point x="-51" y="612" type="qcurve"/>
      <point x="33" y="612" type="line"/>
      <point x="56" y="579"/>
      <point x="100" y="512"/>
    </contour>
  </outline>
</glyph>
<glyph name="a" format="1">
  <advance width="547"/>
  <unicode hex="0061"/>
  <outline>
    <contour>
      <point x="327.5" y="12.5" type="qcurve" smooth="yes" name="inserted"/>
      <point x="311" y="4"/>
      <point x="265" y="-9"/>
      <point x="236" y="-9" type="qcurve" smooth="yes"/>
      <point x="194" y="-9"/>
      <point x="120" y="22"/>
      <point x="93.0" y="49.0" type="qcurve" smooth="yes" name="inserted"/>
      <point x="66" y="76"/>
      <point x="35" y="147"/>
      <point x="35" y="187" type="qcurve" smooth="yes"/>
      <point x="35" y="226"/>
      <point x="66" y="298"/>
      <point x="93.0" y="325.0" type="qcurve" smooth="yes" name="inserted"/>
      <point x="120" y="352"/>
      <point x="194" y="384"/>
      <point x="236" y="384" type="qcurve" smooth="yes"/>
      <point x="263" y="384"/>
      <point x="309" y="368"/>
      <point x="326.0" y="358.5" type="qcurve" smooth="yes" name="inserted"/>
      <point x="343" y="349"/>
      <point x="363" y="331"/>
      <point x="363" y="328" type="qcurve"/>
      <point x="363" y="339"/>
      <point x="367" y="363"/>
      <point x="367" y="375" type="qcurve"/>
      <point x="436" y="375" type="line"/>
      <point x="436" y="79" type="line"/>
      <point x="512" y="79" type="line"/>
      <point x="512" y="0" type="line"/>
      <point x="363" y="0" type="line"/>
      <point x="363" y="20" type="line"/>
      <point x="363" y="40" type="line"/>
      <point x="362" y="37"/>
      <point x="344" y="21"/>
    </contour>
    <contour>
      <point x="119" y="188" type="qcurve" smooth="yes"/>
      <point x="119" y="139"/>
      <point x="184" y="72"/>
      <point x="236" y="72" type="qcurve" smooth="yes"/>
      <point x="288" y="72"/>
      <point x="353" y="139"/>
      <point x="353" y="188" type="qcurve" smooth="yes"/>
      <point x="353" y="238"/>
      <point x="288" y="303"/>
      <point x="236" y="303" type="qcurve" smooth="yes"/>
      <point x="184" y="303"/>
      <point x="119" y="238"/>
    </contour>
  </outline>
</glyph>
<glyph name="b" format="1">
  <advance width="547"/>
  <unicode hex="0062"/>
  <outline>
    <contour>
      <point x="454.0" y="49.0" type="qcurve" smooth="yes" name="inserted"/>
      <point x="427" y="22"/>
      <point x="353" y="-9"/>
      <point x="311" y="-9" type="qcurve" smooth="yes"/>
      <point x="282" y="-9"/>
      <point x="236" y="4"/>
      <point x="219.5" y="12.5" type="qcurve" smooth="yes" name="inserted"/>
      <point x="203" y="21"/>
      <point x="185" y="37"/>
      <point x="184" y="40" type="qcurve"/>
      <point x="184" y="20" type="line"/>
      <point x="184" y="0" type="line"/>
      <point x="35" y="0" type="line"/>
      <point x="35" y="79" type="line"/>
      <point x="111" y="79" type="line"/>
      <point x="111" y="671" type="line"/>
      <point x="45" y="671" type="line"/>
      <point x="45" y="750" type="line"/>
      <point x="194" y="750" type="line"/>
      <point x="194" y="362" type="line"/>
      <point x="192" y="354"/>
      <point x="186" y="339"/>
      <point x="184" y="331" type="qcurve"/>
      <point x="185" y="334"/>
      <point x="206" y="352"/>
      <point x="223.0" y="361.0" type="qcurve" smooth="yes" name="inserted"/>
      <point x="240" y="370"/>
      <point x="285" y="384"/>
      <point x="311" y="384" type="qcurve" smooth="yes"/>
      <point x="353" y="384"/>
      <point x="427" y="353"/>
      <point x="454.0" y="326.0" type="qcurve" smooth="yes" name="inserted"/>
      <point x="481" y="299"/>
      <point x="512" y="228"/>
      <point x="512" y="188" type="qcurve" smooth="yes"/>
      <point x="512" y="148"/>
      <point x="481" y="76"/>
    </contour>
    <contour>
      <point x="194" y="188" type="qcurve" smooth="yes"/>
      <point x="194" y="139"/>
      <point x="259" y="72"/>
      <point x="311" y="72" type="qcurve" smooth="yes"/>
      <point x="363" y="72"/>
      <point x="428" y="139"/>
      <point x="428" y="188" type="qcurve" smooth="yes"/>
      <point x="428" y="238"/>
      <point x="363" y="303"/>
      <point x="311" y="303" type="qcurve" smooth="yes"/>
      <point x="259" y="303"/>
      <point x="194" y="238"/>
    </contour>
  </outline>
</glyph>
<glyph name="c" format="2">
  <advance width="397"/>
  <unicode hex="0063"/>
  <outline>
    <contour>
      <point x="360" y="34" type="line"/>
      <point x="334" y="14"/>
      <point x="271" y="-9"/>
      <point x="235" y="-9" type="qcurve" smooth="yes"/>
      <point x="193" y="-9"/>
      <point x="120" y="22"/>
      <point x="93" y="49" type="qcurve" smooth="yes" name="inserted"/>
      <point x="66" y="76"/>
      <point x="35" y="147"/>
      <point x="35" y="188" type="qcurve" smooth="yes"/>
      <point x="35" y="228"/>
      <point x="66" y="300"/>
      <point x="93" y="326" type="qcurve" smooth="yes" name="inserted"/>
      <point x="120" y="353"/>
      <point x="193" y="384"/>
      <point x="235" y="384" type="qcurve" smooth="yes"/>
      <point x="272" y="384"/>
      <point x="336" y="361"/>
      <point x="362" y="341" type="qcurve"/>
      <point x="362" y="225" type="line"/>
      <point x="288" y="225" type="line"/>
      <point x="288" y="292" type="line"/>
      <point x="276" y="298" name="inserted"/>
      <point x="249" y="303"/>
      <point x="235" y="303" type="qcurve" smooth="yes"/>
      <point x="211" y="303"/>
      <point x="170" y="288"/>
      <point x="155" y="275" type="qcurve" smooth="yes"/>
      <point x="137" y="259"/>
      <point x="118" y="215"/>
      <point x="118" y="188" type="qcurve" smooth="yes"/>
      <point x="118" y="163"/>
      <point x="136" y="119"/>
      <point x="152" y="103" type="qcurve" smooth="yes"/>
      <point x="168" y="89"/>
      <point x="210" y="72"/>
      <point x="235" y="72" type="qcurve" smooth="yes"/>
      <point x="257" y="72" name="inserted"/>
      <point x="294" y="84"/>
      <point x="310" y="97" type="qcurve"/>
    </contour>
  </outline>
</glyph>
<glyph name="d" format="2">
  <advance width="547"/>
  <unicode hex="0064"/>
  <outline>
    <contour>
      <point x="512" y="0" type="line"/>
      <point x="363" y="0" type="line"/>
      <point x="363" y="20" type="line" smooth="yes"/>
      <point x="363.0" y="27.0"/>
      <point x="363.0" y="33"/>
      <point x="363" y="40" type="qcurve"/>
      <point x="362" y="37"/>
      <point x="344" y="21"/>
      <point x="327.5" y="12.5" type="qcurve" smooth="yes" name="inserted"/>
      <point x="311" y="4"/>
      <point x="265" y="-9"/>
      <point x="236" y="-9" type="qcurve" smooth="yes"/>
      <point x="194" y="-9"/>
      <point x="120" y="22"/>
      <point x="93.0" y="49.0" type="qcurve" smooth="yes" name="inserted"/>
      <point x="66" y="76"/>
      <point x="35" y="148"/>
      <point x="35" y="188" type="qcurve" smooth="yes"/>
      <point x="35" y="228"/>
      <point x="66" y="299"/>
      <point x="93.0" y="326.0" type="qcurve" smooth="yes" name="inserted"/>
      <point x="120" y="353"/>
      <point x="194" y="384"/>
      <point x="236" y="384" type="qcurve" smooth="yes"/>
      <point x="261" y="384"/>
      <point x="306" y="370"/>
      <point x="323.0" y="361.0" type="qcurve" smooth="yes" name="inserted"/>
      <point x="340" y="352"/>
      <point x="354" y="341"/>
      <point x="356" y="338" type="qcurve"/>
      <point x="354" y="346"/>
      <point x="353" y="371"/>
      <point x="353" y="378" type="qcurve"/>
      <point x="353" y="671" type="line"/>
      <point x="287" y="671" type="line"/>
      <point x="287" y="750" type="line"/>
      <point x="436" y="750" type="line"/>
      <point x="436" y="79" type="line"/>
      <point x="512" y="79" type="line"/>
    </contour>
    <contour>
      <point x="236" y="303" type="qcurve" smooth="yes"/>
      <point x="210" y="303"/>
      <point x="166" y="285"/>
      <point x="150" y="270" type="qcurve" smooth="yes"/>
      <point x="136" y="254"/>
      <point x="119" y="213"/>
      <point x="119" y="188" type="qcurve" smooth="yes"/>
      <point x="119" y="162"/>
      <point x="139" y="116"/>
      <point x="156" y="101" type="qcurve" smooth="yes"/>
      <point x="171" y="87"/>
      <point x="212" y="72"/>
      <point x="236" y="72" type="qcurve" smooth="yes"/>
      <point x="260" y="72"/>
      <point x="300" y="87"/>
      <point x="316" y="101" type="qcurve" smooth="yes"/>
      <point x="333" y="116"/>
      <point x="353" y="162"/>
      <point x="353" y="188" type="qcurve" smooth="yes"/>
      <point x="353" y="216"/>
      <point x="332" y="262"/>
      <point x="314" y="277" type="qcurve" smooth="yes"/>
      <point x="299" y="289"/>
      <point x="259" y="303"/>
    </contour>
  </outline>
</glyph>
<glyph name="e" format="2">
  <advance width="450"/>
  <unicode hex="0065"/>
  <outline>
    <contour>
      <point x="235" y="303" type="qcurve" smooth="yes"/>
      <point x="207" y="303"/>
      <point x="162" y="284"/>
      <point x="146" y="267" type="qcurve" smooth="yes"/>
      <point x="134" y="253"/>
      <point x="119" y="217"/>
      <point x="118" y="196" type="qcurve"/>
      <point x="165" y="213"/>
      <point x="258" y="248"/>
      <point x="305" y="265" type="qcurve"/>
      <point x="291" y="282"/>
      <point x="256" y="303"/>
    </contour>
    <contour>
      <point x="362" y="44" type="line"/>
      <point x="337" y="19"/>
      <point x="273" y="-9"/>
      <point x="235" y="-9" type="qcurve" smooth="yes"/>
      <point x="193" y="-9"/>
      <point x="120" y="22"/>
      <point x="93.0" y="49.0" type="qcurve" smooth="yes" name="inserted"/>
      <point x="66" y="76"/>
      <point x="35" y="147"/>
      <point x="35" y="188" type="qcurve" smooth="yes"/>
      <point x="35" y="228"/>
      <point x="66" y="300"/>
      <point x="93.0" y="326.5" type="qcurve" smooth="yes" name="inserted"/>
      <point x="120" y="353"/>
      <point x="193" y="384"/>
      <point x="235" y="384" type="qcurve" smooth="yes"/>
      <point x="266" y="384"/>
      <point x="323" y="359"/>
      <point x="345.5" y="337.0" type="qcurve" smooth="yes" name="inserted"/>
      <point x="368" y="315"/>
      <point x="402" y="254"/>
      <point x="411" y="218" type="qcurve"/>
      <point x="343" y="193"/>
      <point x="208" y="143"/>
      <point x="140" y="118" type="qcurve"/>
      <point x="155" y="97"/>
      <point x="204" y="72"/>
      <point x="235" y="72" type="qcurve" smooth="yes"/>
      <point x="258.0" y="72.0" name="inserted"/>
      <point x="296.0" y="88.0"/>
      <point x="311" y="104" type="qcurve"/>
    </contour>
  </outline>
</glyph>
<glyph name="g" format="1">
  <advance width="547"/>
  <unicode hex="0067"/>
  <outline>
    <contour>
      <point x="378.0" y="-194.5" type="qcurve" smooth="yes" name="inserted"/>
      <point x="351" y="-220"/>
      <point x="279" y="-250"/>
      <point x="237" y="-250" type="qcurve" smooth="yes"/>
      <point x="192" y="-250"/>
      <point x="108" y="-211"/>
      <point x="78" y="-190" type="qcurve"/>
      <point x="133" y="-122" type="line"/>
      <point x="153" y="-137"/>
      <point x="206" y="-164"/>
      <point x="235" y="-164" type="qcurve" smooth="yes"/>
      <point x="261" y="-164"/>
      <point x="304" y="-146"/>
      <point x="320.0" y="-130.5" type="qcurve" smooth="yes" name="inserted"/>
      <point x="336" y="-115"/>
      <point x="353" y="-72"/>
      <point x="353" y="-47" type="qcurve" smooth="yes"/>
      <point x="353" y="20" type="line"/>
      <point x="355" y="24"/>
      <point x="359" y="33"/>
      <point x="361" y="38" type="qcurve"/>
      <point x="358" y="33"/>
      <point x="338" y="18"/>
      <point x="322.0" y="10.5" type="qcurve" smooth="yes" name="inserted"/>
      <point x="306" y="3"/>
      <point x="263" y="-8"/>
      <point x="236" y="-8" type="qcurve" smooth="yes"/>
      <point x="194" y="-8"/>
      <point x="120" y="23"/>
      <point x="93.0" y="49.5" type="qcurve" smooth="yes" name="inserted"/>
      <point x="66" y="76"/>
      <point x="35" y="147"/>
      <point x="35" y="187" type="qcurve" smooth="yes"/>
      <point x="35" y="226"/>
      <point x="66" y="298"/>
      <point x="93.0" y="325.0" type="qcurve" smooth="yes" name="inserted"/>
      <point x="120" y="352"/>
      <point x="194" y="384"/>
      <point x="236" y="384" type="qcurve" smooth="yes"/>
      <point x="263" y="384"/>
      <point x="309" y="368"/>
      <point x="326.0" y="358.5" type="qcurve" smooth="yes" name="inserted"/>
      <point x="343" y="349"/>
      <point x="363" y="331"/>
      <point x="363" y="328" type="qcurve"/>
      <point x="363" y="339"/>
      <point x="367" y="363"/>
      <point x="367" y="375" type="qcurve"/>
      <point x="512" y="375" type="line"/>
      <point x="512" y="296" type="line"/>
      <point x="436" y="296" type="line"/>
      <point x="436" y="-60" type="line" smooth="yes"/>
      <point x="436" y="-100"/>
      <point x="405" y="-169"/>
    </contour>
    <contour>
      <point x="119" y="188" type="qcurve" smooth="yes"/>
      <point x="119" y="139"/>
      <point x="184" y="72"/>
      <point x="236" y="72" type="qcurve" smooth="yes"/>
      <point x="288" y="72"/>
      <point x="353" y="139"/>
      <point x="353" y="188" type="qcurve" smooth="yes"/>
      <point x="353" y="238"/>
      <point x="288" y="303"/>
      <point x="236" y="303" type="qcurve" smooth="yes"/>
      <point x="184" y="303"/>
      <point x="119" y="238"/>
    </contour>
  </outline>
</glyph>
<glyph name="j" format="2">
  <advance width="212"/>
  <unicode hex="006A"/>
  <outline>
    <contour>
      <point x="177" y="0" type="line" smooth="yes"/>
      <point x="177" y="-61"/>
      <point x="135" y="-152"/>
      <point x="97" y="-181" type="qcurve"/>
      <point x="40" y="-119" type="line"/>
      <point x="66" y="-99"/>
      <point x="94" y="-39"/>
      <point x="94" y="3" type="qcurve" smooth="yes"/>
      <point x="94" y="296" type="line"/>
      <point x="35" y="296" type="line"/>
      <point x="35" y="375" type="line"/>
      <point x="177" y="375" type="line"/>
    </contour>
    <contour>
      <point x="190" y="520" type="qcurve" smooth="yes"/>
      <point x="190" y="497"/>
      <point x="158" y="468"/>
      <point x="139" y="468" type="qcurve" smooth="yes"/>
      <point x="119" y="468"/>
      <point x="87" y="497"/>
      <point x="87" y="520" type="qcurve" smooth="yes"/>
      <point x="87" y="543"/>
      <point x="119" y="573"/>
      <point x="139" y="573" type="qcurve" smooth="yes"/>
      <point x="158" y="573"/>
      <point x="190" y="543"/>
    </contour>
  </outline>
</glyph>
<glyph name="m" format="1">
  <advance width="870"/>
  <unicode hex="006D"/>
  <outline>
    <contour>
      <point x="257" y="0" type="line"/>
      <point x="35" y="0" type="line"/>
      <point x="35" y="79" type="line"/>
      <point x="111" y="79" type="line"/>
      <point x="111" y="296" type="line"/>
      <point x="45" y="296" type="line"/>
      <point x="45" y="375" type="line"/>
      <point x="184" y="375" type="line"/>
      <point x="184" y="366" type="line"/>
      <point x="186" y="342"/>
      <point x="189" y="303"/>
      <point x="191" y="279" type="qcurve"/>
      <point x="212" y="327"/>
      <point x="297" y="382"/>
      <point x="354" y="384" type="qcurve" smooth="yes"/>
      <point x="409" y="384"/>
      <point x="476" y="329"/>
      <point x="482" y="284" type="qcurve"/>
      <point x="504" y="330"/>
      <point x="588" y="382"/>
      <point x="643" y="384" type="qcurve" smooth="yes"/>
      <point x="702" y="384"/>
      <point x="770" y="322"/>
      <point x="772" y="272" type="qcurve" smooth="yes"/>
      <point x="772" y="79" type="line"/>
      <point x="835" y="79" type="line"/>
      <point x="835" y="0" type="line"/>
      <point x="613" y="0" type="line"/>
      <point x="613" y="79" type="line"/>
      <point x="689" y="79" type="line"/>
      <point x="689" y="234" type="line"/>
      <point x="687" y="261"/>
      <point x="652" y="300"/>
      <point x="614" y="302" type="qcurve"/>
      <point x="588" y="302"/>
      <point x="541" y="284"/>
      <point x="523.0" y="268.0" type="qcurve" smooth="yes" name="inserted"/>
      <point x="505" y="252"/>
      <point x="483" y="208"/>
      <point x="483" y="182" type="qcurve" smooth="yes"/>
      <point x="483" y="79" type="line"/>
      <point x="546" y="79" type="line"/>
      <point x="546" y="0" type="line"/>
      <point x="324" y="0" type="line"/>
      <point x="324" y="79" type="line"/>
      <point x="400" y="79" type="line"/>
      <point x="400" y="234" type="line"/>
      <point x="398" y="261"/>
      <point x="363" y="300"/>
      <point x="325" y="302" type="qcurve"/>
      <point x="299" y="302"/>
      <point x="252" y="284"/>
      <point x="234.0" y="268.0" type="qcurve" smooth="yes" name="inserted"/>
      <point x="216" y="252"/>
      <point x="194" y="208"/>
      <point x="194" y="182" type="qcurve" smooth="yes"/>
      <point x="194" y="79" type="line"/>
      <point x="257" y="79" type="line"/>
    </contour>
  </outline>
</glyph>
<glyph name="n" format="1">
  <advance width="580"/>
  <unicode hex="006E"/>
  <outline>
    <contour>
      <point x="257" y="0" type="line"/>
      <point x="35" y="0" type="line"/>
      <point x="35" y="79" type="line"/>
      <point x="111" y="79" type="line"/>
      <point x="111" y="296" type="line"/>
      <point x="45" y="296" type="line"/>
      <point x="45" y="375" type="line"/>
      <point x="184" y="375" type="line"/>
      <point x="184" y="366" type="line"/>
      <point x="186" y="342"/>
      <point x="189" y="303"/>
      <point x="191" y="279" type="qcurve"/>
      <point x="211" y="327"/>
      <point x="300" y="384"/>
      <point x="354" y="384" type="qcurve" smooth="yes"/>
      <point x="413" y="384"/>
      <point x="481" y="322"/>
      <point x="483" y="272" type="qcurve" smooth="yes"/>
      <point x="483" y="79" type="line"/>
      <point x="545" y="79" type="line"/>
      <point x="545" y="0" type="line"/>
      <point x="323" y="0" type="line"/>
      <point x="323" y="79" type="line"/>
      <point x="400" y="79" type="line"/>
      <point x="400" y="234" type="line"/>
      <point x="398" y="261"/>
      <point x="363" y="300"/>
      <point x="325" y="302" type="qcurve"/>
      <point x="299" y="302"/>
      <point x="252" y="284"/>
      <point x="234.0" y="268.0" type="qcurve" smooth="yes" name="inserted"/>
      <point x="216" y="252"/>
      <point x="194" y="208"/>
      <point x="194" y="182" type="qcurve" smooth="yes"/>
      <point x="194" y="79" type="line"/>
      <point x="257" y="79" type="line"/>
    </contour>
  </outline>
</glyph>
<glyph name="o" format="1">
  <advance width="471"/>
  <unicode hex="006F"/>
  <outline>
    <contour>
      <point x="378.0" y="49.0" type="qcurve" smooth="yes" name="inserted"/>
      <point x="351" y="22"/>
      <point x="277" y="-9"/>
      <point x="235" y="-9" type="qcurve" smooth="yes"/>
      <point x="193" y="-9"/>
      <point x="120" y="22"/>
      <point x="93.0" y="49.0" type="qcurve" smooth="yes" name="inserted"/>
      <point x="66" y="76"/>
      <point x="35" y="147"/>
      <point x="35" y="188" type="qcurve" smooth="yes"/>
      <point x="35" y="228"/>
      <point x="66" y="300"/>
      <point x="93.0" y="326.5" type="qcurve" smooth="yes" name="inserted"/>
      <point x="120" y="353"/>
      <point x="193" y="384"/>
      <point x="235" y="384" type="qcurve" smooth="yes"/>
      <point x="277" y="384"/>
      <point x="351" y="353"/>
      <point x="378.0" y="326.5" type="qcurve" smooth="yes" name="inserted"/>
      <point x="405" y="300"/>
      <point x="436" y="228"/>
      <point x="436" y="188" type="qcurve" smooth="yes"/>
      <point x="436" y="147"/>
      <point x="405" y="76"/>
    </contour>
    <contour>
      <point x="151.5" y="105.5" type="qcurve" smooth="yes" name="inserted"/>
      <point x="167" y="90"/>
      <point x="209" y="72"/>
      <point x="233" y="72" type="qcurve" smooth="yes"/>
      <point x="257" y="72"/>
      <point x="299" y="90"/>
      <point x="315.0" y="105.5" type="qcurve" smooth="yes" name="inserted"/>
      <point x="331" y="121"/>
      <point x="349" y="163"/>
      <point x="349" y="187" type="qcurve" smooth="yes"/>
      <point x="349" y="211"/>
      <point x="331" y="253"/>
      <point x="315.0" y="269.0" type="qcurve" smooth="yes" name="inserted"/>
      <point x="299" y="285"/>
      <point x="257" y="303"/>
      <point x="233" y="303" type="qcurve" smooth="yes"/>
      <point x="209" y="303"/>
      <point x="167" y="285"/>
      <point x="151.5" y="269.0" type="qcurve" smooth="yes" name="inserted"/>
      <point x="136" y="253"/>
      <point x="118" y="211"/>
      <point x="118" y="187" type="qcurve" smooth="yes"/>
      <point x="118" y="163"/>
      <point x="136" y="121"/>
    </contour>
  </outline>
</glyph>
<glyph name="p" format="1">
  <advance width="548"/>
  <unicode hex="0070"/>
  <outline>
    <contour>
      <point x="267" y="-250" type="line"/>
      <point x="45" y="-250" type="line"/>
      <point x="45" y="-171" type="line"/>
      <point x="112" y="-171" type="line"/>
      <point x="112" y="296" type="line"/>
      <point x="35" y="296" type="line"/>
      <point x="35" y="375" type="line"/>
      <point x="181" y="375" type="line"/>
      <point x="181" y="364"/>
      <point x="183" y="339"/>
      <point x="185" y="328" type="qcurve"/>
      <point x="186" y="331"/>
      <point x="207" y="350"/>
      <point x="224.0" y="359.5" type="qcurve" smooth="yes" name="inserted"/>
      <point x="241" y="369"/>
      <point x="286" y="384"/>
      <point x="312" y="384" type="qcurve" smooth="yes"/>
      <point x="354" y="384"/>
      <point x="428" y="353"/>
      <point x="455.0" y="326.0" type="qcurve" smooth="yes" name="inserted"/>
      <point x="482" y="299"/>
      <point x="513" y="228"/>
      <point x="513" y="188" type="qcurve" smooth="yes"/>
      <point x="513" y="148"/>
      <point x="482" y="76"/>
      <point x="455.0" y="49.0" type="qcurve" smooth="yes" name="inserted"/>
      <point x="428" y="22"/>
      <point x="354" y="-9"/>
      <point x="312" y="-9" type="qcurve" smooth="yes"/>
      <point x="284" y="-9"/>
      <point x="240" y="3"/>
      <point x="224.0" y="11.0" type="qcurve" smooth="yes" name="inserted"/>
      <point x="208" y="19"/>
      <point x="189" y="34"/>
      <point x="186" y="38" type="qcurve"/>
      <point x="188" y="33"/>
      <point x="193" y="24"/>
      <point x="195" y="19" type="qcurve"/>
      <point x="195" y="-171" type="line"/>
      <point x="267" y="-171" type="line"/>
    </contour>
    <contour>
      <point x="195" y="188" type="qcurve" smooth="yes"/>
      <point x="195" y="139"/>
      <point x="260" y="72"/>
      <point x="312" y="72" type="qcurve" smooth="yes"/>
      <point x="364" y="72"/>
      <point x="429" y="139"/>
      <point x="429" y="188" type="qcurve" smooth="yes"/>
      <point x="429" y="238"/>
      <point x="364" y="303"/>
      <point x="312" y="303" type="qcurve" smooth="yes"/>
      <point x="260" y="303"/>
      <point x="195" y="238"/>
    </contour>
  </outline>
</glyph>
<glyph name="q" format="2">
  <advance width="551"/>
  <unicode hex="0071"/>
  <outline>
    <contour>
      <point x="499" y="-250" type="line"/>
      <point x="277" y="-250" type="line"/>
      <point x="277" y="-171" type="line"/>
      <point x="353" y="-171" type="line"/>
      <point x="353" y="12" type="line"/>
      <point x="353" y="17"/>
      <point x="354" y="27"/>
      <point x="356" y="33" type="qcurve"/>
      <point x="353" y="29"/>
      <point x="339" y="18"/>
      <point x="323.0" y="10.0" type="qcurve" smooth="yes" name="inserted"/>
      <point x="307" y="2"/>
      <point x="263" y="-9"/>
      <point x="236" y="-9" type="qcurve" smooth="yes"/>
      <point x="194" y="-9"/>
      <point x="120" y="22"/>
      <point x="93.0" y="49.0" type="qcurve" smooth="yes" name="inserted"/>
      <point x="66" y="76"/>
      <point x="35" y="148"/>
      <point x="35" y="188" type="qcurve" smooth="yes"/>
      <point x="35" y="228"/>
      <point x="66" y="299"/>
      <point x="93.0" y="326.0" type="qcurve" smooth="yes" name="inserted"/>
      <point x="120" y="353"/>
      <point x="194" y="384"/>
      <point x="236" y="384" type="qcurve" smooth="yes"/>
      <point x="288.6592106693637" y="384.0"/>
      <point x="349" y="347"/>
      <point x="363" y="328" type="qcurve"/>
      <point x="364" y="338"/>
      <point x="366" y="361"/>
      <point x="367" y="375" type="qcurve"/>
      <point x="516" y="375" type="line"/>
      <point x="516" y="296" type="line"/>
      <point x="436" y="296" type="line"/>
      <point x="436" y="-171" type="line"/>
      <point x="499" y="-171" type="line"/>
    </contour>
    <contour>
      <point x="236" y="303" type="qcurve" smooth="yes"/>
      <point x="210" y="303"/>
      <point x="167" y="286"/>
      <point x="152" y="271" type="qcurve" smooth="yes"/>
      <point x="136" y="256"/>
      <point x="119" y="213"/>
      <point x="119" y="188" type="qcurve" smooth="yes"/>
      <point x="119" y="160"/>
      <point x="140" y="114"/>
      <point x="159" y="98" type="qcurve" smooth="yes"/>
      <point x="174" y="86"/>
      <point x="213" y="72"/>
      <point x="236" y="72" type="qcurve" smooth="yes"/>
      <point x="262" y="72"/>
      <point x="305" y="90"/>
      <point x="320" y="105" type="qcurve" smooth="yes"/>
      <point x="336" y="121"/>
      <point x="353" y="163"/>
      <point x="353" y="188" type="qcurve" smooth="yes"/>
      <point x="353" y="214"/>
      <point x="334" y="258"/>
      <point x="318" y="273" type="qcurve" smooth="yes"/>
      <point x="302" y="287"/>
      <point x="261" y="303"/>
    </contour>
  </outline>
</glyph>
<glyph name="r" format="1">
  <advance width="370"/>
  <unicode hex="0072"/>
  <outline>
    <contour>
      <point x="257" y="0" type="line"/>
      <point x="35" y="0" type="line"/>
      <point x="35" y="79" type="line"/>
      <point x="111" y="79" type="line"/>
      <point x="111" y="296" type="line"/>
      <point x="45" y="296" type="line"/>
      <point x="45" y="375" type="line"/>
      <point x="184" y="375" type="line"/>
      <point x="184" y="366" type="line"/>
      <point x="186" y="342"/>
      <point x="189" y="303"/>
      <point x="191" y="279" type="qcurve"/>
      <point x="203" y="304"/>
      <point x="240" y="343"/>
      <point x="260.5" y="356.5" type="qcurve" smooth="yes" name="inserted"/>
      <point x="281" y="370"/>
      <point x="320" y="384"/>
      <point x="335" y="384" type="qcurve"/>
      <point x="329" y="302" type="line"/>
      <point x="268" y="302"/>
      <point x="194" y="234"/>
      <point x="194" y="182" type="qcurve" smooth="yes"/>
      <point x="194" y="79" type="line"/>
      <point x="257" y="79" type="line"/>
    </contour>
  </outline>
</glyph>
<glyph name="s" format="1">
  <advance width="332"/>
  <unicode hex="0073"/>
  <outline>
    <contour>
      <point x="276.0" y="37.0" type="qcurve" smooth="yes" name="inserted"/>
      <point x="262" y="18"/>
      <point x="212" y="-8"/>
      <point x="172" y="-8" type="qcurve" smooth="yes"/>
      <point x="135" y="-8"/>
      <point x="67" y="11"/>
      <point x="47" y="33" type="qcurve"/>
      <point x="47" y="120" type="line"/>
      <point x="121" y="120" type="line"/>
      <point x="121" y="81" type="line"/>
      <point x="133" y="76"/>
      <point x="156" y="73"/>
      <point x="173" y="73" type="qcurve" smooth="yes"/>
      <point x="174" y="73"/>
      <point x="187" y="74"/>
      <point x="195.0" y="77.5" type="qcurve" smooth="yes" name="inserted"/>
      <point x="203" y="81"/>
      <point x="216" y="95"/>
      <point x="217" y="109" type="qcurve" smooth="yes"/>
      <point x="218" y="127"/>
      <point x="196" y="146"/>
      <point x="178.5" y="152.5" type="qcurve" smooth="yes" name="inserted"/>
      <point x="161" y="159"/>
      <point x="119" y="172"/>
      <point x="100.5" y="183.5" type="qcurve" smooth="yes" name="inserted"/>
      <point x="82" y="195"/>
      <point x="58" y="237"/>
      <point x="58" y="272" type="qcurve" smooth="yes"/>
      <point x="58" y="303"/>
      <point x="82" y="345"/>
      <point x="100.0" y="358.5" type="qcurve" smooth="yes" name="inserted"/>
      <point x="118" y="372"/>
      <point x="160" y="384"/>
      <point x="177" y="384" type="qcurve" smooth="yes"/>
      <point x="187" y="384"/>
      <point x="216" y="380"/>
      <point x="231.0" y="375.0" type="qcurve" smooth="yes" name="inserted"/>
      <point x="246" y="370"/>
      <point x="275" y="354"/>
      <point x="286" y="342" type="qcurve"/>
      <point x="286" y="255" type="line"/>
      <point x="212" y="255" type="line"/>
      <point x="212" y="298" type="line"/>
      <point x="204.5" y="300.5" name="inserted"/>
      <point x="189.5" y="303.0"/>
      <point x="182" y="303" type="qcurve" smooth="yes"/>
      <point x="160" y="303"/>
      <point x="140" y="284"/>
      <point x="142" y="268" type="qcurve" smooth="yes"/>
      <point x="144" y="256"/>
      <point x="170" y="241"/>
      <point x="187.5" y="234.0" type="qcurve" smooth="yes" name="inserted"/>
      <point x="205" y="227"/>
      <point x="245" y="209"/>
      <point x="262.0" y="195.5" type="qcurve" smooth="yes" name="inserted"/>
      <point x="279" y="182"/>
      <point x="301" y="141"/>
      <point x="301" y="110" type="qcurve" smooth="yes"/>
      <point x="301" y="96"/>
      <point x="290" y="56"/>
    </contour>
  </outline>
</glyph>
<glyph name="t" format="2">
  <advance width="335"/>
  <unicode hex="0074"/>
  <outline>
    <contour>
      <point x="277" y="0" type="line"/>
      <point x="119" y="0" type="line"/>
      <point x="119" y="294" type="line"/>
      <point x="35" y="294" type="line"/>
      <point x="35" y="375" type="line"/>
      <point x="119" y="375" type="line"/>
      <point x="119" y="619" type="line"/>
      <point x="202" y="619" type="line"/>
      <point x="202" y="375" type="line"/>
      <point x="300" y="375" type="line"/>
      <point x="300" y="294" type="line"/>
      <point x="202" y="294" type="line"/>
      <point x="202" y="79" type="line"/>
      <point x="277" y="79" type="line"/>
    </contour>
  </outline>
</glyph>
<glyph name="u" format="2">
  <advance width="570"/>
  <unicode hex="0075"/>
  <outline>
    <contour>
      <point x="393" y="96" type="line"/>
      <point x="373" y="48"/>
      <point x="284" y="-9"/>
      <point x="230" y="-9" type="qcurve" smooth="yes"/>
      <point x="171" y="-9"/>
      <point x="103" y="53"/>
      <point x="101" y="103" type="qcurve" smooth="yes"/>
      <point x="101" y="296" type="line"/>
      <point x="35" y="296" type="line"/>
      <point x="35" y="375" type="line"/>
      <point x="184" y="375" type="line"/>
      <point x="184" y="141" type="line"/>
      <point x="186" y="114"/>
      <point x="221" y="75"/>
      <point x="259" y="73" type="qcurve"/>
      <point x="285" y="73"/>
      <point x="332" y="91"/>
      <point x="350.0" y="107.0" type="qcurve" smooth="yes" name="inserted"/>
      <point x="368" y="123"/>
      <point x="390" y="167"/>
      <point x="390" y="193" type="qcurve" smooth="yes"/>
      <point x="390" y="296" type="line"/>
      <point x="324" y="296" type="line"/>
      <point x="324" y="375" type="line"/>
      <point x="473" y="375" type="line"/>
      <point x="473" y="70" type="line"/>
      <point x="535" y="70" type="line"/>
      <point x="535" y="0" type="line"/>
      <point x="390" y="0" type="line"/>
      <point x="390" y="51" type="line"/>
    </contour>
  </outline>
</glyph>
<glyph name="v" format="2">
  <advance width="584"/>
  <unicode hex="0076"/>
  <outline>
    <contour>
      <point x="466" y="296" type="line"/>
      <point x="423" y="215"/>
      <point x="336" y="57"/>
      <point x="293" y="-23" type="qcurve"/>
      <point x="249" y="57"/>
      <point x="163" y="216"/>
      <point x="119" y="296" type="qcurve"/>
      <point x="35" y="296" type="line"/>
      <point x="35" y="375" type="line"/>
      <point x="257" y="375" type="line"/>
      <point x="257" y="296" type="line"/>
      <point x="205" y="296" type="line"/>
      <point x="231" y="252"/>
      <point x="279" y="164"/>
      <point x="293" y="120" type="qcurve"/>
      <point x="307" y="164"/>
      <point x="354" y="252"/>
      <point x="380" y="296" type="qcurve"/>
      <point x="320" y="296" type="line"/>
      <point x="320" y="375" type="line"/>
      <point x="549" y="375" type="line"/>
      <point x="549" y="296" type="line"/>
    </contour>
  </outline>
</glyph>
<glyph name="z" format="2">
  <advance width="435"/>
  <unicode hex="007A"/>
  <outline>
    <contour>
      <point x="400" y="0" type="line"/>
      <point x="35" y="0" type="line"/>
      <point x="35" y="81" type="line"/>
      <point x="97" y="140"/>
      <point x="195" y="235"/>
      <point x="260" y="296" type="qcurve"/>
      <point x="47" y="296" type="line"/>
      <point x="47" y="410" type="line"/>
      <point x="121" y="410" type="line"/>
      <point x="121" y="375" type="line"/>
      <point x="377" y="375" type="line"/>
      <point x="377" y="294" type="line"/>
      <point x="312" y="234"/>
      <point x="213" y="139"/>
      <point x="152" y="81" type="qcurve"/>
      <point x="326" y="81" type="line"/>
      <point x="326" y="138" type="line"/>
      <point x="400" y="138" type="line"/>
    </contour>
  </outline>
</glyph>
<glyph name="braceleft" format="2">
  <advance width="320"/>
  <unicode hex="007B"/>
  <outline>
    <contour>
      <point x="290" y="-149" type="line"/>
      <point x="227" y="-149" type="line" smooth="yes"/>
      <point x="204" y="-149"/>
      <point x="161" y="-147"/>
      <point x="144.5" y="-136.5" type="qcurve" smooth="yes" name="inserted"/>
      <point x="128" y="-126"/>
      <point x="109" y="-78"/>
      <point x="109" y="-31" type="qcurve" smooth="yes"/>
      <point x="109" y="121" type="line" smooth="yes"/>
      <point x="109" y="141"/>
      <point x="103" y="188"/>
      <point x="94" y="208" type="qcurve" smooth="yes" name="inserted"/>
      <point x="85" y="228"/>
      <point x="54" y="255"/>
      <point x="30" y="256" type="qcurve"/>
      <point x="30" y="337" type="line"/>
      <point x="54" y="338"/>
      <point x="85" y="365"/>
      <point x="94" y="385" type="qcurve" smooth="yes" name="inserted"/>
      <point x="103" y="405"/>
      <point x="109" y="452"/>
      <point x="109" y="472" type="qcurve" smooth="yes"/>
      <point x="109" y="628" type="line" smooth="yes"/>
      <point x="109" y="674"/>
      <point x="128" y="723"/>
      <point x="144" y="733.5" type="qcurve" smooth="yes" name="inserted"/>
      <point x="160" y="744"/>
      <point x="203" y="746"/>
      <point x="227" y="746" type="qcurve" smooth="yes"/>
      <point x="290" y="746" type="line"/>
      <point x="290" y="665" type="line"/>
      <point x="246" y="665" type="line" smooth="yes"/>
      <point x="231" y="665"/>
      <point x="211" y="657"/>
      <point x="205" y="645.5" type="qcurve" smooth="yes" name="inserted"/>
      <point x="199" y="634"/>
      <point x="194" y="594"/>
      <point x="194" y="562" type="qcurve" smooth="yes"/>
      <point x="194" y="433" type="line" smooth="yes"/>
      <point x="194" y="402"/>
      <point x="181" y="357"/>
      <point x="171" y="341" type="qcurve" smooth="yes" name="inserted"/>
      <point x="161" y="325"/>
      <point x="139" y="304"/>
      <point x="129" y="298" type="qcurve"/>
      <point x="139" y="292"/>
      <point x="161" y="271"/>
      <point x="171" y="254.5" type="qcurve" smooth="yes" name="inserted"/>
      <point x="181" y="238"/>
      <point x="194" y="194"/>
      <point x="194" y="164" type="qcurve" smooth="yes"/>
      <point x="194" y="35" type="line" smooth="yes"/>
      <point x="194" y="3"/>
      <point x="199" y="-38"/>
      <point x="205" y="-49" type="qcurve" smooth="yes" name="inserted"/>
      <point x="211" y="-60"/>
      <point x="231" y="-68"/>
      <point x="246" y="-68" type="qcurve" smooth="yes"/>
      <point x="290" y="-68" type="line"/>
    </contour>
  </outline>
</glyph>
<glyph name="bar" format="2">
  <advance width="271"/>
  <unicode hex="007C"/>
  <outline>
    <contour>
      <point x="175" y="-232" type="line"/>
      <point x="91" y="-232" type="line"/>
      <point x="91" y="700" type="line"/>
      <point x="175" y="700" type="line"/>
    </contour>
  </outline>
</glyph>
<glyph name="braceright" format="1">
  <advance width="320"/>
  <unicode hex="007D"/>
  <outline>
    <contour>
      <point x="93" y="-149" type="qcurve" smooth="yes"/>
      <point x="30" y="-149" type="line"/>
      <point x="30" y="-68" type="line"/>
      <point x="74" y="-68" type="line" smooth="yes"/>
      <point x="89" y="-68"/>
      <point x="109" y="-60"/>
      <point x="115.0" y="-49.0" type="qcurve" smooth="yes" name="inserted"/>
      <point x="121" y="-38"/>
      <point x="126" y="3"/>
      <point x="126" y="35" type="qcurve" smooth="yes"/>
      <point x="126" y="164" type="line" smooth="yes"/>
      <point x="126" y="194"/>
      <point x="139" y="239"/>
      <point x="149.0" y="255.0" type="qcurve" smooth="yes" name="inserted"/>
      <point x="159" y="271"/>
      <point x="182" y="292"/>
      <point x="191" y="298" type="qcurve"/>
      <point x="181" y="304"/>
      <point x="158" y="325"/>
      <point x="148.5" y="341.0" type="qcurve" smooth="yes" name="inserted"/>
      <point x="139" y="357"/>
      <point x="126" y="402"/>
      <point x="126" y="433" type="qcurve" smooth="yes"/>
      <point x="126" y="562" type="line" smooth="yes"/>
      <point x="126" y="594"/>
      <point x="121" y="634"/>
      <point x="115.0" y="645.5" type="qcurve" smooth="yes" name="inserted"/>
      <point x="109" y="657"/>
      <point x="89" y="665"/>
      <point x="74" y="665" type="qcurve" smooth="yes"/>
      <point x="30" y="665" type="line"/>
      <point x="30" y="746" type="line"/>
      <point x="93" y="746" type="line" smooth="yes"/>
      <point x="116" y="746"/>
      <point x="159" y="744"/>
      <point x="175.5" y="733.5" type="qcurve" smooth="yes" name="inserted"/>
      <point x="192" y="723"/>
      <point x="211" y="675"/>
      <point x="211" y="628" type="qcurve" smooth="yes"/>
      <point x="211" y="472" type="line" smooth="yes"/>
      <point x="211" y="452"/>
      <point x="218" y="405"/>
      <point x="226.5" y="385.0" type="qcurve" smooth="yes" name="inserted"/>
      <point x="235" y="365"/>
      <point x="266" y="338"/>
      <point x="290" y="337" type="qcurve"/>
      <point x="290" y="256" type="line"/>
      <point x="266" y="255"/>
      <point x="235" y="228"/>
      <point x="226.5" y="208.0" type="qcurve" smooth="yes" name="inserted"/>
      <point x="218" y="188"/>
      <point x="211" y="141"/>
      <point x="211" y="121" type="qcurve" smooth="yes"/>
      <point x="211" y="-31" type="line" smooth="yes"/>
      <point x="211" y="-78"/>
      <point x="192" y="-126"/>
      <point x="176.0" y="-136.5" type="qcurve" smooth="yes" name="inserted"/>
      <point x="160" y="-147"/>
      <point x="117" y="-149"/>
    </contour>
  </outline>
</glyph>
<glyph name="asciitilde" format="2">
  <advance width="489"/>
  <unicode hex="007E"/>
  <outline>
    <contour>
      <point x="407" y="472" type="qcurve" smooth="yes" name="inserted"/>
      <point x="394" y="461"/>
      <point x="363" y="449"/>
      <point x="348" y="449" type="qcurve" smooth="yes"/>
      <point x="325" y="449"/>
      <point x="287" y="466"/>
      <point x="271" y="481" type="qcurve" smooth="yes"/>
      <point x="255" y="496"/>
      <point x="233" y="507"/>
      <point x="219" y="507" type="qcurve" smooth="yes"/>
      <point x="210" y="507"/>
      <point x="187" y="500"/>
      <point x="178" y="490" type="qcurve" smooth="yes"/>
      <point x="173" y="485"/>
      <point x="167" y="471"/>
      <point x="166" y="461" type="qcurve"/>
      <point x="121" y="464" type="line"/>
      <point x="122" y="484"/>
      <point x="140" y="517"/>
      <point x="153" y="528" type="qcurve" smooth="yes" name="inserted"/>
      <point x="166" y="540"/>
      <point x="197" y="552"/>
      <point x="212" y="552" type="qcurve" smooth="yes"/>
      <point x="235" y="552"/>
      <point x="273" y="535"/>
      <point x="289" y="519" type="qcurve" smooth="yes"/>
      <point x="305" y="504"/>
      <point x="327" y="493"/>
      <point x="341" y="493" type="qcurve" smooth="yes"/>
      <point x="348" y="493"/>
      <point x="365" y="497"/>
      <point x="373" y="502" type="qcurve" smooth="yes" name="inserted"/>
      <point x="381" y="507"/>
      <point x="392" y="525"/>
      <point x="394" y="539" type="qcurve"/>
      <point x="439" y="536" type="line"/>
      <point x="438" y="516"/>
      <point x="420" y="483"/>
    </contour>
  </outline>
</glyph>
<glyph name="cent" format="2">
  <advance width="385"/>
  <unicode hex="00A2"/>
  <outline>
    <contour>
      <point x="263" y="-68" type="line"/>
      <point x="179" y="-68" type="line"/>
      <point x="179" y="0" type="line"/>
      <point x="148" y="9"/>
      <point x="95" y="45"/>
      <point x="76" y="69.5" type="qcurve" smooth="yes" name="inserted"/>
      <point x="57" y="94"/>
      <point x="36" y="155"/>
      <point x="36" y="188" type="qcurve" smooth="yes"/>
      <point x="36" y="221"/>
      <point x="57" y="281"/>
      <point x="76" y="306" type="qcurve" smooth="yes" name="inserted"/>
      <point x="95" y="331"/>
      <point x="148" y="367"/>
      <point x="179" y="376" type="qcurve"/>
      <point x="179" y="438" type="line"/>
      <point x="263" y="438" type="line"/>
      <point x="263" y="382" type="line"/>
      <point x="292" y="379"/>
      <point x="341" y="357"/>
      <point x="362" y="341" type="qcurve"/>
      <point x="362" y="225" type="line"/>
      <point x="288" y="225" type="line"/>
      <point x="288" y="292" type="line"/>
      <point x="282" y="295"/>
      <point x="270" y="298"/>
      <point x="263" y="300" type="qcurve"/>
      <point x="263" y="74" type="line"/>
      <point x="276" y="77"/>
      <point x="301" y="89"/>
      <point x="311" y="97" type="qcurve"/>
      <point x="361" y="34" type="line"/>
      <point x="339" y="17"/>
      <point x="293" y="-2"/>
      <point x="263" y="-7" type="qcurve"/>
    </contour>
    <contour>
      <point x="119" y="188" type="qcurve" smooth="yes"/>
      <point x="119" y="165"/>
      <point x="134" y="124"/>
      <point x="148" y="109" type="qcurve" smooth="yes"/>
      <point x="154" y="102"/>
      <point x="170" y="90"/>
      <point x="179" y="85" type="qcurve"/>
      <point x="179" y="289" type="line"/>
      <point x="165" y="282"/>
      <point x="143" y="262"/>
      <point x="135" y="249" type="qcurve" smooth="yes"/>
      <point x="128" y="237"/>
      <point x="119" y="205"/>
    </contour>
  </outline>
</glyph>
<glyph name="sterling" format="1">
  <advance width="574"/>
  <unicode hex="00A3"/>
  <outline>
    <contour>
      <point x="547" y="0" type="line"/>
      <point x="29" y="0" type="line"/>
      <point x="29" y="81" type="line"/>
      <point x="73" y="81" type="line" smooth="yes"/>
      <point x="89" y="81"/>
      <point x="109" y="88"/>
      <point x="115.0" y="99.0" type="qcurve" smooth="yes" name="inserted"/>
      <point x="121" y="110"/>
      <point x="125" y="149"/>
      <point x="125" y="181" type="qcurve" smooth="yes"/>
      <point x="125" y="273" type="line"/>
      <point x="60" y="273" type="line"/>
      <point x="60" y="354" type="line"/>
      <point x="125" y="354" type="line"/>
      <point x="125" y="500" type="line" smooth="yes"/>
      <point x="125" y="569"/>
      <point x="241" y="634"/>
      <point x="346" y="634" type="qcurve" smooth="yes"/>
      <point x="413" y="634"/>
      <point x="493" y="574"/>
      <point x="513" y="534" type="qcurve"/>
      <point x="450" y="497" type="line"/>
      <point x="445" y="504"/>
      <point x="432" y="523"/>
      <point x="421.0" y="532.0" type="qcurve" smooth="yes" name="inserted"/>
      <point x="410" y="541"/>
      <point x="374" y="553"/>
      <point x="346" y="553" type="qcurve" smooth="yes"/>
      <point x="278" y="553"/>
      <point x="209" y="525"/>
      <point x="209" y="478" type="qcurve" smooth="yes"/>
      <point x="209" y="354" type="line"/>
      <point x="326" y="354" type="line"/>
      <point x="326" y="273" type="line"/>
      <point x="209" y="273" type="line"/>
      <point x="209" y="163" type="line" smooth="yes"/>
      <point x="209" y="134"/>
      <point x="204" y="95"/>
      <point x="188" y="81" type="qcurve"/>
      <point x="463" y="81" type="line"/>
      <point x="463" y="177" type="line"/>
      <point x="484" y="177"/>
      <point x="526" y="178"/>
      <point x="547" y="178" type="qcurve"/>
    </contour>
  </outline>
</glyph>
<glyph name="currency" format="2">
  <advance width="500"/>
  <unicode hex="00A4"/>
  <outline>
    <contour>
      <point x="171" y="360" type="qcurve" smooth="yes"/>
      <point x="171" y="343"/>
      <point x="184" y="313"/>
      <point x="196" y="303" type="qcurve" smooth="yes"/>
      <point x="206" y="294"/>
      <point x="233" y="283"/>
      <point x="248" y="283" type="qcurve" smooth="yes"/>
      <point x="264" y="283"/>
      <point x="293" y="295"/>
      <point x="304" y="306" type="qcurve" smooth="yes" name="inserted"/>
      <point x="314" y="316"/>
      <point x="326" y="344"/>
      <point x="326" y="360" type="qcurve" smooth="yes"/>
      <point x="326" y="377"/>
      <point x="312" y="408"/>
      <point x="299" y="419" type="qcurve" smooth="yes"/>
      <point x="289" y="428"/>
      <point x="263" y="438"/>
      <point x="248" y="438" type="qcurve" smooth="yes"/>
      <point x="232" y="438"/>
      <point x="204" y="426"/>
      <point x="194" y="416" type="qcurve" smooth="yes" name="inserted"/>
      <point x="183" y="405"/>
      <point x="171" y="376"/>
    </contour>
    <contour>
      <point x="169" y="221" type="qcurve"/>
      <point x="144" y="196" type="line"/>
      <point x="85" y="255" type="line"/>
      <point x="109" y="279" type="line"/>
      <point x="98" y="298" name="inserted"/>
      <point x="87" y="339"/>
      <point x="87" y="361" type="qcurve" smooth="yes"/>
      <point x="87" y="383"/>
      <point x="98" y="422"/>
      <point x="108" y="439" type="qcurve"/>
      <point x="85" y="463" type="line"/>
      <point x="144" y="522" type="line"/>
      <point x="168" y="498" type="line"/>
      <point x="187" y="507"/>
      <point x="225" y="519"/>
      <point x="247" y="519" type="qcurve" smooth="yes"/>
      <point x="269" y="519"/>
      <point x="309" y="508"/>
      <point x="327" y="498" type="qcurve"/>
      <point x="351" y="522" type="line"/>
      <point x="410" y="463" type="line"/>
      <point x="388" y="441" type="line"/>
      <point x="399" y="422" name="inserted"/>
      <point x="410" y="382"/>
      <point x="410" y="361" type="qcurve" smooth="yes"/>
      <point x="410" y="339" name="inserted"/>
      <point x="398.5" y="298.5"/>
      <point x="387" y="280" type="qcurve"/>
      <point x="411" y="256" type="line"/>
      <point x="352" y="197" type="line"/>
      <point x="326" y="222" type="line"/>
      <point x="308.5" y="212" name="inserted"/>
      <point x="269" y="202"/>
      <point x="247" y="202" type="qcurve" smooth="yes"/>
      <point x="226" y="202" name="inserted"/>
      <point x="187" y="211.5"/>
    </contour>
  </outline>
</glyph>
<glyph name="yen" format="1">
  <advance width="638"/>
  <unicode hex="00A5"/>
  <outline>
    <contour>
      <point x="497" y="0" type="line"/>
      <point x="255" y="0" type="line"/>
      <point x="255" y="79" type="line"/>
      <point x="322" y="79" type="line"/>
      <point x="322" y="100" type="line"/>
      <point x="207" y="100" type="line"/>
      <point x="207" y="181" type="line"/>
      <point x="322" y="181" type="line"/>
      <point x="322" y="263" type="line"/>
      <point x="207" y="263" type="line"/>
      <point x="207" y="344" type="line"/>
      <point x="278" y="344" type="line"/>
      <point x="114" y="621" type="line"/>
      <point x="13" y="621" type="line"/>
      <point x="13" y="700" type="line"/>
      <point x="255" y="700" type="line"/>
      <point x="255" y="621" type="line"/>
      <point x="215" y="621" type="line"/>
      <point x="252" y="560"/>
      <point x="324" y="438"/>
      <point x="361" y="377" type="qcurve"/>
      <point x="372" y="346" type="line"/>
      <point x="373" y="346" type="line"/>
      <point x="385" y="377" type="line"/>
      <point x="529" y="621" type="line"/>
      <point x="490" y="621" type="line"/>
      <point x="490" y="700" type="line"/>
      <point x="732" y="700" type="line"/>
      <point x="732" y="621" type="line"/>
      <point x="631" y="621" type="line"/>
      <point x="590" y="551"/>
      <point x="510" y="413"/>
      <point x="468" y="344" type="qcurve"/>
      <point x="540" y="344" type="line"/>
      <point x="540" y="263" type="line"/>
      <point x="424" y="263" type="line"/>
      <point x="424" y="236" type="line"/>
      <point x="424" y="181" type="line"/>
      <point x="541" y="181" type="line"/>
      <point x="541" y="100" type="line"/>
      <point x="424" y="100" type="line"/>
      <point x="424" y="79" type="line"/>
      <point x="497" y="79" type="line"/>
    </contour>
  </outline>
</glyph>
<glyph name="brokenbar" format="1">
  <advance width="215"/>
  <unicode hex="00A6"/>
  <outline>
    <contour>
      <point x="153" y="-233" type="line"/>
      <point x="69" y="-233" type="line"/>
      <point x="69" y="117" type="line"/>
      <point x="153" y="117" type="line"/>
    </contour>
    <contour>
      <point x="153" y="350" type="line"/>
      <point x="69" y="350" type="line"/>
      <point x="69" y="700" type="line"/>
      <point x="153" y="700" type="line"/>
    </contour>
  </outline>
</glyph>
<glyph name="section" format="1">
  <advance width="500"/>
  <unicode hex="00A7"/>
  <outline>
    <contour>
      <point x="194" y="360" type="qcurve" smooth="yes"/>
      <point x="194" y="333"/>
      <point x="231" y="296"/>
      <point x="258" y="296" type="qcurve" smooth="yes"/>
      <point x="284" y="296"/>
      <point x="322" y="333"/>
      <point x="322" y="360" type="qcurve" smooth="yes"/>
      <point x="322" y="386"/>
      <point x="285" y="424"/>
      <point x="258" y="424" type="qcurve" smooth="yes"/>
      <point x="232" y="424"/>
      <point x="194" y="387"/>
    </contour>
    <contour>
      <point x="305.0" y="-5.5" type="qcurve" smooth="yes" name="inserted"/>
      <point x="287" y="-18"/>
      <point x="246" y="-39"/>
      <point x="228" y="-50" type="qcurve"/>
      <point x="217" y="-33"/>
      <point x="197" y="3"/>
      <point x="186" y="20" type="qcurve"/>
      <point x="225" y="43" type="line" smooth="yes"/>
      <point x="236" y="50"/>
      <point x="249" y="64"/>
      <point x="249" y="75" type="qcurve" smooth="yes"/>
      <point x="249.0" y="85.5" name="inserted"/>
      <point x="233.0" y="122.0"/>
      <point x="217" y="148" type="qcurve" smooth="yes"/>
      <point x="189" y="192"/>
      <point x="158" y="244"/>
      <point x="150.0" y="257.5" type="qcurve" smooth="yes" name="inserted"/>
      <point x="142" y="271"/>
      <point x="138" y="280"/>
      <point x="138" y="282" type="qcurve"/>
      <point x="127.5" y="299.0" name="inserted"/>
      <point x="117.0" y="337.0"/>
      <point x="117" y="358" type="qcurve" smooth="yes"/>
      <point x="117" y="383"/>
      <point x="133" y="432"/>
      <point x="148.5" y="451.5" type="qcurve" smooth="yes" name="inserted"/>
      <point x="164" y="471"/>
      <point x="210" y="497"/>
      <point x="240" y="500" type="qcurve"/>
      <point x="226" y="521"/>
      <point x="202" y="564"/>
      <point x="192.5" y="584.5" type="qcurve" smooth="yes" name="inserted"/>
      <point x="183" y="605"/>
      <point x="172" y="640"/>
      <point x="172" y="652" type="qcurve" smooth="yes"/>
      <point x="172" y="673"/>
      <point x="196" y="704"/>
      <point x="213.5" y="716.5" type="qcurve" smooth="yes" name="inserted"/>
      <point x="231" y="729"/>
      <point x="273" y="751"/>
      <point x="291" y="762" type="qcurve"/>
      <point x="302" y="745"/>
      <point x="322" y="709"/>
      <point x="333" y="692" type="qcurve"/>
      <point x="294" y="670" type="line" smooth="yes"/>
      <point x="281" y="662"/>
      <point x="268" y="646"/>
      <point x="268" y="635" type="qcurve"/>
      <point x="269" y="625"/>
      <point x="279" y="599"/>
      <point x="290" y="580" type="qcurve" smooth="yes"/>
      <point x="380" y="431" type="line" smooth="yes"/>
      <point x="390.0" y="414.5" name="inserted"/>
      <point x="400.0" y="377.5"/>
      <point x="400" y="357" type="qcurve" smooth="yes"/>
      <point x="400" y="331"/>
      <point x="383" y="284"/>
      <point x="367.0" y="264.5" type="qcurve" smooth="yes" name="inserted"/>
      <point x="351" y="245"/>
      <point x="305" y="218"/>
      <point x="275" y="214" type="qcurve"/>
      <point x="304" y="169"/>
      <point x="346" y="85"/>
      <point x="346" y="60" type="qcurve" smooth="yes"/>
      <point x="346" y="39"/>
      <point x="323" y="7"/>
    </contour>
  </outline>
</glyph>
<glyph name="dieresis" format="1">
  <advance width="370"/>
  <unicode hex="00A8"/>
  <outline>
    <contour>
      <point x="318" y="520" type="qcurve" smooth="yes"/>
      <point x="318" y="497"/>
      <point x="286" y="468"/>
      <point x="267" y="468" type="qcurve" smooth="yes"/>
      <point x="247" y="468"/>
      <point x="215" y="497"/>
      <point x="215" y="520" type="qcurve" smooth="yes"/>
      <point x="215" y="543"/>
      <point x="247" y="573"/>
      <point x="267" y="573" type="qcurve" smooth="yes"/>
      <point x="286" y="573"/>
      <point x="318" y="543"/>
    </contour>
    <contour>
      <point x="152" y="520" type="qcurve" smooth="yes"/>
      <point x="152" y="497"/>
      <point x="120" y="468"/>
      <point x="101" y="468" type="qcurve" smooth="yes"/>
      <point x="81" y="468"/>
      <point x="49" y="497"/>
      <point x="49" y="520" type="qcurve" smooth="yes"/>
      <point x="49" y="543"/>
      <point x="81" y="573"/>
      <point x="101" y="573" type="qcurve" smooth="yes"/>
      <point x="120" y="573"/>
      <point x="152" y="543"/>
    </contour>
  </outline>
</glyph>
<glyph name="copyright" format="2">
  <advance width="793"/>
  <unicode hex="00A9"/>
  <outline>
    <contour>
      <point x="241.0" y="212.0" type="qcurve" smooth="yes" name="inserted"/>
      <point x="271" y="182"/>
      <point x="353" y="148"/>
      <point x="400" y="148" type="qcurve" smooth="yes"/>
      <point x="447" y="148"/>
      <point x="529" y="182"/>
      <point x="559.0" y="212.0" type="qcurve" smooth="yes" name="inserted"/>
      <point x="589" y="242"/>
      <point x="623" y="324"/>
      <point x="623" y="372" type="qcurve" smooth="yes"/>
      <point x="623" y="421"/>
      <point x="589" y="503"/>
      <point x="559.0" y="533.0" type="qcurve" smooth="yes" name="inserted"/>
      <point x="529" y="563"/>
      <point x="447" y="597"/>
      <point x="400" y="597" type="qcurve" smooth="yes"/>
      <point x="353" y="597"/>
      <point x="271" y="563"/>
      <point x="241.0" y="533.0" type="qcurve" smooth="yes" name="inserted"/>
      <point x="211" y="503"/>
      <point x="177" y="421"/>
      <point x="177" y="372" type="qcurve" smooth="yes"/>
      <point x="177" y="324"/>
      <point x="211" y="242"/>
    </contour>
    <contour>
      <point x="585.5" y="186.0" type="qcurve" smooth="yes" name="inserted"/>
      <point x="550" y="151"/>
      <point x="454" y="111"/>
      <point x="400" y="111" type="qcurve" smooth="yes"/>
      <point x="346" y="111"/>
      <point x="250" y="151"/>
      <point x="214.5" y="186.0" type="qcurve" smooth="yes" name="inserted"/>
      <point x="179" y="221"/>
      <point x="137" y="316"/>
      <point x="137" y="372" type="qcurve" smooth="yes"/>
      <point x="137" y="429"/>
      <point x="179" y="525"/>
      <point x="214.5" y="560.0" type="qcurve" smooth="yes" name="inserted"/>
      <point x="250" y="595"/>
      <point x="346" y="634"/>
      <point x="400" y="634" type="qcurve" smooth="yes"/>
      <point x="454" y="634"/>
      <point x="550" y="595"/>
      <point x="585.5" y="560.0" type="qcurve" smooth="yes" name="inserted"/>
      <point x="621" y="525"/>
      <point x="663" y="429"/>
      <point x="663" y="372" type="qcurve" smooth="yes"/>
      <point x="663" y="316"/>
      <point x="621" y="221"/>
    </contour>
    <contour>
      <point x="500" y="236" type="line"/>
      <point x="482" y="225"/>
      <point x="441" y="213"/>
      <point x="418" y="213" type="qcurve" smooth="yes"/>
      <point x="385" y="213"/>
      <point x="326" y="239"/>
      <point x="304.0" y="261.0" type="qcurve" smooth="yes" name="inserted"/>
      <point x="282" y="283"/>
      <point x="257" y="342"/>
      <point x="257" y="375" type="qcurve" smooth="yes"/>
      <point x="257" y="409"/>
      <point x="282" y="468"/>
      <point x="304.0" y="490.0" type="qcurve" smooth="yes" name="inserted"/>
      <point x="326" y="512"/>
      <point x="385" y="537"/>
      <point x="418" y="537" type="qcurve" smooth="yes"/>
      <point x="440.0" y="537.0" name="inserted"/>
      <point x="481.5" y="526.0"/>
      <point x="501" y="515" type="qcurve"/>
      <point x="501" y="464" type="line"/>
      <point x="465" y="464" type="line"/>
      <point x="465" y="492" type="line"/>
      <point x="453.5" y="497.0" name="inserted"/>
      <point x="430.0" y="502.0"/>
      <point x="418" y="502" type="qcurve" smooth="yes"/>
      <point x="392" y="502"/>
      <point x="347" y="482"/>
      <point x="330.5" y="464.5" type="qcurve" smooth="yes" name="inserted"/>
      <point x="314" y="447"/>
      <point x="294" y="401"/>
      <point x="294" y="375" type="qcurve" smooth="yes"/>
      <point x="294" y="349"/>
      <point x="314" y="303"/>
      <point x="330.5" y="286.0" type="qcurve" smooth="yes" name="inserted"/>
      <point x="347" y="269"/>
      <point x="392" y="249"/>
      <point x="418" y="249" type="qcurve" smooth="yes"/>
      <point x="435.0" y="249.0" name="inserted"/>
      <point x="466.0" y="257.5"/>
      <point x="480" y="266" type="qcurve"/>
    </contour>
  </outline>
</glyph>
<glyph name="ordfeminine" format="1">
  <advance width="585"/>
  <unicode hex="00AA"/>
  <outline>
    <contour>
      <point x="294.0" y="315.0" type="qcurve" smooth="yes" name="inserted"/>
      <point x="282" y="309"/>
      <point x="249" y="300"/>
      <point x="228" y="300" type="qcurve" smooth="yes"/>
      <point x="198" y="300"/>
      <point x="145" y="322"/>
      <point x="125.5" y="341.5" type="qcurve" smooth="yes" name="inserted"/>
      <point x="106" y="361"/>
      <point x="83" y="412"/>
      <point x="83" y="441" type="qcurve" smooth="yes"/>
      <point x="83" y="469"/>
      <point x="106" y="521"/>
      <point x="125.5" y="540.5" type="qcurve" smooth="yes" name="inserted"/>
      <point x="145" y="560"/>
      <point x="198" y="583"/>
      <point x="228" y="583" type="qcurve" smooth="yes"/>
      <point x="248" y="583"/>
      <point x="281" y="571"/>
      <point x="293.0" y="564.5" type="qcurve" smooth="yes" name="inserted"/>
      <point x="305" y="558"/>
      <point x="320" y="545"/>
      <point x="320" y="543" type="qcurve"/>
      <point x="320" y="551"/>
      <point x="323" y="568"/>
      <point x="323" y="576" type="qcurve"/>
      <point x="373" y="576" type="line"/>
      <point x="373" y="363" type="line"/>
      <point x="427" y="363" type="line"/>
      <point x="427" y="306" type="line"/>
      <point x="320" y="306" type="line"/>
      <point x="320" y="320" type="line"/>
      <point x="320" y="335" type="line"/>
      <point x="319" y="333"/>
      <point x="306" y="321"/>
    </contour>
    <contour>
      <point x="144" y="442" type="qcurve" smooth="yes"/>
      <point x="144" y="406"/>
      <point x="191" y="358"/>
      <point x="228" y="358" type="qcurve" smooth="yes"/>
      <point x="266" y="358"/>
      <point x="313" y="406"/>
      <point x="313" y="442" type="qcurve" smooth="yes"/>
      <point x="313" y="478"/>
      <point x="266" y="525"/>
      <point x="228" y="525" type="qcurve" smooth="yes"/>
      <point x="191" y="525"/>
      <point x="144" y="478"/>
    </contour>
  </outline>
</glyph>
<glyph name="guillemotleft" format="2">
  <advance width="601"/>
  <unicode hex="00AB"/>
  <outline>
    <contour>
      <point x="459" y="172" type="qcurve"/>
      <point x="459" y="77" type="line"/>
      <point x="288" y="239" type="line"/>
      <point x="331" y="280"/>
      <point x="416" y="359"/>
      <point x="459" y="400" type="qcurve"/>
      <point x="459" y="306" type="line"/>
      <point x="442" y="289"/>
      <point x="411" y="256"/>
      <point x="394" y="239" type="qcurve"/>
      <point x="411" y="222"/>
      <point x="442" y="189"/>
    </contour>
    <contour>
      <point x="288" y="172" type="qcurve"/>
      <point x="288" y="77" type="line"/>
      <point x="117" y="239" type="line"/>
      <point x="160" y="280"/>
      <point x="245" y="359"/>
      <point x="288" y="400" type="qcurve"/>
      <point x="288" y="305" type="line"/>
      <point x="271" y="288"/>
      <point x="240" y="256"/>
      <point x="223" y="239" type="qcurve"/>
      <point x="240" y="222"/>
      <point x="271" y="189"/>
    </contour>
  </outline>
</glyph>
<glyph name="logicalnot" format="2">
  <advance width="559"/>
  <unicode hex="00AC"/>
  <outline>
    <contour>
      <point x="460" y="148" type="line"/>
      <point x="376" y="148" type="line"/>
      <point x="376" y="188" type="line"/>
      <point x="100" y="188" type="line"/>
      <point x="100" y="248" type="line"/>
      <point x="460" y="248" type="line"/>
    </contour>
  </outline>
</glyph>
<glyph name="registered" format="2">
  <advance width="801"/>
  <unicode hex="00AE"/>
  <outline>
    <contour>
      <point x="241.0" y="212.0" type="qcurve" smooth="yes" name="inserted"/>
      <point x="271" y="182"/>
      <point x="353" y="148"/>
      <point x="400" y="148" type="qcurve" smooth="yes"/>
      <point x="447" y="148"/>
      <point x="529" y="182"/>
      <point x="559.0" y="212.0" type="qcurve" smooth="yes" name="inserted"/>
      <point x="589" y="242"/>
      <point x="623" y="324"/>
      <point x="623" y="372" type="qcurve" smooth="yes"/>
      <point x="623" y="421"/>
      <point x="589" y="503"/>
      <point x="559.0" y="533.0" type="qcurve" smooth="yes" name="inserted"/>
      <point x="529" y="563"/>
      <point x="447" y="597"/>
      <point x="400" y="597" type="qcurve" smooth="yes"/>
      <point x="353" y="597"/>
      <point x="271" y="563"/>
      <point x="241.0" y="533.0" type="qcurve" smooth="yes" name="inserted"/>
      <point x="211" y="503"/>
      <point x="177" y="421"/>
      <point x="177" y="372" type="qcurve" smooth="yes"/>
      <point x="177" y="324"/>
      <point x="211" y="242"/>
    </contour>
    <contour>
      <point x="585.5" y="186.0" type="qcurve" smooth="yes" name="inserted"/>
      <point x="550" y="151"/>
      <point x="454" y="111"/>
      <point x="400" y="111" type="qcurve" smooth="yes"/>
      <point x="346" y="111"/>
      <point x="250" y="151"/>
      <point x="214.5" y="186.0" type="qcurve" smooth="yes" name="inserted"/>
      <point x="179" y="221"/>
      <point x="137" y="316"/>
      <point x="137" y="372" type="qcurve" smooth="yes"/>
      <point x="137" y="429"/>
      <point x="179" y="525"/>
      <point x="214.5" y="560.0" type="qcurve" smooth="yes" name="inserted"/>
      <point x="250" y="595"/>
      <point x="346" y="634"/>
      <point x="400" y="634" type="qcurve" smooth="yes"/>
      <point x="454" y="634"/>
      <point x="550" y="595"/>
      <point x="585.5" y="560.0" type="qcurve" smooth="yes" name="inserted"/>
      <point x="621" y="525"/>
      <point x="663" y="429"/>
      <point x="663" y="372" type="qcurve" smooth="yes"/>
      <point x="663" y="316"/>
      <point x="621" y="221"/>
    </contour>
    <contour>
      <point x="414" y="210" type="line"/>
      <point x="300" y="210" type="line"/>
      <point x="300" y="247" type="line"/>
      <point x="321" y="247" type="line"/>
      <point x="321" y="504" type="line"/>
      <point x="300" y="504" type="line"/>
      <point x="300" y="541" type="line"/>
      <point x="399" y="541" type="line" smooth="yes"/>
      <point x="415" y="541"/>
      <point x="454" y="531"/>
      <point x="472" y="520.0" type="qcurve" smooth="yes" name="inserted"/>
      <point x="489" y="509"/>
      <point x="512" y="475"/>
      <point x="512" y="451" type="qcurve" smooth="yes"/>
      <point x="512" y="416"/>
      <point x="476" y="368"/>
      <point x="442" y="360" type="qcurve"/>
      <point x="495" y="247" type="line"/>
      <point x="539" y="247" type="line"/>
      <point x="539" y="210" type="line"/>
      <point x="470" y="210" type="line"/>
      <point x="401" y="358" type="line"/>
      <point x="394" y="358.0"/>
      <point x="387" y="358.0"/>
      <point x="380" y="358" type="qcurve"/>
      <point x="360" y="358" type="line"/>
      <point x="360" y="247" type="line"/>
      <point x="414" y="247" type="line"/>
    </contour>
    <contour>
      <point x="360" y="504" type="line"/>
      <point x="360" y="395" type="line"/>
      <point x="402" y="395" type="line" smooth="yes"/>
      <point x="423" y="395"/>
      <point x="450" y="406"/>
      <point x="458.0" y="414.0" type="qcurve" smooth="yes" name="inserted"/>
      <point x="466" y="422"/>
      <point x="472" y="442"/>
      <point x="472" y="451" type="qcurve" smooth="yes"/>
      <point x="472" y="472"/>
      <point x="432" y="504"/>
      <point x="402" y="504" type="qcurve" smooth="yes"/>
    </contour>
  </outline>
</glyph>
<glyph name="macron" format="2">
  <advance width="399"/>
  <unicode hex="00AF"/>
  <outline>
    <contour>
      <point x="315" y="478" type="line"/>
      <point x="85" y="478" type="line"/>
      <point x="85" y="531" type="line"/>
      <point x="315" y="531" type="line"/>
    </contour>
  </outline>
</glyph>
<glyph name="degree" format="2">
  <advance width="282"/>
  <unicode hex="00B0"/>
  <outline>
    <contour>
      <point x="90" y="559" type="qcurve" smooth="yes"/>
      <point x="90" y="548"/>
      <point x="98" y="530"/>
      <point x="105" y="524" type="qcurve" smooth="yes"/>
      <point x="112" y="518"/>
      <point x="129" y="511"/>
      <point x="138" y="511" type="qcurve" smooth="yes"/>
      <point x="147" y="511"/>
      <point x="163" y="517"/>
      <point x="170" y="523" type="qcurve" smooth="yes"/>
      <point x="178" y="529"/>
      <point x="187" y="548"/>
      <point x="187" y="559" type="qcurve" smooth="yes"/>
      <point x="187" y="569"/>
      <point x="179" y="587"/>
      <point x="172" y="594" type="qcurve" smooth="yes"/>
      <point x="165" y="601"/>
      <point x="148" y="608"/>
      <point x="138" y="608" type="qcurve" smooth="yes"/>
      <point x="128" y="608"/>
      <point x="110" y="600"/>
      <point x="104" y="593" type="qcurve" smooth="yes"/>
      <point x="97" y="587"/>
      <point x="90" y="569"/>
    </contour>
    <contour>
      <point x="238" y="560" type="qcurve" smooth="yes"/>
      <point x="238" y="539"/>
      <point x="222" y="502"/>
      <point x="208.5" y="488.5" type="qcurve" smooth="yes" name="inserted"/>
      <point x="195" y="475"/>
      <point x="159" y="460"/>
      <point x="138" y="460" type="qcurve" smooth="yes"/>
      <point x="117" y="460"/>
      <point x="79" y="475"/>
      <point x="65.5" y="488.5" type="qcurve" smooth="yes" name="inserted"/>
      <point x="52" y="502"/>
      <point x="36" y="539"/>
      <point x="36" y="560" type="qcurve" smooth="yes"/>
      <point x="36" y="581"/>
      <point x="52" y="617"/>
      <point x="65.5" y="630.5" type="qcurve" smooth="yes" name="inserted"/>
      <point x="79" y="644"/>
      <point x="117" y="660"/>
      <point x="138" y="660" type="qcurve" smooth="yes"/>
      <point x="159" y="660"/>
      <point x="195" y="644"/>
      <point x="208.5" y="630.5" type="qcurve" smooth="yes" name="inserted"/>
      <point x="222" y="617"/>
      <point x="238" y="581"/>
    </contour>
  </outline>
</glyph>
<glyph name="plusminus" format="2">
  <advance width="524"/>
  <unicode hex="00B1"/>
  <outline>
    <contour>
      <point x="308" y="211" type="line"/>
      <point x="224" y="211" type="line"/>
      <point x="224" y="350" type="line"/>
      <point x="86" y="350" type="line"/>
      <point x="86" y="431" type="line"/>
      <point x="224" y="431" type="line"/>
      <point x="224" y="571" type="line"/>
      <point x="308" y="571" type="line"/>
      <point x="308" y="431" type="line"/>
      <point x="446" y="431" type="line"/>
      <point x="446" y="350" type="line"/>
      <point x="308" y="350" type="line"/>
    </contour>
    <contour>
      <point x="446" y="100" type="line"/>
      <point x="86" y="100" type="line"/>
      <point x="86" y="181" type="line"/>
      <point x="446" y="181" type="line"/>
    </contour>
  </outline>
</glyph>
<glyph name="twosuperior" format="2">
  <advance width="398"/>
  <unicode hex="00B2"/>
  <outline>
    <contour>
      <point x="323" y="375" type="line"/>
      <point x="104" y="375" type="line"/>
      <point x="135" y="406"/>
      <point x="192" y="463"/>
      <point x="214" y="490" type="qcurve" smooth="yes" name="inserted"/>
      <point x="236" y="517"/>
      <point x="263" y="568"/>
      <point x="263" y="591" type="qcurve" smooth="yes"/>
      <point x="263" y="610"/>
      <point x="251" y="635"/>
      <point x="242" y="643.5" type="qcurve" smooth="yes" name="inserted"/>
      <point x="233" y="652"/>
      <point x="212" y="660"/>
      <point x="203" y="660" type="qcurve" smooth="yes"/>
      <point x="184" y="660"/>
      <point x="160" y="647"/>
      <point x="153.5" y="637.5" type="qcurve" smooth="yes" name="inserted"/>
      <point x="147" y="628"/>
      <point x="141" y="608"/>
      <point x="141" y="600" type="qcurve" smooth="yes"/>
      <point x="141" y="583"/>
      <point x="151" y="558"/>
      <point x="160" y="548" type="qcurve"/>
      <point x="136" y="523" type="line"/>
      <point x="118.40319" y="534.73121"/>
      <point x="100" y="579.531"/>
      <point x="100" y="600" type="qcurve" smooth="yes"/>
      <point x="100" y="619"/>
      <point x="113" y="656"/>
      <point x="126" y="670" type="qcurve" smooth="yes" name="inserted"/>
      <point x="139" y="684"/>
      <point x="178" y="700"/>
      <point x="203" y="700" type="qcurve" smooth="yes"/>
      <point x="226" y="700"/>
      <point x="263" y="683"/>
      <point x="276.5" y="669" type="qcurve" smooth="yes" name="inserted"/>
      <point x="290" y="655"/>
      <point x="304" y="618"/>
      <point x="304" y="597" type="qcurve" smooth="yes"/>
      <point x="304" y="573"/>
      <point x="287" y="527"/>
      <point x="273" y="504" type="qcurve" smooth="yes" name="inserted"/>
      <point x="259" y="481"/>
      <point x="223" y="437"/>
      <point x="203" y="415" type="qcurve"/>
      <point x="284" y="415" type="line"/>
      <point x="284" y="461" type="line"/>
      <point x="323" y="461" type="line"/>
    </contour>
  </outline>
</glyph>
<glyph name="threesuperior" format="2">
  <advance width="419"/>
  <unicode hex="00B3"/>
  <outline>
    <contour>
      <point x="232" y="407.5" type="qcurve" smooth="yes" name="inserted"/>
      <point x="217" y="393"/>
      <point x="178" y="376"/>
      <point x="156" y="376" type="qcurve" smooth="yes"/>
      <point x="132" y="376"/>
      <point x="92" y="395"/>
      <point x="77" y="411" type="qcurve"/>
      <point x="107" y="439" type="line"/>
      <point x="116" y="428"/>
      <point x="141" y="416"/>
      <point x="156" y="416" type="qcurve" smooth="yes"/>
      <point x="170" y="416"/>
      <point x="194" y="427"/>
      <point x="203" y="436" type="qcurve" smooth="yes" name="inserted"/>
      <point x="212" y="445"/>
      <point x="223" y="469"/>
      <point x="223" y="483" type="qcurve" smooth="yes"/>
      <point x="223" y="497"/>
      <point x="212" y="521"/>
      <point x="203" y="530" type="qcurve" smooth="yes" name="inserted"/>
      <point x="194" y="539"/>
      <point x="170" y="549"/>
      <point x="156" y="549" type="qcurve" smooth="yes"/>
      <point x="147" y="549" name="inserted"/>
      <point x="131" y="545"/>
      <point x="124" y="541" type="qcurve"/>
      <point x="193" y="660" type="line"/>
      <point x="138" y="660" type="line"/>
      <point x="138" y="637" type="line"/>
      <point x="99" y="637" type="line"/>
      <point x="99" y="700" type="line"/>
      <point x="261" y="700" type="line"/>
      <point x="191" y="583" type="line"/>
      <point x="207" y="577"/>
      <point x="234" y="558"/>
      <point x="243.5" y="545" type="qcurve" smooth="yes" name="inserted"/>
      <point x="253" y="532"/>
      <point x="264" y="501"/>
      <point x="264" y="483" type="qcurve" smooth="yes"/>
      <point x="264" y="461"/>
      <point x="247" y="422"/>
    </contour>
  </outline>
</glyph>
<glyph name="acute" format="1">
  <advance width="274"/>
  <unicode hex="00B4"/>
  <outline>
    <contour>
      <point x="159" y="479" type="qcurve"/>
      <point x="100" y="479" type="line"/>
      <point x="123" y="512"/>
      <point x="167" y="579"/>
      <point x="190" y="612" type="qcurve"/>
      <point x="274" y="612" type="line"/>
      <point x="245" y="579"/>
      <point x="188" y="512"/>
    </contour>
  </outline>
</glyph>
<glyph name="mu" format="2">
  <advance width="545"/>
  <unicode hex="00B5"/>
  <outline>
    <contour>
      <point x="165" y="-201" type="line"/>
      <point x="82" y="-201" type="line"/>
      <point x="82" y="296" type="line"/>
      <point x="16" y="296" type="line"/>
      <point x="16" y="375" type="line"/>
      <point x="165" y="375" type="line"/>
      <point x="165" y="141" type="line"/>
      <point x="167" y="114"/>
      <point x="202" y="75"/>
      <point x="240" y="73" type="qcurve"/>
      <point x="266" y="73"/>
      <point x="313" y="91"/>
      <point x="331" y="107" type="qcurve" smooth="yes" name="inserted"/>
      <point x="349" y="123"/>
      <point x="371" y="167"/>
      <point x="371" y="193" type="qcurve" smooth="yes"/>
      <point x="371" y="296" type="line"/>
      <point x="305" y="296" type="line"/>
      <point x="305" y="375" type="line"/>
      <point x="454" y="375" type="line"/>
      <point x="454" y="70" type="line"/>
      <point x="516" y="70" type="line"/>
      <point x="516" y="0" type="line"/>
      <point x="371" y="0" type="line"/>
      <point x="371" y="51" type="line"/>
      <point x="374" y="96" type="line"/>
      <point x="354" y="48"/>
      <point x="265" y="-9"/>
      <point x="211" y="-9" type="qcurve" smooth="yes"/>
      <point x="198.5" y="-9" name="inserted"/>
      <point x="175.5" y="-6"/>
      <point x="165" y="-3" type="qcurve"/>
    </contour>
  </outline>
</glyph>
<glyph name="paragraph" format="2">
  <advance width="547"/>
  <unicode hex="00B6"/>
  <outline>
    <contour>
      <point x="284" y="0" type="line"/>
      <point x="201" y="0" type="line"/>
      <point x="201" y="423" type="line"/>
      <point x="167" y="423"/>
      <point x="107" y="448"/>
      <point x="85.0" y="470.0" type="qcurve" smooth="yes" name="inserted"/>
      <point x="63" y="492"/>
      <point x="38" y="552"/>
      <point x="38" y="586" type="qcurve" smooth="yes"/>
      <point x="38" y="620"/>
      <point x="63" y="680"/>
      <point x="85.0" y="702.0" type="qcurve" smooth="yes" name="inserted"/>
      <point x="107" y="724"/>
      <point x="167" y="750"/>
      <point x="201" y="750" type="qcurve" smooth="yes"/>
      <point x="516" y="750" type="line"/>
      <point x="516" y="680" type="line"/>
      <point x="447" y="680" type="line"/>
      <point x="447" y="70" type="line"/>
      <point x="516" y="70" type="line"/>
      <point x="516" y="0" type="line"/>
      <point x="364" y="0" type="line"/>
      <point x="364" y="680" type="line"/>
      <point x="284" y="680" type="line"/>
    </contour>
  </outline>
</glyph>
<glyph name="cedilla" format="2">
  <advance width="452"/>
  <unicode hex="00B8"/>
  <outline>
    <contour>
      <point x="315" y="-142" type="qcurve" smooth="yes"/>
      <point x="315" y="-193"/>
      <point x="261.1524567539653" y="-250.0"/>
      <point x="210" y="-250" type="qcurve" smooth="yes"/>
      <point x="176" y="-250"/>
      <point x="119" y="-213"/>
      <point x="106" y="-175" type="qcurve"/>
      <point x="117" y="-169"/>
      <point x="141" y="-157"/>
      <point x="152" y="-151" type="qcurve"/>
      <point x="157" y="-167"/>
      <point x="183" y="-188"/>
      <point x="203" y="-188" type="qcurve" smooth="yes"/>
      <point x="227" y="-188"/>
      <point x="253" y="-156"/>
      <point x="253" y="-132" type="qcurve" smooth="yes"/>
      <point x="253" y="-112"/>
      <point x="231" y="-89"/>
      <point x="218.5" y="-80.0" type="qcurve" smooth="yes" name="inserted"/>
      <point x="206" y="-71"/>
      <point x="184" y="-51"/>
      <point x="184" y="-34" type="qcurve" smooth="yes"/>
      <point x="184" y="0" type="line"/>
      <point x="235" y="0" type="line"/>
      <point x="235" y="-7" type="line" smooth="yes"/>
      <point x="235.0" y="-34.809514933650036"/>
      <point x="264.9172374697018" y="-50.931031224751486"/>
      <point x="277" y="-61" type="qcurve" smooth="yes"/>
      <point x="298" y="-77"/>
      <point x="315" y="-117"/>
    </contour>
  </outline>
</glyph>
<glyph name="onesuperior" format="1">
  <advance width="273"/>
  <unicode hex="00B9"/>
  <outline>
    <contour>
      <point x="164" y="401" type="line"/>
      <point x="53" y="401" type="line"/>
      <point x="53" y="437" type="line"/>
      <point x="89" y="437" type="line"/>
      <point x="89" y="663" type="line"/>
      <point x="58" y="663" type="line"/>
      <point x="58" y="700" type="line"/>
      <point x="128" y="700" type="line"/>
      <point x="128" y="437" type="line"/>
      <point x="164" y="437" type="line"/>
    </contour>
  </outline>
</glyph>
<glyph name="ordmasculine" format="1">
  <advance width="469"/>
  <unicode hex="00BA"/>
  <outline>
    <contour>
      <point x="337.5" y="341.5" type="qcurve" smooth="yes" name="inserted"/>
      <point x="318" y="322"/>
      <point x="265" y="300"/>
      <point x="234" y="300" type="qcurve" smooth="yes"/>
      <point x="204" y="300"/>
      <point x="152" y="322"/>
      <point x="132.5" y="341.5" type="qcurve" smooth="yes" name="inserted"/>
      <point x="113" y="361"/>
      <point x="90" y="412"/>
      <point x="90" y="442" type="qcurve" smooth="yes"/>
      <point x="90" y="470"/>
      <point x="113" y="522"/>
      <point x="132.5" y="541.5" type="qcurve" smooth="yes" name="inserted"/>
      <point x="152" y="561"/>
      <point x="204" y="583"/>
      <point x="234" y="583" type="qcurve" smooth="yes"/>
      <point x="265" y="583"/>
      <point x="318" y="561"/>
      <point x="337.5" y="541.5" type="qcurve" smooth="yes" name="inserted"/>
      <point x="357" y="522"/>
      <point x="379" y="470"/>
      <point x="379" y="442" type="qcurve" smooth="yes"/>
      <point x="379" y="412"/>
      <point x="357" y="361"/>
    </contour>
    <contour>
      <point x="174.0" y="382.0" type="qcurve" smooth="yes" name="inserted"/>
      <point x="185" y="371"/>
      <point x="216" y="358"/>
      <point x="233" y="358" type="qcurve" smooth="yes"/>
      <point x="250" y="358"/>
      <point x="281" y="371"/>
      <point x="292.5" y="382.0" type="qcurve" smooth="yes" name="inserted"/>
      <point x="304" y="393"/>
      <point x="317" y="424"/>
      <point x="317" y="441" type="qcurve" smooth="yes"/>
      <point x="317" y="458"/>
      <point x="304" y="488"/>
      <point x="292.5" y="500.0" type="qcurve" smooth="yes" name="inserted"/>
      <point x="281" y="512"/>
      <point x="250" y="525"/>
      <point x="233" y="525" type="qcurve" smooth="yes"/>
      <point x="216" y="525"/>
      <point x="185" y="512"/>
      <point x="174.0" y="500.0" type="qcurve" smooth="yes" name="inserted"/>
      <point x="163" y="488"/>
      <point x="150" y="458"/>
      <point x="150" y="441" type="qcurve" smooth="yes"/>
      <point x="150" y="424"/>
      <point x="163" y="393"/>
    </contour>
  </outline>
</glyph>
<glyph name="onequarter" format="1">
  <advance width="968"/>
  <unicode hex="00BC"/>
  <outline>
    <contour>
      <point x="340" y="-19" type="qcurve"/>
      <point x="256" y="-19" type="line"/>
      <point x="326" y="171"/>
      <point x="464" y="546"/>
      <point x="534" y="736" type="qcurve"/>
      <point x="618" y="736" type="line"/>
      <point x="548" y="546"/>
      <point x="410" y="171"/>
    </contour>
    <contour>
      <point x="835" y="0" type="line"/>
      <point x="655" y="0" type="line"/>
      <point x="655" y="59" type="line"/>
      <point x="711" y="59" type="line"/>
      <point x="711" y="136" type="line"/>
      <point x="501" y="136" type="line"/>
      <point x="773" y="490" type="line"/>
      <point x="773" y="197" type="line"/>
      <point x="845" y="197" type="line"/>
      <point x="845" y="136" type="line"/>
      <point x="773" y="136" type="line"/>
      <point x="773" y="59" type="line"/>
      <point x="835" y="59" type="line"/>
    </contour>
    <contour>
      <point x="711" y="308" type="line"/>
      <point x="626" y="197" type="line"/>
      <point x="711" y="197" type="line"/>
    </contour>
    <contour>
      <point x="285" y="234" type="line"/>
      <point x="113" y="234" type="line"/>
      <point x="113" y="290" type="line"/>
      <point x="169" y="290" type="line"/>
      <point x="169" y="638" type="line"/>
      <point x="121" y="638" type="line"/>
      <point x="121" y="695" type="line"/>
      <point x="229" y="695" type="line"/>
      <point x="229" y="290" type="line"/>
      <point x="285" y="290" type="line"/>
    </contour>
  </outline>
</glyph>
<glyph name="onehalf" format="2">
  <advance width="1069"/>
  <unicode hex="00BD"/>
  <outline>
    <contour>
      <point x="285" y="234" type="line"/>
      <point x="113" y="234" type="line"/>
      <point x="113" y="290" type="line"/>
      <point x="169" y="290" type="line"/>
      <point x="169" y="638" type="line"/>
      <point x="121" y="638" type="line"/>
      <point x="121" y="695" type="line"/>
      <point x="229" y="695" type="line"/>
      <point x="229" y="290" type="line"/>
      <point x="285" y="290" type="line"/>
    </contour>
    <contour>
      <point x="861" y="0" type="line"/>
      <point x="548" y="0" type="line"/>
      <point x="591" y="44"/>
      <point x="674" y="127"/>
      <point x="705.5" y="165.5" type="qcurve" smooth="yes" name="inserted"/>
      <point x="737" y="204"/>
      <point x="776" y="277"/>
      <point x="776" y="311" type="qcurve" smooth="yes"/>
      <point x="776" y="337"/>
      <point x="759" y="374"/>
      <point x="745.5" y="386" type="qcurve" smooth="yes" name="inserted"/>
      <point x="732" y="398"/>
      <point x="702" y="410"/>
      <point x="689" y="410" type="qcurve" smooth="yes"/>
      <point x="662" y="410"/>
      <point x="628" y="391"/>
      <point x="618" y="377.5" type="qcurve" smooth="yes" name="inserted"/>
      <point x="608" y="364"/>
      <point x="601" y="334"/>
      <point x="601" y="323" type="qcurve" smooth="yes"/>
      <point x="601" y="300"/>
      <point x="615" y="263"/>
      <point x="628" y="249" type="qcurve"/>
      <point x="593" y="213" type="line"/>
      <point x="569" y="229"/>
      <point x="541" y="295"/>
      <point x="541" y="323" type="qcurve" smooth="yes"/>
      <point x="541" y="351"/>
      <point x="560" y="404"/>
      <point x="579" y="424" type="qcurve" smooth="yes" name="inserted"/>
      <point x="598" y="444"/>
      <point x="653" y="467"/>
      <point x="689" y="467" type="qcurve" smooth="yes"/>
      <point x="722" y="467"/>
      <point x="776" y="443"/>
      <point x="795" y="422.5" type="qcurve" smooth="yes" name="inserted"/>
      <point x="814" y="402"/>
      <point x="835" y="349"/>
      <point x="835" y="319" type="qcurve" smooth="yes"/>
      <point x="835" y="284"/>
      <point x="810" y="218"/>
      <point x="790" y="185.5" type="qcurve" smooth="yes" name="inserted"/>
      <point x="770" y="153"/>
      <point x="718" y="89"/>
      <point x="689" y="57" type="qcurve"/>
      <point x="805" y="57" type="line"/>
      <point x="805" y="123" type="line"/>
      <point x="861" y="123" type="line"/>
    </contour>
    <contour>
      <point x="340" y="-19" type="qcurve"/>
      <point x="256" y="-19" type="line"/>
      <point x="326" y="171"/>
      <point x="464" y="546"/>
      <point x="534" y="736" type="qcurve"/>
      <point x="618" y="736" type="line"/>
      <point x="548" y="546"/>
      <point x="410" y="171"/>
    </contour>
  </outline>
</glyph>
<glyph name="threequarters" format="2">
  <advance width="1276"/>
  <unicode hex="00BE"/>
  <outline>
    <contour>
      <point x="381.5" y="248.0" type="qcurve" smooth="yes" name="inserted"/>
      <point x="358" y="225"/>
      <point x="297" y="199"/>
      <point x="262" y="199" type="qcurve" smooth="yes"/>
      <point x="225" y="199"/>
      <point x="162" y="229"/>
      <point x="139" y="254" type="qcurve"/>
      <point x="186" y="298" type="line"/>
      <point x="200" y="281"/>
      <point x="239" y="261"/>
      <point x="262" y="261" type="qcurve" smooth="yes"/>
      <point x="284" y="261"/>
      <point x="322" y="278"/>
      <point x="336.0" y="292.5" type="qcurve" smooth="yes" name="inserted"/>
      <point x="350" y="307"/>
      <point x="367" y="345"/>
      <point x="367" y="367" type="qcurve" smooth="yes"/>
      <point x="367" y="388"/>
      <point x="350" y="426"/>
      <point x="336.0" y="440.0" type="qcurve" smooth="yes" name="inserted"/>
      <point x="322" y="454"/>
      <point x="284" y="470"/>
      <point x="262" y="470" type="qcurve" smooth="yes"/>
      <point x="248.0" y="470.0" name="inserted"/>
      <point x="223.0" y="463.5"/>
      <point x="212" y="457" type="qcurve"/>
      <point x="320" y="644" type="line"/>
      <point x="234" y="644" type="line"/>
      <point x="234" y="608" type="line"/>
      <point x="173" y="608" type="line"/>
      <point x="173" y="708" type="line"/>
      <point x="427" y="708" type="line"/>
      <point x="316" y="524" type="line"/>
      <point x="342" y="514"/>
      <point x="384" y="484"/>
      <point x="399.5" y="464.0" type="qcurve" smooth="yes" name="inserted"/>
      <point x="415" y="444"/>
      <point x="432" y="395"/>
      <point x="432" y="367" type="qcurve" smooth="yes"/>
      <point x="432" y="332"/>
      <point x="405" y="271"/>
    </contour>
    <contour>
      <point x="530" y="-19" type="qcurve"/>
      <point x="446" y="-19" type="line"/>
      <point x="516" y="171"/>
      <point x="654" y="546"/>
      <point x="724" y="736" type="qcurve"/>
      <point x="808" y="736" type="line"/>
      <point x="738" y="546"/>
      <point x="600" y="171"/>
    </contour>
    <contour>
      <point x="1034" y="0" type="line"/>
      <point x="854" y="0" type="line"/>
      <point x="854" y="59" type="line"/>
      <point x="910" y="59" type="line"/>
      <point x="910" y="136" type="line"/>
      <point x="700" y="136" type="line"/>
      <point x="972" y="490" type="line"/>
      <point x="972" y="197" type="line"/>
      <point x="1044" y="197" type="line"/>
      <point x="1044" y="136" type="line"/>
      <point x="972" y="136" type="line"/>
      <point x="972" y="59" type="line"/>
      <point x="1034" y="59" type="line"/>
    </contour>
    <contour>
      <point x="910" y="308" type="line"/>
      <point x="825" y="197" type="line"/>
      <point x="910" y="197" type="line"/>
    </contour>
  </outline>
</glyph>
<glyph name="AE" format="2">
  <advance width="777"/>
  <unicode hex="00C6"/>
  <outline>
    <contour>
      <point x="257" y="0" type="line"/>
      <point x="35" y="0" type="line"/>
      <point x="35" y="79" type="line"/>
      <point x="115" y="79" type="line"/>
      <point x="181" y="235"/>
      <point x="312" y="544"/>
      <point x="378" y="700" type="qcurve"/>
      <point x="728" y="700" type="line"/>
      <point x="728" y="546" type="line"/>
      <point x="649" y="546" type="line"/>
      <point x="649" y="621" type="line"/>
      <point x="475" y="621" type="line"/>
      <point x="475" y="392" type="line"/>
      <point x="689" y="392" type="line"/>
      <point x="689" y="313" type="line"/>
      <point x="475" y="313" type="line"/>
      <point x="475" y="79" type="line"/>
      <point x="663" y="79" type="line"/>
      <point x="663" y="154" type="line"/>
      <point x="742" y="154" type="line"/>
      <point x="742" y="0" type="line"/>
      <point x="392" y="0" type="line"/>
      <point x="392" y="264" type="line"/>
      <point x="277" y="264" type="line"/>
      <point x="257" y="217"/>
      <point x="218" y="126"/>
      <point x="198" y="79" type="qcurve"/>
      <point x="257" y="79" type="line"/>
    </contour>
    <contour>
      <point x="392" y="548" type="line"/>
      <point x="378" y="496"/>
      <point x="331" y="394"/>
      <point x="310" y="343" type="qcurve"/>
      <point x="392" y="343" type="line"/>
    </contour>
  </outline>
</glyph>
<glyph name="Ccedilla" format="1">
  <advance width="572"/>
  <unicode hex="00C7"/>
  <outline>
    <contour>
      <point x="459.5" y="-217.0" type="qcurve" smooth="yes" name="inserted"/>
      <point x="446" y="-232"/>
      <point x="407" y="-250"/>
      <point x="381" y="-250" type="qcurve" smooth="yes"/>
      <point x="347" y="-250"/>
      <point x="290" y="-213"/>
      <point x="277" y="-175" type="qcurve"/>
      <point x="323" y="-151" type="line"/>
      <point x="328" y="-167"/>
      <point x="354" y="-188"/>
      <point x="374" y="-188" type="qcurve" smooth="yes"/>
      <point x="398" y="-188"/>
      <point x="424" y="-156"/>
      <point x="424" y="-132" type="qcurve" smooth="yes"/>
      <point x="424" y="-112"/>
      <point x="402" y="-89"/>
      <point x="389.5" y="-80.0" type="qcurve" smooth="yes" name="inserted"/>
      <point x="377" y="-71"/>
      <point x="355" y="-51"/>
      <point x="355" y="-34" type="qcurve" smooth="yes"/>
      <point x="355" y="-6" type="line"/>
      <point x="287" y="1"/>
      <point x="171" y="61"/>
      <point x="127.5" y="108.5" type="qcurve" smooth="yes" name="inserted"/>
      <point x="84" y="156"/>
      <point x="35" y="280"/>
      <point x="35" y="349" type="qcurve" smooth="yes"/>
      <point x="35" y="423"/>
      <point x="91" y="554"/>
      <point x="139.5" y="602.5" type="qcurve" smooth="yes" name="inserted"/>
      <point x="188" y="651"/>
      <point x="318" y="708"/>
      <point x="392" y="708" type="qcurve" smooth="yes"/>
      <point x="443" y="708"/>
      <point x="534" y="682"/>
      <point x="575" y="658" type="qcurve"/>
      <point x="575" y="436" type="line"/>
      <point x="496" y="436" type="line"/>
      <point x="496" y="607" type="line"/>
      <point x="471.0" y="618.0" name="inserted"/>
      <point x="419.0" y="629.0"/>
      <point x="392" y="629" type="qcurve" smooth="yes"/>
      <point x="335" y="629"/>
      <point x="236" y="585"/>
      <point x="198.5" y="546.5" type="qcurve" smooth="yes" name="inserted"/>
      <point x="161" y="508"/>
      <point x="118" y="406"/>
      <point x="118" y="349" type="qcurve" smooth="yes"/>
      <point x="118" y="292"/>
      <point x="161" y="190"/>
      <point x="198.5" y="152.5" type="qcurve" smooth="yes" name="inserted"/>
      <point x="236" y="115"/>
      <point x="335" y="71"/>
      <point x="392" y="71" type="qcurve" smooth="yes"/>
      <point x="429.0" y="71.0" name="inserted"/>
      <point x="497.5" y="89.5"/>
      <point x="529" y="108" type="qcurve"/>
      <point x="574" y="42" type="line"/>
      <point x="536" y="20"/>
      <point x="452" y="-6"/>
      <point x="406" y="-8" type="qcurve"/>
      <point x="406.0" y="-14.5" name="inserted"/>
      <point x="406.5" y="-21.5"/>
      <point x="407" y="-22" type="qcurve"/>
      <point x="412" y="-41"/>
      <point x="437" y="-53"/>
      <point x="448" y="-61" type="qcurve" smooth="yes"/>
      <point x="469" y="-77"/>
      <point x="486" y="-117"/>
      <point x="486" y="-142" type="qcurve" smooth="yes"/>
      <point x="486" y="-163"/>
      <point x="473" y="-202"/>
    </contour>
  </outline>
</glyph>
<glyph name="Eth" format="1">
  <advance width="632"/>
  <unicode hex="00D0"/>
  <outline>
    <contour>
      <point x="211" y="0" type="qcurve" smooth="yes"/>
      <point x="35" y="0" type="line"/>
      <point x="35" y="79" type="line"/>
      <point x="82" y="79" type="line"/>
      <point x="82" y="309" type="line"/>
      <point x="44" y="309" type="line"/>
      <point x="44" y="390" type="line"/>
      <point x="82" y="390" type="line"/>
      <point x="82" y="621" type="line"/>
      <point x="35" y="621" type="line"/>
      <point x="35" y="700" type="line"/>
      <point x="245" y="700" type="line" smooth="yes"/>
      <point x="317" y="700"/>
      <point x="445" y="651"/>
      <point x="493.0" y="605.0" type="qcurve" smooth="yes" name="inserted"/>
      <point x="541" y="559"/>
      <point x="597" y="430"/>
      <point x="597" y="349" type="qcurve" smooth="yes"/>
      <point x="597" y="290"/>
      <point x="556" y="166"/>
      <point x="510.0" y="115.5" type="qcurve" smooth="yes" name="inserted"/>
      <point x="464" y="65"/>
      <point x="317" y="0"/>
    </contour>
    <contour>
      <point x="165" y="309" type="line"/>
      <point x="165" y="79" type="line"/>
      <point x="235" y="79" type="line" smooth="yes"/>
      <point x="294" y="79"/>
      <point x="396" y="118"/>
      <point x="433.5" y="153.0" type="qcurve" smooth="yes" name="inserted"/>
      <point x="471" y="188"/>
      <point x="514" y="288"/>
      <point x="514" y="350" type="qcurve" smooth="yes"/>
      <point x="514" y="412"/>
      <point x="471" y="512"/>
      <point x="433.5" y="547.5" type="qcurve" smooth="yes" name="inserted"/>
      <point x="396" y="583"/>
      <point x="294" y="621"/>
      <point x="235" y="621" type="qcurve" smooth="yes"/>
      <point x="165" y="621" type="line"/>
      <point x="165" y="390" type="line"/>
      <point x="346" y="390" type="line"/>
      <point x="346" y="309" type="line"/>
    </contour>
  </outline>
</glyph>
<glyph name="multiply" format="2">
  <advance width="500"/>
  <unicode hex="00D7"/>
  <outline>
    <contour>
      <point x="265" y="98" type="line"/>
      <point x="168" y="1" type="line"/>
      <point x="110" y="58" type="line"/>
      <point x="208" y="156" type="line"/>
      <point x="109" y="255" type="line"/>
      <point x="168" y="314" type="line"/>
      <point x="267" y="215" type="line"/>
      <point x="365" y="313" type="line"/>
      <point x="422" y="255" type="line"/>
      <point x="325" y="158" type="line"/>
      <point x="423" y="59" type="line"/>
      <point x="364" y="0" type="line"/>
    </contour>
  </outline>
</glyph>
<glyph name="Oslash" format="2">
  <advance width="786"/>
  <unicode hex="00D8"/>
  <outline>
    <contour>
      <point x="118" y="349" type="qcurve" smooth="yes"/>
      <point x="118" y="296"/>
      <point x="154" y="203"/>
      <point x="186" y="166" type="qcurve"/>
      <point x="276" y="271"/>
      <point x="453" y="477"/>
      <point x="543" y="582" type="qcurve"/>
      <point x="510" y="604"/>
      <point x="434" y="629"/>
      <point x="392" y="629" type="qcurve" smooth="yes"/>
      <point x="335" y="629"/>
      <point x="236" y="585"/>
      <point x="198.5" y="546.5" type="qcurve" smooth="yes" name="inserted"/>
      <point x="161" y="508"/>
      <point x="118" y="406"/>
    </contour>
    <contour>
      <point x="244" y="115" type="qcurve"/>
      <point x="276" y="94"/>
      <point x="350" y="71"/>
      <point x="392" y="71" type="qcurve" smooth="yes"/>
      <point x="449" y="71"/>
      <point x="549" y="115"/>
      <point x="586.5" y="152.5" type="qcurve" smooth="yes" name="inserted"/>
      <point x="624" y="190"/>
      <point x="668" y="292"/>
      <point x="668" y="349" type="qcurve" smooth="yes"/>
      <point x="668" y="401"/>
      <point x="632" y="494"/>
      <point x="600" y="531" type="qcurve"/>
      <point x="510" y="426"/>
      <point x="334" y="220"/>
    </contour>
    <contour>
      <point x="191" y="53" type="qcurve"/>
      <point x="176" y="36"/>
      <point x="146" y="0"/>
      <point x="131" y="-17" type="qcurve"/>
      <point x="117" y="-4"/>
      <point x="87" y="21"/>
      <point x="73" y="34" type="qcurve"/>
      <point x="88" y="51"/>
      <point x="117" y="86"/>
      <point x="132" y="103" type="qcurve"/>
      <point x="87" y="151"/>
      <point x="35" y="277"/>
      <point x="35" y="349" type="qcurve" smooth="yes"/>
      <point x="35" y="423"/>
      <point x="91" y="554"/>
      <point x="139.5" y="602.5" type="qcurve" smooth="yes" name="inserted"/>
      <point x="188" y="651"/>
      <point x="318" y="708"/>
      <point x="392" y="708" type="qcurve" smooth="yes"/>
      <point x="449" y="708"/>
      <point x="552" y="674"/>
      <point x="596" y="644" type="qcurve"/>
      <point x="612" y="663"/>
      <point x="644" y="700"/>
      <point x="660" y="719" type="qcurve"/>
      <point x="674" y="706"/>
      <point x="704" y="681"/>
      <point x="718" y="668" type="qcurve"/>
      <point x="702" y="649"/>
      <point x="670" y="613"/>
      <point x="654" y="594" type="qcurve"/>
      <point x="699" y="546"/>
      <point x="751" y="420"/>
      <point x="751" y="349" type="qcurve" smooth="yes"/>
      <point x="751" y="275"/>
      <point x="694" y="145"/>
      <point x="645.5" y="96.5" type="qcurve" smooth="yes" name="inserted"/>
      <point x="597" y="48"/>
      <point x="466" y="-8"/>
      <point x="392" y="-8" type="qcurve" smooth="yes"/>
      <point x="335" y="-8"/>
      <point x="234" y="24"/>
    </contour>
  </outline>
</glyph>
<glyph name="germandbls" format="1">
  <advance width="559"/>
  <unicode hex="00DF"/>
  <outline>
    <contour>
      <point x="459.0" y="54.5" type="qcurve" smooth="yes" name="inserted"/>
      <point x="429" y="25"/>
      <point x="350" y="-9"/>
      <point x="305" y="-9" type="qcurve" smooth="yes"/>
      <point x="281.5" y="-9.0" name="inserted"/>
      <point x="238.5" y="0.0"/>
      <point x="219" y="9" type="qcurve"/>
      <point x="253" y="83" type="line"/>
      <point x="265.5" y="77.5" name="inserted"/>
      <point x="291.5" y="72.0"/>
      <point x="305" y="72" type="qcurve" smooth="yes"/>
      <point x="333" y="72"/>
      <point x="382" y="94"/>
      <point x="400.5" y="112.5" type="qcurve" smooth="yes" name="inserted"/>
      <point x="419" y="131"/>
      <point x="441" y="180"/>
      <point x="441" y="208" type="qcurve" smooth="yes"/>
      <point x="441" y="236"/>
      <point x="419" y="285"/>
      <point x="400.0" y="303.0" type="qcurve" smooth="yes" name="inserted"/>
      <point x="381" y="321"/>
      <point x="331" y="342"/>
      <point x="303" y="342" type="qcurve"/>
      <point x="303" y="352"/>
      <point x="302" y="371"/>
      <point x="302" y="382" type="qcurve" smooth="yes"/>
      <point x="302" y="423" type="line"/>
      <point x="336" y="423"/>
      <point x="382" y="462"/>
      <point x="382" y="497" type="qcurve" smooth="yes"/>
      <point x="382" y="528"/>
      <point x="338" y="577"/>
      <point x="306" y="576" type="qcurve" smooth="yes"/>
      <point x="249" y="574"/>
      <point x="178" y="491"/>
      <point x="178" y="418" type="qcurve" smooth="yes"/>
      <point x="178" y="0" type="line"/>
      <point x="35" y="0" type="line"/>
      <point x="35" y="79" type="line"/>
      <point x="95" y="79" type="line"/>
      <point x="95" y="334" type="line"/>
      <point x="35" y="334" type="line"/>
      <point x="35" y="415" type="line"/>
      <point x="95" y="415" type="line"/>
      <point x="95" y="423" type="line" smooth="yes"/>
      <point x="95" y="477"/>
      <point x="130" y="564"/>
      <point x="159.0" y="594.5" type="qcurve" smooth="yes" name="inserted"/>
      <point x="188" y="625"/>
      <point x="264" y="657"/>
      <point x="305" y="657" type="qcurve" smooth="yes"/>
      <point x="338" y="657"/>
      <point x="396" y="632"/>
      <point x="418.0" y="610.0" type="qcurve" smooth="yes" name="inserted"/>
      <point x="440" y="588"/>
      <point x="465" y="530"/>
      <point x="465" y="497" type="qcurve" smooth="yes"/>
      <point x="465" y="465"/>
      <point x="441" y="410"/>
      <point x="421" y="390" type="qcurve"/>
      <point x="467" y="361"/>
      <point x="524" y="266"/>
      <point x="524" y="208" type="qcurve" smooth="yes"/>
      <point x="524" y="163"/>
      <point x="489" y="84"/>
    </contour>
  </outline>
</glyph>
<glyph name="ae" format="1">
  <advance width="613"/>
  <unicode hex="00E6"/>
  <outline>
    <contour>
      <point x="352" y="242" type="qcurve" smooth="yes"/>
      <point x="352" y="220" type="line"/>
      <point x="382" y="231"/>
      <point x="442" y="253"/>
      <point x="472" y="264" type="qcurve"/>
      <point x="458" y="281"/>
      <point x="423" y="302"/>
      <point x="402" y="302" type="qcurve" smooth="yes"/>
      <point x="387.5" y="302.0" name="inserted"/>
      <point x="361.0" y="296.5"/>
      <point x="349" y="291" type="qcurve"/>
      <point x="350.5" y="280.5" name="inserted"/>
      <point x="352.0" y="256.0"/>
    </contour>
    <contour>
      <point x="119" y="106" type="qcurve" smooth="yes"/>
      <point x="119" y="85"/>
      <point x="167" y="71"/>
      <point x="194" y="71" type="qcurve" smooth="yes"/>
      <point x="205" y="71"/>
      <point x="231" y="72"/>
      <point x="242.0" y="75.0" type="qcurve" smooth="yes" name="inserted"/>
      <point x="253" y="78"/>
      <point x="268" y="93"/>
      <point x="268" y="108" type="qcurve" smooth="yes"/>
      <point x="268" y="134" type="line"/>
      <point x="212" y="134" type="line" smooth="yes"/>
      <point x="198" y="134"/>
      <point x="165" y="132"/>
      <point x="151.0" y="129.0" type="qcurve" smooth="yes" name="inserted"/>
      <point x="137" y="126"/>
      <point x="119" y="115"/>
    </contour>
    <contour>
      <point x="304" y="15" type="qcurve"/>
      <point x="285.5" y="2.5" name="inserted"/>
      <point x="231.0" y="-10.0"/>
      <point x="195" y="-10" type="qcurve" smooth="yes"/>
      <point x="159" y="-10"/>
      <point x="100" y="1"/>
      <point x="79.0" y="15.0" type="qcurve" smooth="yes" name="inserted"/>
      <point x="58" y="29"/>
      <point x="35" y="75"/>
      <point x="35" y="110" type="qcurve" smooth="yes"/>
      <point x="35" y="141"/>
      <point x="59" y="184"/>
      <point x="79.5" y="196.5" type="qcurve" smooth="yes" name="inserted"/>
      <point x="100" y="209"/>
      <point x="152" y="220"/>
      <point x="179" y="220" type="qcurve" smooth="yes"/>
      <point x="268" y="220" type="line"/>
      <point x="268" y="244" type="line" smooth="yes"/>
      <point x="268" y="259"/>
      <point x="263" y="280"/>
      <point x="255.5" y="287.5" type="qcurve" smooth="yes" name="inserted"/>
      <point x="248" y="295"/>
      <point x="219" y="302"/>
      <point x="196" y="302" type="qcurve" smooth="yes"/>
      <point x="183" y="302"/>
      <point x="154" y="297"/>
      <point x="140.0" y="293.0" type="qcurve" smooth="yes" name="inserted"/>
      <point x="126" y="289"/>
      <point x="101" y="279"/>
      <point x="94" y="274" type="qcurve"/>
      <point x="83" y="288"/>
      <point x="61" y="313"/>
      <point x="50" y="327" type="qcurve"/>
      <point x="61" y="338"/>
      <point x="96" y="359"/>
      <point x="116.0" y="366.5" type="qcurve" smooth="yes" name="inserted"/>
      <point x="136" y="374"/>
      <point x="178" y="383"/>
      <point x="197" y="383" type="qcurve" smooth="yes"/>
      <point x="236.0" y="383.0" name="inserted"/>
      <point x="292.0" y="372.0"/>
      <point x="309" y="361" type="qcurve"/>
      <point x="331.0" y="372.0" name="inserted"/>
      <point x="377.5" y="383.0"/>
      <point x="402" y="383" type="qcurve" smooth="yes"/>
      <point x="433" y="383"/>
      <point x="490" y="358"/>
      <point x="512.5" y="336.0" type="qcurve" smooth="yes" name="inserted"/>
      <point x="535" y="314"/>
      <point x="569" y="253"/>
      <point x="578" y="217" type="qcurve"/>
      <point x="521" y="196"/>
      <point x="409" y="154"/>
      <point x="352" y="133" type="qcurve"/>
      <point x="352" y="129" type="line" smooth="yes"/>
      <point x="352.0" y="117.0" name="inserted"/>
      <point x="349.5" y="93.5"/>
      <point x="347" y="82" type="qcurve"/>
      <point x="359" y="76"/>
      <point x="387" y="71"/>
      <point x="402" y="71" type="qcurve" smooth="yes"/>
      <point x="425.0" y="71.0" name="inserted"/>
      <point x="463.0" y="87.0"/>
      <point x="478" y="103" type="qcurve"/>
      <point x="529" y="43" type="line"/>
      <point x="504" y="18"/>
      <point x="440" y="-10"/>
      <point x="402" y="-10" type="qcurve" smooth="yes"/>
      <point x="375.5" y="-10.0" name="inserted"/>
      <point x="326.5" y="2.5"/>
    </contour>
  </outline>
</glyph>
<glyph name="eth" format="2">
  <advance width="471"/>
  <unicode hex="00F0"/>
  <outline>
    <contour>
      <point x="154" y="106" type="qcurve" smooth="yes" name="inserted"/>
      <point x="169" y="91"/>
      <point x="213" y="74"/>
      <point x="239" y="75" type="qcurve" smooth="yes"/>
      <point x="265" y="76"/>
      <point x="307" y="95"/>
      <point x="322" y="111" type="qcurve" smooth="yes" name="inserted"/>
      <point x="337" y="127"/>
      <point x="353" y="170"/>
      <point x="353" y="194" type="qcurve" smooth="yes"/>
      <point x="352" y="219"/>
      <point x="333" y="261"/>
      <point x="318" y="276" type="qcurve" smooth="yes" name="inserted"/>
      <point x="302" y="291"/>
      <point x="258" y="307"/>
      <point x="233" y="306" type="qcurve" smooth="yes"/>
      <point x="206" y="305"/>
      <point x="163" y="286"/>
      <point x="148" y="271" type="qcurve" smooth="yes"/>
      <point x="133" y="255"/>
      <point x="118" y="213"/>
      <point x="119" y="188" type="qcurve" smooth="yes"/>
      <point x="119" y="163"/>
      <point x="138" y="121"/>
    </contour>
    <contour>
      <point x="382" y="56" type="qcurve" smooth="yes" name="inserted"/>
      <point x="356" y="29"/>
      <point x="284" y="-5"/>
      <point x="242" y="-6" type="qcurve" smooth="yes"/>
      <point x="200" y="-7"/>
      <point x="126" y="22"/>
      <point x="98" y="48" type="qcurve" smooth="yes" name="inserted"/>
      <point x="70" y="74"/>
      <point x="36" y="144"/>
      <point x="35" y="185" type="qcurve" smooth="yes"/>
      <point x="34" y="225"/>
      <point x="63" y="298"/>
      <point x="90" y="325" type="qcurve" smooth="yes" name="inserted"/>
      <point x="116" y="352"/>
      <point x="188" y="385"/>
      <point x="230" y="386" type="qcurve" smooth="yes"/>
      <point x="246" y="386" name="inserted"/>
      <point x="278" y="382"/>
      <point x="294" y="378" type="qcurve"/>
      <point x="287" y="399"/>
      <point x="270" y="440"/>
      <point x="260" y="459" type="qcurve" smooth="yes"/>
      <point x="250" y="477"/>
      <point x="229" y="511"/>
      <point x="218" y="528" type="qcurve"/>
      <point x="172" y="478" type="line"/>
      <point x="114" y="531" type="line"/>
      <point x="128" y="546"/>
      <point x="156" y="576"/>
      <point x="170" y="591" type="qcurve"/>
      <point x="148" y="616" name="inserted"/>
      <point x="102" y="662"/>
      <point x="78" y="683" type="qcurve"/>
      <point x="139" y="738" type="line"/>
      <point x="162" y="720" name="inserted"/>
      <point x="206" y="679"/>
      <point x="229" y="655" type="qcurve"/>
      <point x="240" y="668"/>
      <point x="263" y="692"/>
      <point x="274" y="705" type="qcurve"/>
      <point x="288" y="692"/>
      <point x="318" y="667"/>
      <point x="332" y="654" type="qcurve"/>
      <point x="318" y="639"/>
      <point x="292" y="610"/>
      <point x="278" y="595" type="qcurve"/>
      <point x="309" y="554"/>
      <point x="366" y="456"/>
      <point x="388" y="404" type="qcurve" smooth="yes" name="inserted"/>
      <point x="410" y="352"/>
      <point x="436" y="246"/>
      <point x="436" y="197" type="qcurve" smooth="yes"/>
      <point x="437" y="156"/>
      <point x="408" y="84"/>
    </contour>
  </outline>
</glyph>
<glyph name="divide" format="2">
  <advance width="501"/>
  <unicode hex="00F7"/>
  <outline>
    <contour>
      <point x="428" y="206" type="line"/>
      <point x="68" y="206" type="line"/>
      <point x="68" y="287" type="line"/>
      <point x="428" y="287" type="line"/>
    </contour>
    <contour>
      <point x="302" y="373" type="qcurve" smooth="yes"/>
      <point x="302" y="350"/>
      <point x="270" y="321"/>
      <point x="251" y="321" type="qcurve" smooth="yes"/>
      <point x="231" y="321"/>
      <point x="199" y="350"/>
      <point x="199" y="373" type="qcurve" smooth="yes"/>
      <point x="199" y="396"/>
      <point x="231" y="426"/>
      <point x="251" y="426" type="qcurve" smooth="yes"/>
      <point x="270" y="426"/>
      <point x="302" y="396"/>
    </contour>
    <contour>
      <point x="302" y="123" type="qcurve" smooth="yes"/>
      <point x="302" y="100"/>
      <point x="270" y="71"/>
      <point x="251" y="71" type="qcurve" smooth="yes"/>
      <point x="231" y="71"/>
      <point x="199" y="100"/>
      <point x="199" y="123" type="qcurve" smooth="yes"/>
      <point x="199" y="146"/>
      <point x="231" y="176"/>
      <point x="251" y="176" type="qcurve" smooth="yes"/>
      <point x="270" y="176"/>
      <point x="302" y="146"/>
    </contour>
  </outline>
</glyph>
<glyph name="oslash" format="2">
  <advance width="471"/>
  <unicode hex="00F8"/>
  <outline>
    <contour>
      <point x="118" y="188" type="qcurve" smooth="yes"/>
      <point x="118" y="170" name="inserted"/>
      <point x="126" y="139"/>
      <point x="135" y="125" type="qcurve"/>
      <point x="172" y="168"/>
      <point x="244" y="252"/>
      <point x="281" y="295" type="qcurve"/>
      <point x="270" y="299" name="inserted"/>
      <point x="247" y="303"/>
      <point x="235" y="303" type="qcurve" smooth="yes"/>
      <point x="209" y="303"/>
      <point x="165" y="285"/>
      <point x="150" y="270" type="qcurve" smooth="yes"/>
      <point x="135" y="255"/>
      <point x="118" y="213"/>
    </contour>
    <contour>
      <point x="179" y="85" type="qcurve"/>
      <point x="192" y="78" name="inserted"/>
      <point x="220" y="72"/>
      <point x="235" y="72" type="qcurve" smooth="yes"/>
      <point x="257" y="72"/>
      <point x="294" y="85"/>
      <point x="309" y="96" type="qcurve" smooth="yes"/>
      <point x="329" y="111"/>
      <point x="352" y="159"/>
      <point x="352" y="188" type="qcurve" smooth="yes"/>
      <point x="352" y="208"/>
      <point x="340" y="245"/>
      <point x="329" y="259" type="qcurve"/>
      <point x="279" y="201"/>
      <point x="229" y="143"/>
    </contour>
    <contour>
      <point x="126" y="23" type="qcurve"/>
      <point x="115" y="11"/>
      <point x="95" y="-14"/>
      <point x="84" y="-26" type="qcurve"/>
      <point x="73" y="-16"/>
      <point x="49" y="2"/>
      <point x="38" y="12" type="qcurve"/>
      <point x="49" y="25"/>
      <point x="70" y="49"/>
      <point x="81" y="62" type="qcurve"/>
      <point x="59" y="88"/>
      <point x="35" y="152"/>
      <point x="35" y="188" type="qcurve" smooth="yes"/>
      <point x="35" y="228"/>
      <point x="66" y="300"/>
      <point x="93" y="326.5" type="qcurve" smooth="yes" name="inserted"/>
      <point x="120" y="353"/>
      <point x="193" y="384"/>
      <point x="235" y="384" type="qcurve" smooth="yes"/>
      <point x="263" y="384" name="inserted"/>
      <point x="313" y="371"/>
      <point x="335" y="358" type="qcurve"/>
      <point x="344" y="369"/>
      <point x="363" y="390"/>
      <point x="372" y="401" type="qcurve"/>
      <point x="383" y="391"/>
      <point x="406" y="371"/>
      <point x="417" y="361" type="qcurve"/>
      <point x="409" y="351"/>
      <point x="391" y="331"/>
      <point x="383" y="321" type="qcurve"/>
      <point x="408" y="295"/>
      <point x="436" y="226"/>
      <point x="436" y="188" type="qcurve" smooth="yes"/>
      <point x="436" y="147"/>
      <point x="405" y="76"/>
      <point x="378" y="49" type="qcurve" smooth="yes" name="inserted"/>
      <point x="351" y="22"/>
      <point x="277" y="-9"/>
      <point x="235" y="-9" type="qcurve" smooth="yes"/>
      <point x="204" y="-9"/>
      <point x="149" y="8"/>
    </contour>
  </outline>
</glyph>
<glyph name="thorn" format="1">
  <advance width="510"/>
  <unicode hex="00FE"/>
  <outline>
    <contour>
      <point x="258" y="-250" type="line"/>
      <point x="16" y="-250" type="line"/>
      <point x="16" y="-171" type="line"/>
      <point x="93" y="-171" type="line"/>
      <point x="93" y="671" type="line"/>
      <point x="16" y="671" type="line"/>
      <point x="16" y="750" type="line"/>
      <point x="238" y="750" type="line"/>
      <point x="238" y="671" type="line"/>
      <point x="176" y="671" type="line"/>
      <point x="176" y="360" type="line"/>
      <point x="174" y="352"/>
      <point x="168" y="337"/>
      <point x="166" y="329" type="qcurve"/>
      <point x="167" y="332"/>
      <point x="188" y="350"/>
      <point x="205.0" y="359.0" type="qcurve" smooth="yes" name="inserted"/>
      <point x="222" y="368"/>
      <point x="267" y="382"/>
      <point x="293" y="382" type="qcurve" smooth="yes"/>
      <point x="335" y="382"/>
      <point x="409" y="351"/>
      <point x="436.0" y="324.0" type="qcurve" smooth="yes" name="inserted"/>
      <point x="463" y="297"/>
      <point x="494" y="226"/>
      <point x="494" y="187" type="qcurve" smooth="yes"/>
      <point x="494" y="147"/>
      <point x="463" y="76"/>
      <point x="436.0" y="49.0" type="qcurve" smooth="yes" name="inserted"/>
      <point x="409" y="22"/>
      <point x="335" y="-9"/>
      <point x="293" y="-9" type="qcurve" smooth="yes"/>
      <point x="265" y="-9"/>
      <point x="221" y="3"/>
      <point x="205.0" y="10.5" type="qcurve" smooth="yes" name="inserted"/>
      <point x="189" y="18"/>
      <point x="170" y="34"/>
      <point x="167" y="38" type="qcurve"/>
      <point x="169" y="33"/>
      <point x="174" y="24"/>
      <point x="176" y="19" type="qcurve"/>
      <point x="176" y="-171" type="line"/>
      <point x="258" y="-171" type="line"/>
    </contour>
    <contour>
      <point x="176" y="188" type="qcurve" smooth="yes"/>
      <point x="176" y="139"/>
      <point x="241" y="72"/>
      <point x="293" y="72" type="qcurve" smooth="yes"/>
      <point x="345" y="72"/>
      <point x="410" y="139"/>
      <point x="410" y="188" type="qcurve" smooth="yes"/>
      <point x="410" y="238"/>
      <point x="345" y="303"/>
      <point x="293" y="303" type="qcurve" smooth="yes"/>
      <point x="241" y="303"/>
      <point x="176" y="238"/>
    </contour>
  </outline>
</glyph>
<glyph name="dotlessi" format="2">
  <advance width="292"/>
  <unicode hex="0131"/>
  <outline>
    <contour>
      <point x="257" y="0" type="line"/>
      <point x="35" y="0" type="line"/>
      <point x="35" y="79" type="line"/>
      <point x="105" y="79" type="line"/>
      <point x="105" y="296" type="line"/>
      <point x="35" y="296" type="line"/>
      <point x="35" y="375" type="line"/>
      <point x="188" y="375" type="line"/>
      <point x="188" y="79" type="line"/>
      <point x="257" y="79" type="line"/>
    </contour>
  </outline>
</glyph>
<glyph name="OE" format="2">
  <advance width="977"/>
  <unicode hex="0152"/>
  <outline>
    <contour>
      <point x="849" y="546" type="line"/>
      <point x="849" y="621" type="line"/>
      <point x="580" y="621" type="line"/>
      <point x="580" y="392" type="line"/>
      <point x="889" y="392" type="line"/>
      <point x="889" y="313" type="line"/>
      <point x="580" y="313" type="line"/>
      <point x="580" y="79" type="line"/>
      <point x="863" y="79" type="line"/>
      <point x="863" y="154" type="line"/>
      <point x="942" y="154" type="line"/>
      <point x="942" y="0" type="line"/>
      <point x="507" y="0" type="line"/>
      <point x="480" y="-4"/>
      <point x="441" y="-8"/>
      <point x="404" y="-8" type="qcurve" smooth="yes"/>
      <point x="315" y="-8"/>
      <point x="187" y="42"/>
      <point x="138" y="92" type="qcurve" smooth="yes" name="inserted"/>
      <point x="90" y="141"/>
      <point x="35" y="275"/>
      <point x="35" y="349" type="qcurve" smooth="yes"/>
      <point x="35" y="423"/>
      <point x="92" y="555"/>
      <point x="141" y="604" type="qcurve" smooth="yes"/>
      <point x="194" y="656"/>
      <point x="322" y="704"/>
      <point x="400" y="704" type="qcurve" smooth="yes"/>
      <point x="423" y="704"/>
      <point x="471" y="703"/>
      <point x="497" y="700" type="qcurve"/>
      <point x="928" y="700" type="line"/>
      <point x="928" y="546" type="line"/>
    </contour>
    <contour>
      <point x="118" y="349" type="qcurve" smooth="yes"/>
      <point x="118" y="291"/>
      <point x="159" y="185"/>
      <point x="197" y="148" type="qcurve" smooth="yes" name="inserted"/>
      <point x="234" y="110"/>
      <point x="336" y="71"/>
      <point x="402" y="71" type="qcurve" smooth="yes"/>
      <point x="449" y="71"/>
      <point x="481" y="74"/>
      <point x="497" y="79" type="qcurve"/>
      <point x="497" y="620" type="line"/>
      <point x="466" y="624"/>
      <point x="433" y="629"/>
      <point x="402" y="629" type="qcurve" smooth="yes"/>
      <point x="343" y="629"/>
      <point x="245" y="592"/>
      <point x="204" y="554" type="qcurve" smooth="yes"/>
      <point x="164" y="516"/>
      <point x="118" y="409"/>
    </contour>
  </outline>
</glyph>
